<?xml version="1.0" encoding="UTF-8" standalone="no"?>
<!-- Created with Inkscape (http://www.inkscape.org/) -->

<svg
   width="210mm"
   height="297mm"
   viewBox="0 0 210 297"
   version="1.1"
   id="svg5"
   inkscape:version="1.1 (c4e8f9ed74, 2021-05-24)"
   sodipodi:docname="clase_2021.08.19.svg"
   xmlns:inkscape="http://www.inkscape.org/namespaces/inkscape"
   xmlns:sodipodi="http://sodipodi.sourceforge.net/DTD/sodipodi-0.dtd"
   xmlns="http://www.w3.org/2000/svg"
   xmlns:svg="http://www.w3.org/2000/svg">
  <sodipodi:namedview
     id="namedview7"
     pagecolor="#ffffff"
     bordercolor="#999999"
     borderopacity="1"
     inkscape:pageshadow="0"
     inkscape:pageopacity="0"
     inkscape:pagecheckerboard="0"
     inkscape:document-units="mm"
     showgrid="false"
     inkscape:zoom="1.3077722"
     inkscape:cx="221.83019"
     inkscape:cy="3544.0759"
     inkscape:window-width="1471"
     inkscape:window-height="991"
     inkscape:window-x="26"
     inkscape:window-y="23"
     inkscape:window-maximized="0"
     inkscape:current-layer="layer1" />
  <defs
     id="defs2">
    <marker
       style="overflow:visible"
       id="Arrow2Lstart"
       refX="0.0"
       refY="0.0"
       orient="auto"
       inkscape:stockid="Arrow2Lstart"
       inkscape:isstock="true">
      <path
         transform="scale(1.1) translate(1,0)"
         d="M 8.7185878,4.0337352 L -2.2072895,0.016013256 L 8.7185884,-4.0017078 C 6.9730900,-1.6296469 6.9831476,1.6157441 8.7185878,4.0337352 z "
         style="fill-rule:evenodd;fill:context-stroke;stroke-width:0.62500000;stroke-linejoin:round"
         id="path7392" />
    </marker>
    <marker
       style="overflow:visible;"
       id="marker7644"
       refX="0.0"
       refY="0.0"
       orient="auto"
       inkscape:stockid="Arrow1Lend"
       inkscape:isstock="true">
      <path
         transform="scale(0.8) rotate(180) translate(12.5,0)"
         style="fill-rule:evenodd;fill:context-stroke;stroke:context-stroke;stroke-width:1.0pt;"
         d="M 0.0,0.0 L 5.0,-5.0 L -12.5,0.0 L 5.0,5.0 L 0.0,0.0 z "
         id="path7642" />
    </marker>
    <marker
       style="overflow:visible;"
       id="Arrow1Lend"
       refX="0.0"
       refY="0.0"
       orient="auto"
       inkscape:stockid="Arrow1Lend"
       inkscape:isstock="true">
      <path
         transform="scale(0.8) rotate(180) translate(12.5,0)"
         style="fill-rule:evenodd;fill:context-stroke;stroke:context-stroke;stroke-width:1.0pt;"
         d="M 0.0,0.0 L 5.0,-5.0 L -12.5,0.0 L 5.0,5.0 L 0.0,0.0 z "
         id="path7377" />
    </marker>
    <marker
       style="overflow:visible"
       id="marker7644-2"
       refX="0"
       refY="0"
       orient="auto"
       inkscape:stockid="Arrow1Lend"
       inkscape:isstock="true">
      <path
         transform="matrix(-0.8,0,0,-0.8,-10,0)"
         style="fill:context-stroke;fill-rule:evenodd;stroke:context-stroke;stroke-width:1pt"
         d="M 0,0 5,-5 -12.5,0 5,5 Z"
         id="path7642-9" />
    </marker>
    <marker
       style="overflow:visible"
       id="marker7644-0"
       refX="0"
       refY="0"
       orient="auto"
       inkscape:stockid="Arrow1Lend"
       inkscape:isstock="true">
      <path
         transform="matrix(-0.8,0,0,-0.8,-10,0)"
         style="fill:context-stroke;fill-rule:evenodd;stroke:context-stroke;stroke-width:1pt"
         d="M 0,0 5,-5 -12.5,0 5,5 Z"
         id="path7642-93" />
    </marker>
    <marker
       style="overflow:visible"
       id="marker7644-0-0"
       refX="0"
       refY="0"
       orient="auto"
       inkscape:stockid="Arrow1Lend"
       inkscape:isstock="true">
      <path
         transform="matrix(-0.8,0,0,-0.8,-10,0)"
         style="fill:context-stroke;fill-rule:evenodd;stroke:context-stroke;stroke-width:1pt"
         d="M 0,0 5,-5 -12.5,0 5,5 Z"
         id="path7642-93-6" />
    </marker>
    <marker
       style="overflow:visible"
       id="marker7644-7"
       refX="0"
       refY="0"
       orient="auto"
       inkscape:stockid="Arrow1Lend"
       inkscape:isstock="true">
      <path
         transform="matrix(-0.8,0,0,-0.8,-10,0)"
         style="fill:context-stroke;fill-rule:evenodd;stroke:context-stroke;stroke-width:1pt"
         d="M 0,0 5,-5 -12.5,0 5,5 Z"
         id="path7642-92" />
    </marker>
    <marker
       style="overflow:visible"
       id="marker7644-23"
       refX="0"
       refY="0"
       orient="auto"
       inkscape:stockid="Arrow1Lend"
       inkscape:isstock="true">
      <path
         transform="matrix(-0.8,0,0,-0.8,-10,0)"
         style="fill:context-stroke;fill-rule:evenodd;stroke:context-stroke;stroke-width:1pt"
         d="M 0,0 5,-5 -12.5,0 5,5 Z"
         id="path7642-7" />
    </marker>
    <marker
       style="overflow:visible"
       id="marker7644-0-0-8"
       refX="0"
       refY="0"
       orient="auto"
       inkscape:stockid="Arrow1Lend"
       inkscape:isstock="true">
      <path
         transform="matrix(-0.8,0,0,-0.8,-10,0)"
         style="fill:context-stroke;fill-rule:evenodd;stroke:context-stroke;stroke-width:1pt"
         d="M 0,0 5,-5 -12.5,0 5,5 Z"
         id="path7642-93-6-9" />
    </marker>
    <marker
       style="overflow:visible"
       id="marker7644-0-0-9"
       refX="0"
       refY="0"
       orient="auto"
       inkscape:stockid="Arrow1Lend"
       inkscape:isstock="true">
      <path
         transform="matrix(-0.8,0,0,-0.8,-10,0)"
         style="fill:context-stroke;fill-rule:evenodd;stroke:context-stroke;stroke-width:1pt"
         d="M 0,0 5,-5 -12.5,0 5,5 Z"
         id="path7642-93-6-3" />
    </marker>
    <marker
       style="overflow:visible"
       id="marker7644-0-0-94"
       refX="0"
       refY="0"
       orient="auto"
       inkscape:stockid="Arrow1Lend"
       inkscape:isstock="true">
      <path
         transform="matrix(-0.8,0,0,-0.8,-10,0)"
         style="fill:context-stroke;fill-rule:evenodd;stroke:context-stroke;stroke-width:1pt"
         d="M 0,0 5,-5 -12.5,0 5,5 Z"
         id="path7642-93-6-7" />
    </marker>
    <marker
       style="overflow:visible"
       id="marker7644-0-0-0"
       refX="0"
       refY="0"
       orient="auto"
       inkscape:stockid="Arrow1Lend"
       inkscape:isstock="true">
      <path
         transform="matrix(-0.8,0,0,-0.8,-10,0)"
         style="fill:context-stroke;fill-rule:evenodd;stroke:context-stroke;stroke-width:1pt"
         d="M 0,0 5,-5 -12.5,0 5,5 Z"
         id="path7642-93-6-6" />
    </marker>
    <marker
       style="overflow:visible"
       id="marker15772"
       refX="0"
       refY="0"
       orient="auto"
       inkscape:stockid="Arrow1Lend"
       inkscape:isstock="true">
      <path
         transform="matrix(-0.8,0,0,-0.8,-10,0)"
         style="fill:context-stroke;fill-rule:evenodd;stroke:context-stroke;stroke-width:1pt"
         d="M 0,0 5,-5 -12.5,0 5,5 Z"
         id="path15770" />
    </marker>
    <marker
       style="overflow:visible"
       id="marker7644-0-0-94-3"
       refX="0"
       refY="0"
       orient="auto"
       inkscape:stockid="Arrow1Lend"
       inkscape:isstock="true">
      <path
         transform="matrix(-0.8,0,0,-0.8,-10,0)"
         style="fill:context-stroke;fill-rule:evenodd;stroke:context-stroke;stroke-width:1pt"
         d="M 0,0 5,-5 -12.5,0 5,5 Z"
         id="path7642-93-6-7-2" />
    </marker>
    <marker
       style="overflow:visible"
       id="Arrow2Lstart-0"
       refX="0"
       refY="0"
       orient="auto"
       inkscape:stockid="Arrow2Lstart"
       inkscape:isstock="true">
      <path
         transform="matrix(1.1,0,0,1.1,1.1,0)"
         d="M 8.7185878,4.0337352 -2.2072895,0.01601326 8.7185884,-4.0017078 c -1.7454984,2.3720609 -1.7354408,5.6174519 -6e-7,8.035443 z"
         style="fill:context-stroke;fill-rule:evenodd;stroke-width:0.625;stroke-linejoin:round"
         id="path7392-6" />
    </marker>
    <marker
       style="overflow:visible"
       id="marker7644-4"
       refX="0"
       refY="0"
       orient="auto"
       inkscape:stockid="Arrow1Lend"
       inkscape:isstock="true">
      <path
         transform="matrix(-0.8,0,0,-0.8,-10,0)"
         style="fill:context-stroke;fill-rule:evenodd;stroke:context-stroke;stroke-width:1pt"
         d="M 0,0 5,-5 -12.5,0 5,5 Z"
         id="path7642-3" />
    </marker>
    <marker
       style="overflow:visible"
       id="marker7644-0-0-7"
       refX="0"
       refY="0"
       orient="auto"
       inkscape:stockid="Arrow1Lend"
       inkscape:isstock="true">
      <path
         transform="matrix(-0.8,0,0,-0.8,-10,0)"
         style="fill:context-stroke;fill-rule:evenodd;stroke:context-stroke;stroke-width:1pt"
         d="M 0,0 5,-5 -12.5,0 5,5 Z"
         id="path7642-93-6-8" />
    </marker>
    <marker
       style="overflow:visible"
       id="marker18657"
       refX="0"
       refY="0"
       orient="auto"
       inkscape:stockid="Arrow1Lend"
       inkscape:isstock="true">
      <path
         transform="matrix(-0.8,0,0,-0.8,-10,0)"
         style="fill:context-stroke;fill-rule:evenodd;stroke:context-stroke;stroke-width:1pt"
         d="M 0,0 5,-5 -12.5,0 5,5 Z"
         id="path18655" />
    </marker>
    <marker
       style="overflow:visible"
       id="marker7644-0-0-94-6"
       refX="0"
       refY="0"
       orient="auto"
       inkscape:stockid="Arrow1Lend"
       inkscape:isstock="true">
      <path
         transform="matrix(-0.8,0,0,-0.8,-10,0)"
         style="fill:context-stroke;fill-rule:evenodd;stroke:context-stroke;stroke-width:1pt"
         d="M 0,0 5,-5 -12.5,0 5,5 Z"
         id="path7642-93-6-7-8" />
    </marker>
    <marker
       style="overflow:visible"
       id="Arrow2Lstart-8"
       refX="0"
       refY="0"
       orient="auto"
       inkscape:stockid="Arrow2Lstart"
       inkscape:isstock="true">
      <path
         transform="matrix(1.1,0,0,1.1,1.1,0)"
         d="M 8.7185878,4.0337352 -2.2072895,0.01601326 8.7185884,-4.0017078 c -1.7454984,2.3720609 -1.7354408,5.6174519 -6e-7,8.035443 z"
         style="fill:context-stroke;fill-rule:evenodd;stroke-width:0.625;stroke-linejoin:round"
         id="path7392-4" />
    </marker>
    <marker
       style="overflow:visible"
       id="marker7644-0-0-2"
       refX="0"
       refY="0"
       orient="auto"
       inkscape:stockid="Arrow1Lend"
       inkscape:isstock="true">
      <path
         transform="matrix(-0.8,0,0,-0.8,-10,0)"
         style="fill:context-stroke;fill-rule:evenodd;stroke:context-stroke;stroke-width:1pt"
         d="M 0,0 5,-5 -12.5,0 5,5 Z"
         id="path7642-93-6-72" />
    </marker>
    <marker
       style="overflow:visible"
       id="marker7644-0-0-2-6"
       refX="0"
       refY="0"
       orient="auto"
       inkscape:stockid="Arrow1Lend"
       inkscape:isstock="true">
      <path
         transform="matrix(-0.8,0,0,-0.8,-10,0)"
         style="fill:context-stroke;fill-rule:evenodd;stroke:context-stroke;stroke-width:1pt"
         d="M 0,0 5,-5 -12.5,0 5,5 Z"
         id="path7642-93-6-72-1" />
    </marker>
    <marker
       style="overflow:visible"
       id="marker7644-0-0-2-1"
       refX="0"
       refY="0"
       orient="auto"
       inkscape:stockid="Arrow1Lend"
       inkscape:isstock="true">
      <path
         transform="matrix(-0.8,0,0,-0.8,-10,0)"
         style="fill:context-stroke;fill-rule:evenodd;stroke:context-stroke;stroke-width:1pt"
         d="M 0,0 5,-5 -12.5,0 5,5 Z"
         id="path7642-93-6-72-5" />
    </marker>
  </defs>
  <g
     inkscape:label="Layer 1"
     inkscape:groupmode="layer"
     id="layer1">
    <path
       style="fill:none;stroke:#000000;stroke-width:0.264583px;stroke-linecap:butt;stroke-linejoin:miter;stroke-opacity:1"
       d="M 109.06417,126.48232 C 88.246161,140.6887 88.246161,140.6887 88.246161,140.6887 77.279999,164.91763 51.83243,169.49662 76.470735,181.55339 c 24.638305,12.05677 32.557085,8.58421 35.305735,6.79655 2.74865,-1.78765 2.74865,-1.78765 2.74865,-1.78765"
       id="path1116" />
    <path
       style="fill:none;stroke:#000000;stroke-width:0.264583px;stroke-linecap:butt;stroke-linejoin:miter;stroke-opacity:1"
       d="M 22.534533,63.094165 C 1.716524,77.300545 1.716524,77.300545 1.716524,77.300545 -9.249638,101.52947 -34.697207,106.10846 -10.058902,118.16523 c 24.638305,12.05677 32.557085,8.58421 35.305735,6.79655 2.74865,-1.78765 2.74865,-1.78765 2.74865,-1.78765"
       id="path1116-6" />
    <path
       style="fill:none;stroke:#000000;stroke-width:0.264583px;stroke-linecap:butt;stroke-linejoin:miter;stroke-opacity:1"
       d="m 109.06417,126.48232 c 20.81801,14.20638 20.81801,14.20638 20.81801,14.20638 10.96616,24.22893 36.41373,28.80792 11.77542,40.86469 -24.6383,12.05677 -32.55708,8.58421 -35.30573,6.79655 -2.74865,-1.78765 -2.74865,-1.78765 -2.74865,-1.78765"
       id="path1116-3" />
    <path
       style="fill:none;stroke:#000000;stroke-width:0.26458299;stroke-linecap:butt;stroke-linejoin:miter;stroke-opacity:1;stroke-miterlimit:4;stroke-dasharray:0.79374896,0.79374896;stroke-dashoffset:0"
       d="m 22.534533,63.094165 c 20.81801,14.20638 20.81801,14.20638 20.81801,14.20638 10.96616,24.228925 36.41373,28.807915 11.77542,40.864685 -24.6383,12.05678 -32.55708,8.58422 -35.30573,6.79656 -2.74865,-1.78766 -2.74865,-1.78766 -2.74865,-1.78766"
       id="path1116-3-7" />
    <path
       style="fill:none;stroke:#000000;stroke-width:0.264583px;stroke-linecap:butt;stroke-linejoin:miter;stroke-opacity:1"
       d="M 109.06417,126.48232 C 22.534533,63.094165 22.534533,63.094165 22.534533,63.094165"
       id="path1258" />
    <path
       style="fill:none;stroke:#000000;stroke-width:0.264583px;stroke-linecap:butt;stroke-linejoin:miter;stroke-opacity:1"
       d="m -19.815911,110.0631 c 85.916365,65.01933 85.916365,65.01933 85.916365,65.01933"
       id="path1400" />
    <path
       style="fill:none;stroke:#000000;stroke-width:0.264583px;stroke-linecap:butt;stroke-linejoin:miter;stroke-opacity:1"
       d="m 23.361184,105.40826 32.1809,26.37695"
       id="path1542" />
    <text
       xml:space="preserve"
       style="font-style:normal;font-weight:normal;font-size:10.5833px;line-height:1.25;font-family:sans-serif;fill:#000000;fill-opacity:1;stroke:none;stroke-width:0.264583"
       x="55.542084"
       y="131.7852"
       id="text2572"><tspan
         sodipodi:role="line"
         id="tspan2570"
         style="stroke-width:0.264583"
         x="55.542084"
         y="131.7852">x</tspan></text>
    <text
       xml:space="preserve"
       style="font-style:normal;font-weight:normal;font-size:10.5833px;line-height:1.25;font-family:sans-serif;fill:#000000;fill-opacity:1;stroke:none;stroke-width:0.264583"
       x="160.06921"
       y="225.32051"
       id="text2572-3"><tspan
         sodipodi:role="line"
         id="tspan2570-5"
         style="stroke-width:0.264583"
         x="160.06921"
         y="225.32051">Fx</tspan></text>
    <text
       xml:space="preserve"
       style="font-style:normal;font-weight:normal;font-size:10.5833px;line-height:1.25;font-family:sans-serif;fill:#000000;fill-opacity:1;stroke:none;stroke-width:0.264583"
       x="117.16444"
       y="114.32219"
       id="text2572-3-2"><tspan
         sodipodi:role="line"
         id="tspan2570-5-7"
         style="stroke-width:0.264583"
         x="117.16444"
         y="114.32219">Fy</tspan></text>
    <text
       xml:space="preserve"
       style="font-style:normal;font-weight:normal;font-size:10.5833px;line-height:1.25;font-family:sans-serif;fill:#000000;fill-opacity:1;stroke:none;stroke-width:0.264583"
       x="84.220047"
       y="168.66533"
       id="text2572-3-2-6"><tspan
         sodipodi:role="line"
         id="tspan2570-5-7-1"
         style="stroke-width:0.264583"
         x="84.220047"
         y="168.66533">Mz</tspan></text>
    <path
       style="fill:#ffffff;stroke-width:0.264583;stroke-miterlimit:4;stroke-dasharray:0.79375, 0.79375;stroke-dashoffset:0;stop-color:#000000"
       id="path2863"
       d="M 23.858538,103.80721 C 18.780516,100.96698 13.206383,99.587387 7.5845569,98.284418 2.1444909,97.164521 -3.3279945,96.143031 -8.8560205,95.570375 c -2.7717715,-0.307099 -5.5080585,0.323125 -8.1763545,1.005538 -2.207847,0.674674 -4.483753,1.063824 -6.727371,1.591091 -1.222473,0.279585 -2.414322,0.666649 -3.601057,1.066897 0,0 -2.978629,2.322329 -2.978629,2.322329 v 0 c 1.190051,-0.4373 2.3852,-0.86561 3.626832,-1.13771 2.246055,-0.529973 4.540952,-0.846759 6.73572,-1.585396 2.645948,-0.714727 5.36518,-1.349357 8.125591,-1.124347 5.6803596,0.362138 11.32944484,1.156115 16.8993294,2.329923 1.4009732,0.33875 2.8131947,0.63396 4.2029197,1.01625 3.9809799,1.09509 7.8920219,2.58137 11.3443019,4.8772 0,0 3.263276,-2.12494 3.263276,-2.12494 z" />
    <path
       style="fill:none;stroke:#000000;stroke-width:0.264583px;stroke-linecap:butt;stroke-linejoin:miter;stroke-opacity:1"
       d="m 23.361184,105.40826 c -53.700616,-3.85203 -53.700616,-3.85203 -53.700616,-3.85203"
       id="path2978" />
    <path
       style="fill:none;stroke:#000000;stroke-width:0.264583px;stroke-linecap:butt;stroke-linejoin:miter;stroke-opacity:1"
       d="m 23.361184,105.40826 c 3.85203,-53.700616 3.85203,-53.700616 3.85203,-53.700616"
       id="path2978-5" />
    <path
       style="font-variation-settings:normal;opacity:1;vector-effect:none;fill:#8b1313;fill-opacity:1;stroke:#d10000;stroke-width:0.8;stroke-linecap:butt;stroke-linejoin:miter;stroke-miterlimit:4;stroke-dasharray:none;stroke-dashoffset:0;stroke-opacity:1;-inkscape-stroke:none;marker-end:url(#marker7644);stop-color:#000000;stop-opacity:1"
       d="m 109.87818,174.99234 c 3.85203,-53.70062 3.85203,-53.70062 3.85203,-53.70062"
       id="path2978-5-6" />
    <path
       style="font-variation-settings:normal;vector-effect:none;fill:#8b1313;fill-opacity:1;stroke:#d10000;stroke-width:0.8;stroke-linecap:butt;stroke-linejoin:miter;stroke-miterlimit:4;stroke-dasharray:none;stroke-dashoffset:0;stroke-opacity:1;-inkscape-stroke:none;marker-end:url(#marker7644-0);stop-color:#000000"
       d="M 126.72091,176.38133 C 73.020289,172.5293 73.020289,172.5293 73.020289,172.5293"
       id="path2978-5-6-6" />
    <path
       style="font-variation-settings:normal;vector-effect:none;fill:#8b1313;fill-opacity:1;stroke:#d10000;stroke-width:0.8;stroke-linecap:butt;stroke-linejoin:miter;stroke-miterlimit:4;stroke-dasharray:none;stroke-dashoffset:0;stroke-opacity:1;-inkscape-stroke:none;marker-end:url(#marker7644-0-0);stop-color:#000000"
       d="M 141.68251,177.51878 C 87.981887,173.66675 87.981887,173.66675 87.981887,173.66675"
       id="path2978-5-6-6-2" />
    <text
       xml:space="preserve"
       style="font-style:normal;font-weight:normal;font-size:10.5833px;line-height:1.25;font-family:sans-serif;fill:#000000;fill-opacity:1;stroke:none;stroke-width:0.264583"
       x="-37.920036"
       y="95.750824"
       id="text5267"><tspan
         sodipodi:role="line"
         id="tspan5265"
         style="stroke-width:0.264583"
         x="-37.920036"
         y="95.750824">z</tspan></text>
    <text
       xml:space="preserve"
       style="font-style:normal;font-weight:normal;font-size:10.5833px;line-height:1.25;font-family:sans-serif;fill:#000000;fill-opacity:1;stroke:none;stroke-width:0.264583"
       x="27.213213"
       y="51.707642"
       id="text6745"><tspan
         sodipodi:role="line"
         id="tspan6743"
         style="stroke-width:0.264583"
         x="27.213213"
         y="51.707642">y</tspan></text>
    <path
       style="fill:#8b1313;fill-opacity:1;stroke:#d10000;stroke-width:0.8;stroke-linecap:butt;stroke-linejoin:miter;stroke-miterlimit:4;stroke-dasharray:none;stroke-opacity:1;marker-end:url(#marker7644)"
       d="m 109.87818,174.99234 c 56.413,38.73562 56.413,38.73562 56.413,38.73562"
       id="path7292" />
    <path
       style="fill:#8b1313;fill-opacity:1;stroke:#d10000;stroke-width:0.8;stroke-linecap:butt;stroke-linejoin:miter;stroke-miterlimit:4;stroke-dasharray:none;stroke-opacity:1;marker-end:url(#marker7644-4)"
       d="m 121.21113,149.54978 c 56.413,38.73562 56.413,38.73562 56.413,38.73562"
       id="path7292-0" />
    <path
       style="fill:none;stroke:#000df0;stroke-width:0.264583px;stroke-linecap:butt;stroke-linejoin:miter;stroke-opacity:1"
       d="m 23.361184,105.40826 c 86.516996,69.58408 86.516996,69.58408 86.516996,69.58408"
       id="path9561" />
    <path
       style="fill:none;stroke:#000000;stroke-width:0.26499999;stroke-linecap:butt;stroke-linejoin:miter;stroke-opacity:1;stroke-miterlimit:4;stroke-dasharray:0.79499996,0.79499996;stroke-dashoffset:0"
       d="m 23.361184,105.40826 c 43.504278,33.63978 92.287746,-6.646404 92.287746,-6.646404"
       id="path9783" />
    <path
       style="fill:#8b1313;stroke:#d10000;stroke-width:0.8;stroke-linecap:butt;stroke-linejoin:miter;stroke-opacity:1;font-variation-settings:normal;opacity:1;vector-effect:none;fill-opacity:1;stroke-miterlimit:4;stroke-dasharray:none;stroke-dashoffset:0;-inkscape-stroke:none;marker-end:url(#marker7644);stop-color:#000000;stop-opacity:1"
       d="m -30.073698,357.26991 c 64.450346,0 64.450346,0 64.450346,0"
       id="path10006" />
    <path
       style="font-variation-settings:normal;vector-effect:none;fill:#8b1313;fill-opacity:1;stroke:#d10000;stroke-width:0.8;stroke-linecap:butt;stroke-linejoin:miter;stroke-miterlimit:4;stroke-dasharray:none;stroke-dashoffset:0;stroke-opacity:1;-inkscape-stroke:none;marker-end:url(#marker7644-23);stop-color:#000000"
       d="m -30.073698,357.26991 c 0,-64.45034 0,-64.45034 0,-64.45034"
       id="path10006-5" />
    <path
       style="fill:none;stroke:#000000;stroke-width:0.264583px;stroke-linecap:butt;stroke-linejoin:miter;stroke-opacity:1"
       d="m -30.891818,329.11409 c 160.559218,0 160.559218,0 160.559218,0"
       id="path10222" />
    <path
       style="fill:none;stroke:#000000;stroke-width:0.264583px;stroke-linecap:butt;stroke-linejoin:miter;stroke-opacity:1"
       d="m -30.891819,385.8683 c 160.559219,0 160.559219,0 160.559219,0"
       id="path10222-9" />
    <path
       style="fill:none;stroke:#000000;stroke-width:0.265;stroke-linecap:butt;stroke-linejoin:miter;stroke-opacity:1;stroke-miterlimit:4;stroke-dasharray:none"
       d="m -30.004854,363.0396 c 160.559214,0 160.559214,0 160.559214,0"
       id="path10222-9-2" />
    <path
       style="fill:none;stroke:#000000;stroke-width:0.264583px;stroke-linecap:butt;stroke-linejoin:miter;stroke-opacity:1"
       d="m 129.6674,329.11409 c 0,56.75421 0,56.75421 0,56.75421"
       id="path10364" />
    <path
       style="fill:none;stroke:#000000;stroke-width:0.264583px;stroke-linecap:butt;stroke-linejoin:miter;stroke-opacity:1"
       d="m 135.58848,278.49706 c 25.67016,50.61703 25.67016,50.61703 25.67016,50.61703 -31.03381,15.06249 -95.048423,32.3015 -95.048423,32.3015"
       id="path10364-2" />
    <path
       style="fill:none;stroke:#000000;stroke-width:0.264583px;stroke-linecap:butt;stroke-linejoin:miter;stroke-opacity:1"
       d="m 135.58848,278.49705 c -55.996336,23.9558 -89.129237,31.41353 -89.129237,31.41353"
       id="path10872" />
    <path
       style="fill:none;stroke:#000000;stroke-width:0.264583px;stroke-linecap:butt;stroke-linejoin:miter;stroke-opacity:1"
       d="M 177.04803,298.72905 C 154.77058,308.09358 75.447177,338.16181 75.447177,338.16181"
       id="path10987"
       sodipodi:nodetypes="cc" />
    <path
       style="fill:none;stroke:#000000;stroke-width:0.264583px;stroke-linecap:butt;stroke-linejoin:miter;stroke-opacity:1;marker-end:url(#marker7644-0-0)"
       d="m 130.28997,361.16377 c 0.0832,-51.83954 0.0832,-51.83954 0.0832,-51.83954"
       id="path11102" />
    <path
       style="fill:none;stroke:#000000;stroke-width:0.26458299;stroke-linecap:butt;stroke-linejoin:miter;stroke-opacity:1;stroke-miterlimit:4;stroke-dasharray:1.58749792,1.58749792;stroke-dashoffset:0"
       d="m 152.58895,333.95381 c 0.0832,-51.83954 0.0832,-51.83954 0.0832,-51.83954"
       id="path11102-1" />
    <text
       xml:space="preserve"
       style="font-style:normal;font-weight:normal;font-size:10.5833px;line-height:1.25;font-family:sans-serif;fill:#000000;fill-opacity:1;stroke:none;stroke-width:0.264583"
       x="136.12393"
       y="336.46252"
       id="text12462"><tspan
         sodipodi:role="line"
         id="tspan12460"
         style="stroke-width:0.264583"
         x="136.12393"
         y="336.46252">v</tspan></text>
    <text
       xml:space="preserve"
       style="font-style:normal;font-weight:normal;font-size:10.5833px;line-height:1.25;font-family:sans-serif;fill:#000000;fill-opacity:1;stroke:none;stroke-width:0.264583"
       x="131.77171"
       y="358.80417"
       id="text12462-36"><tspan
         sodipodi:role="line"
         id="tspan12460-1"
         style="stroke-width:0.264583"
         x="131.77171"
         y="358.80417">y</tspan></text>
    <text
       xml:space="preserve"
       style="font-style:normal;font-weight:normal;font-size:10.5833px;line-height:1.25;font-family:sans-serif;fill:#000000;fill-opacity:1;stroke:none;stroke-width:0.264583"
       x="125.25886"
       y="305.26343"
       id="text12462-3"><tspan
         sodipodi:role="line"
         id="tspan12460-6"
         style="stroke-width:0.264583"
         x="125.25886"
         y="305.26343">u_G</tspan></text>
    <text
       xml:space="preserve"
       style="font-style:normal;font-weight:normal;font-size:10.5833px;line-height:1.25;font-family:sans-serif;fill:#000000;fill-opacity:1;stroke:none;stroke-width:0.264583"
       x="129.65753"
       y="286.67471"
       id="text12462-3-1"><tspan
         sodipodi:role="line"
         id="tspan12460-6-2"
         style="stroke-width:0.264583"
         x="129.65753"
         y="286.67471">\theta</tspan></text>
    <circle
       id="path13042"
       style="fill:#8b1313;stroke:#d10000;stroke-width:0.264583"
       cx="131.86224"
       cy="163.24532"
       r="0.02699074" />
    <circle
       id="path13044"
       style="fill:#8b1313;stroke:#d10000;stroke-width:0.264583"
       cx="131.86224"
       cy="163.24532"
       r="0.02699074" />
    <path
       style="fill:none;stroke:#000000;stroke-width:0.264583px;stroke-linecap:butt;stroke-linejoin:miter;stroke-opacity:1;font-variation-settings:normal;opacity:1;vector-effect:none;fill-opacity:1;stroke-miterlimit:4;stroke-dasharray:none;stroke-dashoffset:0;-inkscape-stroke:none;marker-end:url(#marker7644-0-0);stop-color:#000000;stop-opacity:1"
       d="m 130.37317,309.32424 c 20.55228,0.23294 20.55228,0.23294 20.55228,0.23294"
       id="path13282" />
    <path
       style="font-variation-settings:normal;vector-effect:none;fill:none;fill-opacity:1;stroke:#000000;stroke-width:0.264582px;stroke-linecap:butt;stroke-linejoin:miter;stroke-miterlimit:4;stroke-dasharray:none;stroke-dashoffset:0;stroke-opacity:1;-inkscape-stroke:none;marker-end:url(#marker7644-0-0-94);stop-color:#000000"
       d="m 130.04337,295.25965 13.60975,0.33595"
       id="path13282-8"
       sodipodi:nodetypes="cc" />
    <path
       style="font-variation-settings:normal;opacity:1;fill:none;fill-opacity:1;stroke:#000000;stroke-width:1;stroke-linecap:butt;stroke-linejoin:miter;stroke-miterlimit:4;stroke-dasharray:none;stroke-dashoffset:0;stroke-opacity:1;stop-color:#000000;stop-opacity:1"
       id="path13849"
       sodipodi:type="arc"
       sodipodi:cx="-268.5419"
       sodipodi:cy="208.14684"
       sodipodi:rx="11.378741"
       sodipodi:ry="15.278202"
       sodipodi:start="5.3015638"
       sodipodi:end="5.9389889"
       sodipodi:arc-type="arc"
       d="m -262.21902,195.44455 a 11.378741,15.278202 0 0 1 4.38846,7.5468"
       sodipodi:open="true"
       transform="rotate(-79.518179)" />
    <path
       style="fill:none;stroke:#0573de;stroke-width:0.264583px;stroke-linecap:butt;stroke-linejoin:miter;stroke-opacity:1"
       d="m 153.21686,309.41639 c 0,0 0.0479,0.0437 -6.53539,-13.33055 5.90668,0.1059 5.90668,0.1059 5.90668,0.1059"
       id="path15076" />
    <path
       style="fill:none;stroke:#0573de;stroke-width:0.265;stroke-linecap:butt;stroke-linejoin:miter;stroke-opacity:1;stroke-miterlimit:4;stroke-dasharray:none;marker-start:url(#Arrow2Lstart)"
       d="m 130.91527,348.19761 c -0.33861,14.90289 -0.36091,14.84199 -0.36091,14.84199"
       id="path15076-0" />
    <path
       style="fill:none;stroke:#000000;stroke-width:0.264583px;stroke-linecap:butt;stroke-linejoin:miter;stroke-opacity:1"
       d="m 44.435233,681.04508 c 25.67016,50.61703 25.67016,50.61703 25.67016,50.61703 -31.03381,15.06249 -95.048423,32.3015 -95.048423,32.3015"
       id="path10364-2-3" />
    <path
       style="fill:none;stroke:#000000;stroke-width:0.264583px;stroke-linecap:butt;stroke-linejoin:miter;stroke-opacity:1"
       d="m 44.435233,681.04508 c -55.996336,23.9558 -89.129237,31.41353 -89.129237,31.41353"
       id="path10872-1" />
    <text
       xml:space="preserve"
       style="font-style:normal;font-weight:normal;font-size:10.5833px;line-height:1.25;font-family:sans-serif;fill:#000000;fill-opacity:1;stroke:none;stroke-width:0.264583"
       x="74.200523"
       y="685.61725"
       id="text12462-0"><tspan
         sodipodi:role="line"
         id="tspan12460-68"
         style="stroke-width:0.264583"
         x="74.200523"
         y="685.61725">v</tspan></text>
    <text
       xml:space="preserve"
       style="font-style:normal;font-weight:normal;font-size:10.5833px;line-height:1.25;font-family:sans-serif;fill:#000000;fill-opacity:1;stroke:none;stroke-width:0.264583"
       x="69.848305"
       y="707.95892"
       id="text12462-36-9"><tspan
         sodipodi:role="line"
         id="tspan12460-1-2"
         style="stroke-width:0.264583"
         x="69.848305"
         y="707.95892">y</tspan></text>
    <path
       style="fill:none;stroke:#0573de;stroke-width:0.265;stroke-linecap:butt;stroke-linejoin:miter;stroke-miterlimit:4;stroke-dasharray:none;stroke-opacity:1;marker-start:url(#Arrow2Lstart-8)"
       d="m 68.991863,697.35236 c -0.33861,14.90289 -0.36091,14.84199 -0.36091,14.84199"
       id="path15076-0-7" />
    <path
       style="fill:none;stroke:#000000;stroke-width:0.264583px;stroke-linecap:butt;stroke-linejoin:miter;stroke-opacity:1"
       d="m 181.98405,433.95764 c 25.67016,50.61703 25.67016,50.61703 25.67016,50.61703 -31.03381,15.06249 -95.04842,32.3015 -95.04842,32.3015"
       id="path10364-2-1" />
    <path
       style="fill:none;stroke:#000000;stroke-width:0.264583px;stroke-linecap:butt;stroke-linejoin:miter;stroke-opacity:1"
       d="m 181.98405,433.95763 c -55.99633,23.9558 -89.129233,31.41353 -89.129233,31.41353"
       id="path10872-5" />
    <path
       style="fill:none;stroke:#000000;stroke-width:0.264583px;stroke-linecap:butt;stroke-linejoin:miter;stroke-opacity:1"
       d="m 221.41208,455.8275 c -22.27745,9.36453 -99.56933,37.79489 -99.56933,37.79489"
       id="path10987-5"
       sodipodi:nodetypes="cc" />
    <path
       style="fill:none;stroke:#000000;stroke-width:0.264583px;stroke-linecap:butt;stroke-linejoin:miter;stroke-opacity:1;marker-end:url(#marker7644-0-0-0)"
       d="m 176.68554,516.62435 c 0.0832,-51.83954 0.0832,-51.83954 0.0832,-51.83954"
       id="path11102-4" />
    <path
       style="fill:none;stroke:#000000;stroke-width:0.264583;stroke-linecap:butt;stroke-linejoin:miter;stroke-miterlimit:4;stroke-dasharray:1.5875, 1.5875;stroke-dashoffset:0;stroke-opacity:1"
       d="m 198.98452,489.41439 c 0.0832,-51.83954 0.0832,-51.83954 0.0832,-51.83954"
       id="path11102-1-7" />
    <text
       xml:space="preserve"
       style="font-style:normal;font-weight:normal;font-size:10.5833px;line-height:1.25;font-family:sans-serif;fill:#000000;fill-opacity:1;stroke:none;stroke-width:0.264583"
       x="182.5195"
       y="491.9231"
       id="text12462-6"><tspan
         sodipodi:role="line"
         id="tspan12460-5"
         style="stroke-width:0.264583"
         x="182.5195"
         y="491.9231">v</tspan></text>
    <text
       xml:space="preserve"
       style="font-style:normal;font-weight:normal;font-size:10.5833px;line-height:1.25;font-family:sans-serif;fill:#000000;fill-opacity:1;stroke:none;stroke-width:0.264583"
       x="178.16728"
       y="514.26477"
       id="text12462-36-6"><tspan
         sodipodi:role="line"
         id="tspan12460-1-9"
         style="stroke-width:0.264583"
         x="178.16728"
         y="514.26477">y</tspan></text>
    <path
       style="font-variation-settings:normal;vector-effect:none;fill:none;fill-opacity:1;stroke:#000000;stroke-width:0.264583px;stroke-linecap:butt;stroke-linejoin:miter;stroke-miterlimit:4;stroke-dasharray:none;stroke-dashoffset:0;stroke-opacity:1;-inkscape-stroke:none;marker-end:url(#marker7644-0-0-0);stop-color:#000000"
       d="m 176.76874,464.78482 c 20.55228,0.23294 20.55228,0.23294 20.55228,0.23294"
       id="path13282-2" />
    <path
       style="font-variation-settings:normal;vector-effect:none;fill:none;fill-opacity:1;stroke:#000000;stroke-width:0.264582px;stroke-linecap:butt;stroke-linejoin:miter;stroke-miterlimit:4;stroke-dasharray:none;stroke-dashoffset:0;stroke-opacity:1;-inkscape-stroke:none;marker-end:url(#marker7644-0-0-94-3);stop-color:#000000"
       d="m 176.43894,450.72023 13.60975,0.33595"
       id="path13282-8-5"
       sodipodi:nodetypes="cc" />
    <path
       style="font-variation-settings:normal;opacity:1;fill:none;fill-opacity:1;stroke:#000000;stroke-width:1;stroke-linecap:butt;stroke-linejoin:miter;stroke-miterlimit:4;stroke-dasharray:none;stroke-dashoffset:0;stroke-opacity:1;stop-color:#000000;stop-opacity:1"
       id="path13849-4"
       sodipodi:type="arc"
       sodipodi:cx="-412.9678"
       sodipodi:cy="282.05014"
       sodipodi:rx="11.378741"
       sodipodi:ry="15.278202"
       sodipodi:start="4.7276226"
       sodipodi:end="5.9389889"
       sodipodi:arc-type="arc"
       sodipodi:open="true"
       transform="rotate(-79.518179)"
       d="m -412.79447,266.77371 a 11.378741,15.278202 0 0 1 10.53801,10.12095" />
    <path
       style="fill:none;stroke:#0573de;stroke-width:0.264583px;stroke-linecap:butt;stroke-linejoin:miter;stroke-opacity:1"
       d="m 199.61243,464.87697 c 0,0 0.0479,0.0437 -6.53539,-13.33055 5.90668,0.1059 5.90668,0.1059 5.90668,0.1059"
       id="path15076-7" />
    <path
       style="fill:none;stroke:#0573de;stroke-width:0.265;stroke-linecap:butt;stroke-linejoin:miter;stroke-miterlimit:4;stroke-dasharray:none;stroke-opacity:1;marker-start:url(#Arrow2Lstart-0)"
       d="m 177.31084,503.65819 c -0.33861,14.90289 -0.36091,14.84199 -0.36091,14.84199"
       id="path15076-0-4" />
    <path
       style="fill:none;stroke:#6d00f4;stroke-width:0.264583px;stroke-linecap:butt;stroke-linejoin:miter;stroke-opacity:1"
       d="m 207.65421,484.57466 c -0.72988,-11.83815 -0.70318,-9.38072 -10.33319,-19.55692 -9.63001,-10.17616 -15.33697,-16.51486 -15.33697,-31.06009 v -2e-5"
       id="path16070"
       sodipodi:nodetypes="cssc" />
    <path
       style="fill:none;stroke:#000000;stroke-width:0.264583px;stroke-linecap:butt;stroke-linejoin:miter;stroke-opacity:1"
       d="m 180.02603,463.33759 c 41.77578,1.00137 41.77578,1.00137 41.77578,1.00137"
       id="path17226" />
    <rect
       style="font-variation-settings:normal;opacity:1;fill:none;fill-opacity:1;stroke:#6d00f4;stroke-width:0.265;stroke-linecap:butt;stroke-linejoin:miter;stroke-miterlimit:4;stroke-dasharray:none;stroke-dashoffset:0;stroke-opacity:1;marker-end:;stop-color:#000000;stop-opacity:1"
       id="rect17875"
       width="5.5535636"
       height="5.6090159"
       x="118.60385"
       y="147.1777"
       rx="0.0016771647"
       ry="0.0016771647" />
    <path
       style="font-variation-settings:normal;opacity:1;fill:none;fill-opacity:1;stroke:#6d00f4;stroke-width:1.00157;stroke-linecap:butt;stroke-linejoin:miter;stroke-miterlimit:4;stroke-dasharray:none;stroke-dashoffset:0;stroke-opacity:1;marker-end:url(#marker7644-0-0);stop-color:#000000;stop-opacity:1"
       id="path17979"
       sodipodi:type="arc"
       sodipodi:cx="-369.54648"
       sodipodi:cy="-157.59692"
       sodipodi:rx="37.002899"
       sodipodi:ry="35.264904"
       sodipodi:start="4.1188322"
       sodipodi:end="5.9389889"
       sodipodi:open="true"
       sodipodi:arc-type="arc"
       d="m -390.24268,-186.83 a 37.002899,35.264904 0 0 1 32.21383,-4.28 37.002899,35.264904 0 0 1 23.31494,21.61328"
       transform="matrix(0,-1,-1,0,0,0)" />
    <path
       style="font-variation-settings:normal;opacity:1;fill:none;fill-opacity:1;stroke:#6d00f4;stroke-width:1.00157;stroke-linecap:butt;stroke-linejoin:miter;stroke-miterlimit:4;stroke-dasharray:none;stroke-dashoffset:0;stroke-opacity:1;marker-end:url(#marker7644-0-0-2);stop-color:#000000;stop-opacity:1"
       id="path17979-2"
       sodipodi:type="arc"
       sodipodi:cx="-718.65161"
       sodipodi:cy="-69.804558"
       sodipodi:rx="37.002899"
       sodipodi:ry="35.264904"
       sodipodi:start="4.1188322"
       sodipodi:end="5.9389889"
       sodipodi:open="true"
       sodipodi:arc-type="arc"
       transform="matrix(0,-1,-1,0,0,0)"
       d="m -739.34781,-99.037632 a 37.002899,35.264904 0 0 1 32.21383,-4.280008 37.002899,35.264904 0 0 1 23.31493,21.613281" />
    <path
       style="font-variation-settings:normal;opacity:1;fill:none;fill-opacity:1;stroke:#6d00f4;stroke-width:1.00157;stroke-linecap:butt;stroke-linejoin:miter;stroke-miterlimit:4;stroke-dasharray:none;stroke-dashoffset:0;stroke-opacity:1;marker-end:url(#marker7644-0-0-2-1);stop-color:#000000;stop-opacity:1"
       id="path17979-2-9"
       sodipodi:type="arc"
       sodipodi:cx="640.08514"
       sodipodi:cy="17.424"
       sodipodi:rx="37.002899"
       sodipodi:ry="35.264904"
       sodipodi:start="4.1188322"
       sodipodi:end="5.9389889"
       sodipodi:open="true"
       sodipodi:arc-type="arc"
       transform="matrix(0,1,1,0,0,0)"
       d="m 619.38894,-11.809074 a 37.002899,35.264904 0 0 1 32.21383,-4.280006 37.002899,35.264904 0 0 1 23.31494,21.6132791" />
    <path
       style="fill:none;stroke:#000000;stroke-width:0.264583px;stroke-linecap:butt;stroke-linejoin:miter;stroke-opacity:1"
       d="m 58.481023,679.26383 c 0,56.30974 0,56.30974 0,56.30974"
       id="path19464" />
    <path
       style="fill:none;stroke:#000000;stroke-width:0.264583px;stroke-linecap:butt;stroke-linejoin:miter;stroke-opacity:1"
       d="m 58.481023,679.26383 c -78.156934,0.61611 -78.156934,0.61611 -78.156934,0.61611"
       id="path19466" />
    <path
       style="fill:none;stroke:#000000;stroke-width:0.264583px;stroke-linecap:butt;stroke-linejoin:miter;stroke-opacity:1"
       d="m 58.481023,735.57357 c -77.367875,0.76716 -77.367875,0.76716 -77.367875,0.76716"
       id="path19468" />
    <text
       xml:space="preserve"
       style="font-style:normal;font-weight:normal;font-size:10.5833px;line-height:1.25;font-family:sans-serif;fill:#000000;fill-opacity:1;stroke:none;stroke-width:0.264583"
       x="-30.112377"
       y="795.39264"
       id="text20960"><tspan
         sodipodi:role="line"
         id="tspan20958"
         style="stroke-width:0.264583"
         x="-30.112377"
         y="795.39264">sigma = N/A - yM/I</tspan></text>
    <path
       style="fill:none;stroke:#000000;stroke-width:0.264583px;stroke-linecap:butt;stroke-linejoin:miter;stroke-opacity:1"
       d="m -7.945349,611.82278 c 152.520829,1.55425 152.918079,1.29657 152.918079,1.29657"
       id="path32136" />
    <path
       style="fill:none;stroke:#000000;stroke-width:0.264583px;stroke-linecap:butt;stroke-linejoin:miter;stroke-opacity:1"
       d="m -7.7742218,601.18616 c -0.1364345,25.57481 -0.1364345,25.57481 -0.1364345,25.57481"
       id="path32138" />
    <path
       style="fill:none;stroke:#000000;stroke-width:0.264583px;stroke-linecap:butt;stroke-linejoin:miter;stroke-opacity:1"
       d="m 143.09867,599.82782 c 0.24641,30.64065 0.24641,30.64065 0.24641,30.64065"
       id="path32140" />
    <path
       style="fill:none;stroke:#6d00f4;stroke-width:1.00157;stroke-linecap:butt;stroke-linejoin:miter;stroke-opacity:1;font-variation-settings:normal;opacity:1;vector-effect:none;fill-opacity:1;stroke-miterlimit:4;stroke-dasharray:none;stroke-dashoffset:0;-inkscape-stroke:none;marker-end:url(#marker7644-0-0-2);stop-color:#000000;stop-opacity:1"
       d="m 56.74094,575.75068 c 0.03949,36.04559 0.03949,36.04559 0.03949,36.04559"
       id="path32142" />
    <path
       style="fill:none;stroke:#000000;stroke-width:0.264583px;stroke-linecap:butt;stroke-linejoin:miter;stroke-opacity:1"
       d="M -7.4409804,649.06299 C 144.57762,653.40118 144.57762,653.40118 144.57762,653.40118"
       id="path32315" />
    <path
       style="fill:none;stroke:#000000;stroke-width:0.264583px;stroke-linecap:butt;stroke-linejoin:miter;stroke-opacity:1"
       d="m -7.9738661,635.58575 c 7.69974563,0.14687 7.69974563,0.14687 7.69974563,0.14687"
       id="path32317" />
    <path
       style="fill:none;stroke:#000000;stroke-width:0.264583px;stroke-linecap:butt;stroke-linejoin:miter;stroke-opacity:1"
       d="m 140.99207,640.52584 c 7.69975,0.14687 7.69975,0.14687 7.69975,0.14687"
       id="path32317-6" />
    <path
       style="fill:none;stroke:#000000;stroke-width:0.264583px;stroke-linecap:butt;stroke-linejoin:miter;stroke-opacity:1"
       d="m -7.9738661,635.58575 c 66.7035341,24.7989 66.7035341,24.7989 66.7035341,24.7989 l 82.262402,-19.85881"
       id="path32459" />
    <path
       style="fill:none;stroke:#000000;stroke-width:0.264583px;stroke-linecap:butt;stroke-linejoin:miter;stroke-opacity:1"
       d="m -7.9738661,635.58575 0.5328859,13.47724"
       id="path32574" />
    <path
       style="fill:none;stroke:#000000;stroke-width:0.264583px;stroke-linecap:butt;stroke-linejoin:miter;stroke-opacity:1"
       d="m 140.99207,640.52584 -0.18375,13.56027"
       id="path32576" />
    <path
       style="fill:none;stroke:#000000;stroke-width:0.264583px;stroke-linecap:butt;stroke-linejoin:miter;stroke-opacity:1"
       d="m 14.130874,958.68182 c 0,0 1.65828,1.90066 48.057633,-48.05765 0.393657,47.78947 0.393657,47.78947 0.393657,47.78947"
       id="path32734" />
    <path
       style="fill:none;stroke:#000000;stroke-width:0.264583px;stroke-linecap:butt;stroke-linejoin:miter;stroke-opacity:1"
       d="m 111.03345,958.68182 c 0,0 -1.65828,1.90066 -48.057629,-48.05765 -0.393657,47.78947 -0.393657,47.78947 -0.393657,47.78947"
       id="path32734-4" />
    <path
       style="fill:none;stroke:#000000;stroke-width:0.264583px;stroke-linecap:butt;stroke-linejoin:miter;stroke-opacity:1;marker-end:url(#marker7644)"
       d="m 20.064472,911.56225 c 42.911348,-0.9381 42.911348,-0.9381 42.911348,-0.9381"
       id="path32876" />
    <text
       xml:space="preserve"
       style="font-style:normal;font-weight:normal;font-size:10.5833px;line-height:1.25;font-family:sans-serif;fill:#000000;fill-opacity:1;stroke:none;stroke-width:0.264583"
       x="33.428486"
       y="907.87244"
       id="text33840"><tspan
         sodipodi:role="line"
         id="tspan33838"
         style="stroke-width:0.264583"
         x="33.428486"
         y="907.87244">1</tspan></text>
    <text
       xml:space="preserve"
       style="font-style:normal;font-weight:normal;font-size:10.5833px;line-height:1.25;font-family:sans-serif;fill:#000000;fill-opacity:1;stroke:none;stroke-width:0.264583"
       x="53.248493"
       y="947.62488"
       id="text33840-1"><tspan
         sodipodi:role="line"
         id="tspan33838-7"
         style="stroke-width:0.264583"
         x="53.248493"
         y="947.62488">-1</tspan></text>
    <text
       xml:space="preserve"
       style="font-style:normal;font-weight:normal;font-size:10.5833px;line-height:1.25;font-family:sans-serif;fill:#000000;fill-opacity:1;stroke:none;stroke-width:0.264583"
       x="89.558098"
       y="937.5675"
       id="text33840-1-7"><tspan
         sodipodi:role="line"
         id="tspan33838-7-1"
         style="stroke-width:0.264583"
         x="89.558098"
         y="937.5675">0</tspan></text>
    <text
       xml:space="preserve"
       style="font-style:normal;font-weight:normal;font-size:10.5833px;line-height:1.25;font-family:sans-serif;fill:#000000;fill-opacity:1;stroke:none;stroke-width:0.264583"
       x="18.793724"
       y="937.29614"
       id="text33840-9"><tspan
         sodipodi:role="line"
         id="tspan33838-0"
         style="stroke-width:0.264583"
         x="18.793724"
         y="937.29614">r(2)</tspan></text>
    <text
       xml:space="preserve"
       style="font-style:normal;font-weight:normal;font-size:10.5833px;line-height:1.25;font-family:sans-serif;fill:#000000;fill-opacity:1;stroke:none;stroke-width:0.264583"
       x="-11.193971"
       y="933.87555"
       id="text34906"><tspan
         sodipodi:role="line"
         id="tspan34904"
         style="stroke-width:0.264583"
         x="-11.193971"
         y="933.87555">X2</tspan></text>
    <path
       style="fill:none;stroke:#000000;stroke-width:0.264583px;stroke-linecap:butt;stroke-linejoin:miter;stroke-opacity:1"
       d="m 81.726748,925.04185 c -5.471472,6.85551 -5.471472,6.85551 -5.471472,6.85551"
       id="path35156" />
    <path
       style="fill:none;stroke:#000000;stroke-width:0.264583px;stroke-linecap:butt;stroke-linejoin:miter;stroke-opacity:1"
       d="m 82.487063,926.29848 c -5.471472,6.85551 -5.471472,6.85551 -5.471472,6.85551"
       id="path35156-9" />
  </g>
</svg>
