<?xml version="1.0" encoding="UTF-8" standalone="no"?>
<!-- Created with Inkscape (http://www.inkscape.org/) -->

<svg
   xmlns:dc="http://purl.org/dc/elements/1.1/"
   xmlns:cc="http://creativecommons.org/ns#"
   xmlns:rdf="http://www.w3.org/1999/02/22-rdf-syntax-ns#"
   xmlns:svg="http://www.w3.org/2000/svg"
   xmlns="http://www.w3.org/2000/svg"
   xmlns:sodipodi="http://sodipodi.sourceforge.net/DTD/sodipodi-0.dtd"
   xmlns:inkscape="http://www.inkscape.org/namespaces/inkscape"
   width="210mm"
   height="297mm"
   viewBox="0 0 210 297"
   version="1.1"
   id="svg8"
   inkscape:version="0.92.3 (2405546, 2018-03-11)"
   sodipodi:docname="fig4.svg">
  <defs
     id="defs2" />
  <sodipodi:namedview
     id="base"
     pagecolor="#ffffff"
     bordercolor="#666666"
     borderopacity="1.0"
     inkscape:pageopacity="0.0"
     inkscape:pageshadow="2"
     inkscape:zoom="0.98994949"
     inkscape:cx="198.35376"
     inkscape:cy="559.91127"
     inkscape:document-units="mm"
     inkscape:current-layer="layer1"
     showgrid="false"
     inkscape:window-width="1366"
     inkscape:window-height="705"
     inkscape:window-x="-8"
     inkscape:window-y="-8"
     inkscape:window-maximized="1"
     inkscape:snap-intersection-paths="true" />
  <metadata
     id="metadata5">
    <rdf:RDF>
      <cc:Work
         rdf:about="">
        <dc:format>image/svg+xml</dc:format>
        <dc:type
           rdf:resource="http://purl.org/dc/dcmitype/StillImage" />
        <dc:title></dc:title>
      </cc:Work>
    </rdf:RDF>
  </metadata>
  <g
     inkscape:label="Capa 1"
     inkscape:groupmode="layer"
     id="layer1">
    <path
       style="fill:none;stroke:#000000;stroke-width:0.26499999;stroke-linecap:butt;stroke-linejoin:miter;stroke-miterlimit:4;stroke-dasharray:none;stroke-opacity:1"
       d="M 54.806548,183.65184 H 69.453124"
       id="path4550"
       inkscape:connector-curvature="0" />
    <path
       style="fill:none;stroke:#000000;stroke-width:0.26458332px;stroke-linecap:butt;stroke-linejoin:miter;stroke-opacity:1"
       d="m 54.806548,183.65184 0.803198,-0.8032"
       id="path4552"
       inkscape:connector-curvature="0" />
    <path
       style="fill:none;stroke:#000000;stroke-width:0.26458332px;stroke-linecap:butt;stroke-linejoin:miter;stroke-opacity:1"
       d="m 54.00335,184.45504 0.803198,-0.8032"
       id="path4552-1"
       inkscape:connector-curvature="0" />
    <path
       style="fill:none;stroke:#000000;stroke-width:0.26458332px;stroke-linecap:butt;stroke-linejoin:miter;stroke-opacity:1"
       d="m 84.28869,183.65184 0.803198,-0.8032"
       id="path4552-19"
       inkscape:connector-curvature="0" />
    <path
       style="fill:none;stroke:#000000;stroke-width:0.26458332px;stroke-linecap:butt;stroke-linejoin:miter;stroke-opacity:1"
       d="m 83.485492,184.45504 0.803198,-0.8032"
       id="path4552-1-4"
       inkscape:connector-curvature="0" />
    <text
       xml:space="preserve"
       style="font-style:normal;font-variant:normal;font-weight:normal;font-stretch:normal;font-size:5.29166651px;line-height:1.25;font-family:sans-serif;-inkscape-font-specification:'sans-serif, Normal';font-variant-ligatures:normal;font-variant-caps:normal;font-variant-numeric:normal;font-feature-settings:normal;text-align:start;letter-spacing:0px;word-spacing:0px;writing-mode:lr-tb;text-anchor:start;fill:#000000;fill-opacity:1;stroke:none;stroke-width:0.26458332"
       x="60.665176"
       y="182.6124"
       id="text4589"><tspan
         sodipodi:role="line"
         id="tspan4587"
         x="60.665176"
         y="182.6124"
         style="font-style:normal;font-variant:normal;font-weight:normal;font-stretch:normal;font-size:5.29166651px;font-family:sans-serif;-inkscape-font-specification:'sans-serif, Normal';font-variant-ligatures:normal;font-variant-caps:normal;font-variant-numeric:normal;font-feature-settings:normal;text-align:start;writing-mode:lr-tb;text-anchor:start;stroke-width:0.26458332">$b/2$</tspan></text>
    <path
       style="fill:none;stroke:#000000;stroke-width:0.26458332px;stroke-linecap:butt;stroke-linejoin:miter;stroke-opacity:1"
       d="m 69.453124,183.65184 0.803198,-0.8032"
       id="path4552-19-7"
       inkscape:connector-curvature="0" />
    <path
       style="fill:none;stroke:#000000;stroke-width:0.26458332px;stroke-linecap:butt;stroke-linejoin:miter;stroke-opacity:1"
       d="m 68.649926,184.45504 0.803198,-0.8032"
       id="path4552-1-4-3"
       inkscape:connector-curvature="0" />
    <path
       style="fill:none;stroke:#000000;stroke-width:0.26499999;stroke-linecap:butt;stroke-linejoin:miter;stroke-miterlimit:4;stroke-dasharray:none;stroke-opacity:1"
       d="M 69.642114,183.65184 H 84.28869"
       id="path4550-6"
       inkscape:connector-curvature="0" />
    <text
       xml:space="preserve"
       style="font-style:normal;font-variant:normal;font-weight:normal;font-stretch:normal;font-size:5.29166651px;line-height:1.25;font-family:sans-serif;-inkscape-font-specification:'sans-serif, Normal';font-variant-ligatures:normal;font-variant-caps:normal;font-variant-numeric:normal;font-feature-settings:normal;text-align:start;letter-spacing:0px;word-spacing:0px;writing-mode:lr-tb;text-anchor:start;fill:#000000;fill-opacity:1;stroke:none;stroke-width:0.26458332"
       x="74.799973"
       y="182.4834"
       id="text4589-6"><tspan
         sodipodi:role="line"
         id="tspan4587-1"
         x="74.799973"
         y="182.4834"
         style="font-style:normal;font-variant:normal;font-weight:normal;font-stretch:normal;font-size:5.29166651px;font-family:sans-serif;-inkscape-font-specification:'sans-serif, Normal';font-variant-ligatures:normal;font-variant-caps:normal;font-variant-numeric:normal;font-feature-settings:normal;text-align:start;writing-mode:lr-tb;text-anchor:start;stroke-width:0.26458332">$b/2$</tspan></text>
    <path
       style="fill:none;stroke:#000000;stroke-width:0.26458332px;stroke-linecap:butt;stroke-linejoin:miter;stroke-opacity:1"
       d="M 90.542989,176.66116 V 133.11795"
       id="path5234"
       inkscape:connector-curvature="0" />
    <path
       style="fill:none;stroke:#000000;stroke-width:0.26458332px;stroke-linecap:butt;stroke-linejoin:miter;stroke-opacity:1"
       d="m 90.542989,176.66116 0.91896,0.66766"
       id="path4552-19-8"
       inkscape:connector-curvature="0" />
    <path
       style="fill:none;stroke:#000000;stroke-width:0.26458332px;stroke-linecap:butt;stroke-linejoin:miter;stroke-opacity:1"
       d="m 89.624029,175.9935 0.91896,0.66766"
       id="path4552-1-4-2"
       inkscape:connector-curvature="0" />
    <path
       style="fill:none;stroke:#000000;stroke-width:0.26458332px;stroke-linecap:butt;stroke-linejoin:miter;stroke-opacity:1"
       d="m 90.542989,133.11795 0.91896,0.66766"
       id="path4552-19-8-9"
       inkscape:connector-curvature="0" />
    <path
       style="fill:none;stroke:#000000;stroke-width:0.26458332px;stroke-linecap:butt;stroke-linejoin:miter;stroke-opacity:1"
       d="m 89.624029,132.45029 0.91896,0.66766"
       id="path4552-1-4-2-6"
       inkscape:connector-curvature="0" />
    <path
       style="fill:none;stroke:#000000;stroke-width:0.26458332px;stroke-linecap:butt;stroke-linejoin:miter;stroke-opacity:1"
       d="m 90.587665,155.09658 0.91896,0.66766"
       id="path4552-19-8-9-6"
       inkscape:connector-curvature="0" />
    <path
       style="fill:none;stroke:#000000;stroke-width:0.26458332px;stroke-linecap:butt;stroke-linejoin:miter;stroke-opacity:1"
       d="m 89.668705,154.42892 0.91896,0.66766"
       id="path4552-1-4-2-6-8"
       inkscape:connector-curvature="0" />
    <text
       xml:space="preserve"
       style="font-style:normal;font-variant:normal;font-weight:normal;font-stretch:normal;font-size:5.29166651px;line-height:1.25;font-family:sans-serif;-inkscape-font-specification:'sans-serif, Normal';font-variant-ligatures:normal;font-variant-caps:normal;font-variant-numeric:normal;font-feature-settings:normal;text-align:start;letter-spacing:0px;word-spacing:0px;writing-mode:lr-tb;text-anchor:start;fill:#000000;fill-opacity:1;stroke:none;stroke-width:0.26458332"
       x="-145.3714"
       y="89.367661"
       id="text4589-6-3"
       transform="rotate(-90)"><tspan
         sodipodi:role="line"
         id="tspan4587-1-1"
         x="-145.3714"
         y="89.367661"
         style="font-style:normal;font-variant:normal;font-weight:normal;font-stretch:normal;font-size:5.29166651px;font-family:sans-serif;-inkscape-font-specification:'sans-serif, Normal';font-variant-ligatures:normal;font-variant-caps:normal;font-variant-numeric:normal;font-feature-settings:normal;text-align:start;writing-mode:lr-tb;text-anchor:start;stroke-width:0.26458332">$a/2$</tspan></text>
    <text
       xml:space="preserve"
       style="font-style:normal;font-variant:normal;font-weight:normal;font-stretch:normal;font-size:5.29166651px;line-height:1.25;font-family:sans-serif;-inkscape-font-specification:'sans-serif, Normal';font-variant-ligatures:normal;font-variant-caps:normal;font-variant-numeric:normal;font-feature-settings:normal;text-align:start;letter-spacing:0px;word-spacing:0px;writing-mode:lr-tb;text-anchor:start;fill:#000000;fill-opacity:1;stroke:none;stroke-width:0.26458332"
       x="-167.55293"
       y="89.500809"
       id="text4589-6-3-8"
       transform="rotate(-90)"><tspan
         sodipodi:role="line"
         id="tspan4587-1-1-2"
         x="-167.55293"
         y="89.500809"
         style="font-style:normal;font-variant:normal;font-weight:normal;font-stretch:normal;font-size:5.29166651px;font-family:sans-serif;-inkscape-font-specification:'sans-serif, Normal';font-variant-ligatures:normal;font-variant-caps:normal;font-variant-numeric:normal;font-feature-settings:normal;text-align:start;writing-mode:lr-tb;text-anchor:start;stroke-width:0.26458332">$a/2$</tspan></text>
    <path
       style="fill:none;stroke:#000000;stroke-width:0.23165749;stroke-linecap:butt;stroke-linejoin:miter;stroke-opacity:1;stroke-miterlimit:4;stroke-dasharray:0.69497247,0.69497247;stroke-dashoffset:0"
       d="M 69.453124,176.66117 V 133.11795"
       id="path14688"
       inkscape:connector-curvature="0" />
    <path
       style="fill:none;stroke:#000000;stroke-width:0.21532403;stroke-linecap:butt;stroke-linejoin:miter;stroke-miterlimit:4;stroke-dasharray:0.64597209, 0.64597209;stroke-dashoffset:0;stroke-opacity:1"
       d="M 83.92807,155.09658 H 54.817406"
       id="path14690"
       inkscape:connector-curvature="0" />
    <path
       style="fill:none;stroke:#000000;stroke-width:0.26458332px;stroke-linecap:butt;stroke-linejoin:miter;stroke-opacity:1"
       d="M 54.817406,176.66116 H 83.928068 V 133.11795 H 54.817406 Z"
       id="path3256"
       inkscape:connector-curvature="0" />
    <path
       style="opacity:0.8;fill:#000000;fill-opacity:0.22767855;stroke:#000000;stroke-width:0.72188977;stroke-miterlimit:4;stroke-dasharray:0,7.9407875;stroke-dashoffset:7.21889773;stroke-opacity:1"
       d="m 207.8492,626.93829 c 0,-30.4617 0.28426,-39.44442 1.26269,-39.90102 1.01015,-0.4714 1.01015,-0.70711 0,-1.17851 -0.97961,-0.45715 -1.26269,-9.74236 -1.26269,-41.41625 v -40.827 h 26.68486 c 20.36019,0 26.82453,0.29927 27.27412,1.26269 0.4714,1.01015 0.70711,1.01015 1.17851,0 0.44917,-0.96252 6.81292,-1.26269 26.76904,-1.26269 h 26.17979 v 40.91117 c 0,31.14637 -0.28933,40.91118 -1.21218,40.91118 -0.94281,0 -0.94281,0.26938 0,1.21219 0.90115,0.90115 1.21218,11.26881 1.21218,40.4061 v 39.19392 h -26.17979 c -19.95612,0 -26.31987,-0.30018 -26.76904,-1.26269 -0.4714,-1.01016 -0.70711,-1.01016 -1.17851,0 -0.44959,0.96341 -6.91393,1.26269 -27.27412,1.26269 H 207.8492 Z m 55.55839,34.26101 c 0,-1.11116 -0.45457,-2.0203 -1.01015,-2.0203 -0.55559,0 -1.01016,0.90914 -1.01016,2.0203 0,1.11117 0.45457,2.02031 1.01016,2.02031 0.55558,0 1.01015,-0.90914 1.01015,-2.02031 z m 0,-5.55584 c 0,-0.83337 -0.45457,-1.51522 -1.01015,-1.51522 -0.55559,0 -1.01016,0.68185 -1.01016,1.51522 0,0.83338 0.45457,1.51523 1.01016,1.51523 0.55558,0 1.01015,-0.68185 1.01015,-1.51523 z m 0,-5.05076 c 0,-0.83337 -0.45457,-1.51523 -1.01015,-1.51523 -0.55559,0 -1.01016,0.68186 -1.01016,1.51523 0,0.83338 0.45457,1.51523 1.01016,1.51523 0.55558,0 1.01015,-0.68185 1.01015,-1.51523 z m 0,-5.05076 c 0,-0.83338 -0.45457,-1.51523 -1.01015,-1.51523 -0.55559,0 -1.01016,0.68185 -1.01016,1.51523 0,0.83338 0.45457,1.51523 1.01016,1.51523 0.55558,0 1.01015,-0.68185 1.01015,-1.51523 z m 0,-5.55584 c 0,-1.11117 -0.45457,-2.0203 -1.01015,-2.0203 -0.55559,0 -1.01016,0.90913 -1.01016,2.0203 0,1.11117 0.45457,2.02031 1.01016,2.02031 0.55558,0 1.01015,-0.90914 1.01015,-2.02031 z m 0,-5.05076 c 0,-1.11117 -0.45457,-2.02031 -1.01015,-2.02031 -0.55559,0 -1.01016,0.90914 -1.01016,2.02031 0,1.11117 0.45457,2.0203 1.01016,2.0203 0.55558,0 1.01015,-0.90913 1.01015,-2.0203 z m 0,-5.55584 c 0,-0.83338 -0.45457,-1.51523 -1.01015,-1.51523 -0.55559,0 -1.01016,0.68185 -1.01016,1.51523 0,0.83337 0.45457,1.51523 1.01016,1.51523 0.55558,0 1.01015,-0.68186 1.01015,-1.51523 z m 0,-5.05076 c 0,-0.83338 -0.45457,-1.51523 -1.01015,-1.51523 -0.55559,0 -1.01016,0.68185 -1.01016,1.51523 0,0.83337 0.45457,1.51522 1.01016,1.51522 0.55558,0 1.01015,-0.68185 1.01015,-1.51522 z m 0,-5.05077 c 0,-0.83337 -0.45457,-1.51523 -1.01015,-1.51523 -0.55559,0 -1.01016,0.68186 -1.01016,1.51523 0,0.83338 0.45457,1.51523 1.01016,1.51523 0.55558,0 1.01015,-0.68185 1.01015,-1.51523 z m 0,-5.55584 c 0,-1.11116 -0.45457,-2.0203 -1.01015,-2.0203 -0.55559,0 -1.01016,0.90914 -1.01016,2.0203 0,1.11117 0.45457,2.02031 1.01016,2.02031 0.55558,0 1.01015,-0.90914 1.01015,-2.02031 z m 0,-5.05076 c 0,-1.11117 -0.45457,-2.0203 -1.01015,-2.0203 -0.55559,0 -1.01016,0.90913 -1.01016,2.0203 0,1.11117 0.45457,2.02031 1.01016,2.02031 0.55558,0 1.01015,-0.90914 1.01015,-2.02031 z m 0,-5.55584 c 0,-0.83337 -0.45457,-1.51523 -1.01015,-1.51523 -0.55559,0 -1.01016,0.68186 -1.01016,1.51523 0,0.83338 0.45457,1.51523 1.01016,1.51523 0.55558,0 1.01015,-0.68185 1.01015,-1.51523 z m 0,-5.05076 c 0,-0.83338 -0.45457,-1.51523 -1.01015,-1.51523 -0.55559,0 -1.01016,0.68185 -1.01016,1.51523 0,0.83338 0.45457,1.51523 1.01016,1.51523 0.55558,0 1.01015,-0.68185 1.01015,-1.51523 z m 0,-5.05076 c 0,-0.83338 -0.45457,-1.51523 -1.01015,-1.51523 -0.55559,0 -1.01016,0.68185 -1.01016,1.51523 0,0.83337 0.45457,1.51523 1.01016,1.51523 0.55558,0 1.01015,-0.68186 1.01015,-1.51523 z m 0.29269,-5.55584 c 0.39188,-1.49856 0.031,-2.02031 -1.39741,-2.02031 -2.12623,0 -2.19841,0.13434 -1.31259,2.44277 0.84247,2.19543 2.07568,2.00319 2.71,-0.42246 z m -48.78001,-1.01015 c 0,-0.55559 -0.68186,-1.01016 -1.51523,-1.01016 -0.83338,0 -1.51523,0.45457 -1.51523,1.01016 0,0.55558 0.68185,1.01015 1.51523,1.01015 0.83337,0 1.51523,-0.45457 1.51523,-1.01015 z m 5.05076,0 c 0,-0.55559 -0.68185,-1.01016 -1.51523,-1.01016 -0.83338,0 -1.51523,0.45457 -1.51523,1.01016 0,0.55558 0.68185,1.01015 1.51523,1.01015 0.83338,0 1.51523,-0.45457 1.51523,-1.01015 z m 5.05076,0 c 0,-0.55559 -0.68185,-1.01016 -1.51523,-1.01016 -0.83337,0 -1.51523,0.45457 -1.51523,1.01016 0,0.55558 0.68186,1.01015 1.51523,1.01015 0.83338,0 1.51523,-0.45457 1.51523,-1.01015 z m 4.54569,0 c 0.34337,-0.55559 -0.33848,-1.01016 -1.51523,-1.01016 -1.17675,0 -1.8586,0.45457 -1.51523,1.01016 0.34337,0.55558 1.02522,1.01015 1.51523,1.01015 0.49001,0 1.17186,-0.45457 1.51523,-1.01015 z m 5.05076,0 c 0.34337,-0.55559 -0.31166,-1.01016 -1.45561,-1.01016 -1.14396,0 -2.07992,0.45457 -2.07992,1.01016 0,0.55558 0.65502,1.01015 1.45561,1.01015 0.80059,0 1.73655,-0.45457 2.07992,-1.01015 z m 4.54569,0 c 0,-0.55559 -0.68186,-1.01016 -1.51523,-1.01016 -0.83338,0 -1.51523,0.45457 -1.51523,1.01016 0,0.55558 0.68185,1.01015 1.51523,1.01015 0.83337,0 1.51523,-0.45457 1.51523,-1.01015 z m 5.05076,0 c 0,-0.55559 -0.68185,-1.01016 -1.51523,-1.01016 -0.83337,0 -1.51523,0.45457 -1.51523,1.01016 0,0.55558 0.68186,1.01015 1.51523,1.01015 0.83338,0 1.51523,-0.45457 1.51523,-1.01015 z m 5.05076,0 c 0,-0.55559 -0.68185,-1.01016 -1.51523,-1.01016 -0.83337,0 -1.51522,0.45457 -1.51522,1.01016 0,0.55558 0.68185,1.01015 1.51522,1.01015 0.83338,0 1.51523,-0.45457 1.51523,-1.01015 z m 5.05077,0 c 0,-0.55559 -0.68186,-1.01016 -1.51523,-1.01016 -0.83338,0 -1.51523,0.45457 -1.51523,1.01016 0,0.55558 0.68185,1.01015 1.51523,1.01015 0.83337,0 1.51523,-0.45457 1.51523,-1.01015 z m 4.54568,0 c 0.34337,-0.55559 -0.33848,-1.01016 -1.51523,-1.01016 -1.17674,0 -1.8586,0.45457 -1.51523,1.01016 0.34337,0.55558 1.02523,1.01015 1.51523,1.01015 0.49001,0 1.17186,-0.45457 1.51523,-1.01015 z m 9.59645,0 c 0,-0.55559 -0.68185,-1.01016 -1.51523,-1.01016 -0.83337,0 -1.51523,0.45457 -1.51523,1.01016 0,0.55558 0.68186,1.01015 1.51523,1.01015 0.83338,0 1.51523,-0.45457 1.51523,-1.01015 z m 5.05076,0 c 0,-0.55559 -0.68185,-1.01016 -1.51522,-1.01016 -0.83338,0 -1.51523,0.45457 -1.51523,1.01016 0,0.55558 0.68185,1.01015 1.51523,1.01015 0.83337,0 1.51522,-0.45457 1.51522,-1.01015 z m 5.05077,0 c 0,-0.55559 -0.68186,-1.01016 -1.51523,-1.01016 -0.83338,0 -1.51523,0.45457 -1.51523,1.01016 0,0.55558 0.68185,1.01015 1.51523,1.01015 0.83337,0 1.51523,-0.45457 1.51523,-1.01015 z m 5.05076,0 c 0,-0.55559 -0.68185,-1.01016 -1.51523,-1.01016 -0.83338,0 -1.51523,0.45457 -1.51523,1.01016 0,0.55558 0.68185,1.01015 1.51523,1.01015 0.83338,0 1.51523,-0.45457 1.51523,-1.01015 z m 4.54569,0 c 0.34337,-0.55559 -0.33849,-1.01016 -1.51523,-1.01016 -1.17675,0 -1.8586,0.45457 -1.51523,1.01016 0.34337,0.55558 1.02522,1.01015 1.51523,1.01015 0.49,0 1.17186,-0.45457 1.51523,-1.01015 z m 5.05076,0 c 0.34337,-0.55559 -0.31166,-1.01016 -1.45561,-1.01016 -1.14396,0 -2.07993,0.45457 -2.07993,1.01016 0,0.55558 0.65503,1.01015 1.45562,1.01015 0.80058,0 1.73655,-0.45457 2.07992,-1.01015 z m 4.54569,0 c 0,-0.55559 -0.68186,-1.01016 -1.51523,-1.01016 -0.83338,0 -1.51523,0.45457 -1.51523,1.01016 0,0.55558 0.68185,1.01015 1.51523,1.01015 0.83337,0 1.51523,-0.45457 1.51523,-1.01015 z m 5.05076,0 c 0,-0.55559 -0.68186,-1.01016 -1.51523,-1.01016 -0.83338,0 -1.51523,0.45457 -1.51523,1.01016 0,0.55558 0.68185,1.01015 1.51523,1.01015 0.83337,0 1.51523,-0.45457 1.51523,-1.01015 z m 5.05076,0 c 0,-0.55559 -0.68185,-1.01016 -1.51523,-1.01016 -0.83337,0 -1.51523,0.45457 -1.51523,1.01016 0,0.55558 0.68186,1.01015 1.51523,1.01015 0.83338,0 1.51523,-0.45457 1.51523,-1.01015 z m 5.05076,0 c 0,-0.55559 -0.68185,-1.01016 -1.51523,-1.01016 -0.83337,0 -1.51522,0.45457 -1.51522,1.01016 0,0.55558 0.68185,1.01015 1.51522,1.01015 0.83338,0 1.51523,-0.45457 1.51523,-1.01015 z m -49.49747,-4.04062 c 0,-1.11116 -0.45457,-2.0203 -1.01015,-2.0203 -0.55559,0 -1.01016,0.90914 -1.01016,2.0203 0,1.11117 0.45457,2.02031 1.01016,2.02031 0.55558,0 1.01015,-0.90914 1.01015,-2.02031 z m 0,-5.55583 c 0,-0.83338 -0.45457,-1.51523 -1.01015,-1.51523 -0.55559,0 -1.01016,0.68185 -1.01016,1.51523 0,0.83337 0.45457,1.51522 1.01016,1.51522 0.55558,0 1.01015,-0.68185 1.01015,-1.51522 z m 0,-5.05077 c 0,-0.83337 -0.45457,-1.51523 -1.01015,-1.51523 -0.55559,0 -1.01016,0.68186 -1.01016,1.51523 0,0.83338 0.45457,1.51523 1.01016,1.51523 0.55558,0 1.01015,-0.68185 1.01015,-1.51523 z m 0,-5.05076 c 0,-0.83338 -0.45457,-1.51523 -1.01015,-1.51523 -0.55559,0 -1.01016,0.68185 -1.01016,1.51523 0,0.83338 0.45457,1.51523 1.01016,1.51523 0.55558,0 1.01015,-0.68185 1.01015,-1.51523 z m 0,-5.55584 c 0,-1.11117 -0.45457,-2.0203 -1.01015,-2.0203 -0.55559,0 -1.01016,0.90913 -1.01016,2.0203 0,1.11117 0.45457,2.02031 1.01016,2.02031 0.55558,0 1.01015,-0.90914 1.01015,-2.02031 z m 0,-5.05076 c 0,-1.11117 -0.45457,-2.02031 -1.01015,-2.02031 -0.55559,0 -1.01016,0.90914 -1.01016,2.02031 0,1.11117 0.45457,2.0203 1.01016,2.0203 0.55558,0 1.01015,-0.90913 1.01015,-2.0203 z m 0,-5.55584 c 0,-0.83338 -0.45457,-1.51523 -1.01015,-1.51523 -0.55559,0 -1.01016,0.68185 -1.01016,1.51523 0,0.83338 0.45457,1.51523 1.01016,1.51523 0.55558,0 1.01015,-0.68185 1.01015,-1.51523 z m 0,-5.05076 c 0,-0.83338 -0.45457,-1.51523 -1.01015,-1.51523 -0.55559,0 -1.01016,0.68185 -1.01016,1.51523 0,0.83337 0.45457,1.51523 1.01016,1.51523 0.55558,0 1.01015,-0.68186 1.01015,-1.51523 z m 0,-5.05077 c 0,-0.83337 -0.45457,-1.51522 -1.01015,-1.51522 -0.55559,0 -1.01016,0.68185 -1.01016,1.51522 0,0.83338 0.45457,1.51523 1.01016,1.51523 0.55558,0 1.01015,-0.68185 1.01015,-1.51523 z m 0,-5.55583 c 0,-1.11117 -0.45457,-2.02031 -1.01015,-2.02031 -0.55559,0 -1.01016,0.90914 -1.01016,2.02031 0,1.11116 0.45457,2.0203 1.01016,2.0203 0.55558,0 1.01015,-0.90914 1.01015,-2.0203 z m 0,-5.05077 c 0,-1.11117 -0.45457,-2.0203 -1.01015,-2.0203 -0.55559,0 -1.01016,0.90913 -1.01016,2.0203 0,1.11117 0.45457,2.02031 1.01016,2.02031 0.55558,0 1.01015,-0.90914 1.01015,-2.02031 z m 0,-5.55584 c 0,-0.83337 -0.45457,-1.51523 -1.01015,-1.51523 -0.55559,0 -1.01016,0.68186 -1.01016,1.51523 0,0.83338 0.45457,1.51523 1.01016,1.51523 0.55558,0 1.01015,-0.68185 1.01015,-1.51523 z m 0,-5.05076 c 0,-0.83338 -0.45457,-1.51523 -1.01015,-1.51523 -0.55559,0 -1.01016,0.68185 -1.01016,1.51523 0,0.83338 0.45457,1.51523 1.01016,1.51523 0.55558,0 1.01015,-0.68185 1.01015,-1.51523 z m 0,-5.05076 c 0,-0.83338 -0.45457,-1.51523 -1.01015,-1.51523 -0.55559,0 -1.01016,0.68185 -1.01016,1.51523 0,0.83337 0.45457,1.51523 1.01016,1.51523 0.55558,0 1.01015,-0.68186 1.01015,-1.51523 z m 0,-5.55584 c 0,-1.11117 -0.45457,-2.02031 -1.01015,-2.02031 -0.55559,0 -1.01016,0.90914 -1.01016,2.02031 0,1.11117 0.45457,2.0203 1.01016,2.0203 0.55558,0 1.01015,-0.90913 1.01015,-2.0203 z"
       id="path3258"
       inkscape:connector-curvature="0"
       transform="scale(0.26458333)" />
  </g>
</svg>
