<?xml version="1.0" encoding="UTF-8" standalone="no"?>
<!-- Created with Inkscape (http://www.inkscape.org/) -->

<svg
   xmlns:dc="http://purl.org/dc/elements/1.1/"
   xmlns:cc="http://creativecommons.org/ns#"
   xmlns:rdf="http://www.w3.org/1999/02/22-rdf-syntax-ns#"
   xmlns:svg="http://www.w3.org/2000/svg"
   xmlns="http://www.w3.org/2000/svg"
   xmlns:sodipodi="http://sodipodi.sourceforge.net/DTD/sodipodi-0.dtd"
   xmlns:inkscape="http://www.inkscape.org/namespaces/inkscape"
   width="210mm"
   height="297mm"
   viewBox="0 0 210 297"
   version="1.1"
   id="svg8"
   inkscape:version="0.92.3 (2405546, 2018-03-11)"
   sodipodi:docname="fig5.svg">
  <defs
     id="defs2">
    <marker
       style="overflow:visible"
       id="marker6180"
       refX="0.0"
       refY="0.0"
       orient="auto"
       inkscape:stockid="DistanceStart"
       inkscape:isstock="true">
      <g
         id="g6178"
         style="stroke:#000000;stroke-opacity:1;fill:#e6e6e6;fill-opacity:1">
        <path
           style="fill:#e6e6e6;stroke:#000000;stroke-width:1.15;stroke-linecap:square;stroke-opacity:1;fill-opacity:1"
           d="M 0,0 L 2,0"
           id="path6172" />
        <path
           style="fill:#e6e6e6;fill-rule:evenodd;stroke:#000000;stroke-opacity:1;fill-opacity:1"
           d="M 0,0 L 13,4 L 9,0 13,-4 L 0,0 z "
           id="path6174" />
        <path
           style="fill:#e6e6e6;stroke:#000000;stroke-width:1;stroke-linecap:square;stroke-opacity:1;fill-opacity:1"
           d="M 0,-4 L 0,40"
           id="path6176" />
      </g>
    </marker>
    <marker
       inkscape:stockid="Arrow2Send"
       orient="auto"
       refY="0.0"
       refX="0.0"
       id="marker6092"
       style="overflow:visible;"
       inkscape:isstock="true">
      <path
         id="path6090"
         style="fill-rule:evenodd;stroke-width:0.625;stroke-linejoin:round;stroke:#000000;stroke-opacity:1;fill:#e6e6e6;fill-opacity:1"
         d="M 8.7185878,4.0337352 L -2.2072895,0.016013256 L 8.7185884,-4.0017078 C 6.9730900,-1.6296469 6.9831476,1.6157441 8.7185878,4.0337352 z "
         transform="scale(0.3) rotate(180) translate(-2.3,0)" />
    </marker>
    <marker
       inkscape:stockid="Arrow2Send"
       orient="auto"
       refY="0.0"
       refX="0.0"
       id="Arrow2Send"
       style="overflow:visible;"
       inkscape:isstock="true">
      <path
         id="path5405"
         style="fill-rule:evenodd;stroke-width:0.625;stroke-linejoin:round;stroke:#000000;stroke-opacity:1;fill:#e6e6e6;fill-opacity:1"
         d="M 8.7185878,4.0337352 L -2.2072895,0.016013256 L 8.7185884,-4.0017078 C 6.9730900,-1.6296469 6.9831476,1.6157441 8.7185878,4.0337352 z "
         transform="scale(0.3) rotate(180) translate(-2.3,0)" />
    </marker>
    <marker
       inkscape:stockid="Arrow2Lend"
       orient="auto"
       refY="0.0"
       refX="0.0"
       id="Arrow2Lend"
       style="overflow:visible;"
       inkscape:isstock="true">
      <path
         id="path5393"
         style="fill-rule:evenodd;stroke-width:0.625;stroke-linejoin:round;stroke:#000000;stroke-opacity:1;fill:#e6e6e6;fill-opacity:1"
         d="M 8.7185878,4.0337352 L -2.2072895,0.016013256 L 8.7185884,-4.0017078 C 6.9730900,-1.6296469 6.9831476,1.6157441 8.7185878,4.0337352 z "
         transform="scale(1.1) rotate(180) translate(1,0)" />
    </marker>
    <marker
       style="overflow:visible"
       id="DistanceStart"
       refX="0.0"
       refY="0.0"
       orient="auto"
       inkscape:stockid="DistanceStart"
       inkscape:isstock="true">
      <g
         id="g2300"
         style="stroke:#000000;stroke-opacity:1;fill:#e6e6e6;fill-opacity:1">
        <path
           style="fill:#e6e6e6;stroke:#000000;stroke-width:1.15;stroke-linecap:square;stroke-opacity:1;fill-opacity:1"
           d="M 0,0 L 2,0"
           id="path2306" />
        <path
           style="fill:#e6e6e6;fill-rule:evenodd;stroke:#000000;stroke-opacity:1;fill-opacity:1"
           d="M 0,0 L 13,4 L 9,0 13,-4 L 0,0 z "
           id="path2302" />
        <path
           style="fill:#e6e6e6;stroke:#000000;stroke-width:1;stroke-linecap:square;stroke-opacity:1;fill-opacity:1"
           d="M 0,-4 L 0,40"
           id="path2304" />
      </g>
    </marker>
    <marker
       inkscape:stockid="Arrow1Lstart"
       orient="auto"
       refY="0.0"
       refX="0.0"
       id="marker5650"
       style="overflow:visible"
       inkscape:isstock="true">
      <path
         id="path5648"
         d="M 0.0,0.0 L 5.0,-5.0 L -12.5,0.0 L 5.0,5.0 L 0.0,0.0 z "
         style="fill-rule:evenodd;stroke:#000000;stroke-width:1pt;stroke-opacity:1;fill:#e6e6e6;fill-opacity:1"
         transform="scale(0.8) translate(12.5,0)" />
    </marker>
    <marker
       inkscape:stockid="Arrow1Lstart"
       orient="auto"
       refY="0.0"
       refX="0.0"
       id="Arrow1Lstart"
       style="overflow:visible"
       inkscape:isstock="true">
      <path
         id="path5372"
         d="M 0.0,0.0 L 5.0,-5.0 L -12.5,0.0 L 5.0,5.0 L 0.0,0.0 z "
         style="fill-rule:evenodd;stroke:#000000;stroke-width:1pt;stroke-opacity:1;fill:#e6e6e6;fill-opacity:1"
         transform="scale(0.8) translate(12.5,0)" />
    </marker>
  </defs>
  <sodipodi:namedview
     id="base"
     pagecolor="#ffffff"
     bordercolor="#666666"
     borderopacity="1.0"
     inkscape:pageopacity="0.0"
     inkscape:pageshadow="2"
     inkscape:zoom="1.4"
     inkscape:cx="150.68855"
     inkscape:cy="568.28656"
     inkscape:document-units="mm"
     inkscape:current-layer="layer1"
     showgrid="false"
     inkscape:window-width="1366"
     inkscape:window-height="705"
     inkscape:window-x="-8"
     inkscape:window-y="-8"
     inkscape:window-maximized="1" />
  <metadata
     id="metadata5">
    <rdf:RDF>
      <cc:Work
         rdf:about="">
        <dc:format>image/svg+xml</dc:format>
        <dc:type
           rdf:resource="http://purl.org/dc/dcmitype/StillImage" />
        <dc:title></dc:title>
      </cc:Work>
    </rdf:RDF>
  </metadata>
  <g
     inkscape:label="Capa 1"
     inkscape:groupmode="layer"
     id="layer1">
    <path
       sodipodi:type="spiral"
       style="fill:none;fill-rule:evenodd;stroke:#000000;stroke-width:0.26458332"
       id="path5332"
       sodipodi:cx="37.230652"
       sodipodi:cy="154.125"
       sodipodi:expansion="1"
       sodipodi:revolution="3"
       sodipodi:radius="24.091349"
       sodipodi:argument="-19.295662"
       sodipodi:t0="0.74714506"
       d="m 45.858926,169.92194 c -8.799808,5.65043 -20.688618,2.492 -26.187134,-6.20631 -6.170942,-9.76204 -2.650426,-22.88547 7.005865,-28.91141 10.723813,-6.69212 25.082868,-2.80916 31.635699,7.80542 0.227009,0.36772 0.444078,0.74158 0.650921,1.12101"
       transform="matrix(1,0,0,1.1402889,0,-18.447207)" />
    <path
       sodipodi:type="spiral"
       style="fill:none;fill-rule:evenodd;stroke:#000000;stroke-width:0.32441681;stroke-miterlimit:4;stroke-dasharray:none"
       id="path5332-9"
       sodipodi:cx="37.230652"
       sodipodi:cy="154.125"
       sodipodi:expansion="1"
       sodipodi:revolution="3"
       sodipodi:radius="24.091349"
       sodipodi:argument="-19.295662"
       sodipodi:t0="0.74714506"
       d="m 45.858926,169.92194 c -8.799808,5.65043 -20.688618,2.492 -26.187134,-6.20631 -6.170942,-9.76204 -2.650426,-22.88547 7.005865,-28.91141 10.723813,-6.69212 25.082868,-2.80916 31.635699,7.80542 0.227009,0.36772 0.444078,0.74158 0.650921,1.12101"
       transform="matrix(0.76495356,0,0,0.87226805,9.0903767,22.335626)" />
    <path
       sodipodi:type="spiral"
       style="fill:none;fill-rule:evenodd;stroke:#000000;stroke-width:0.21100136;stroke-miterlimit:4;stroke-dasharray:0.84400545,0.84400545;stroke-dashoffset:0"
       id="path5332-9-5"
       sodipodi:cx="37.230652"
       sodipodi:cy="154.125"
       sodipodi:expansion="1"
       sodipodi:revolution="3"
       sodipodi:radius="24.091349"
       sodipodi:argument="-19.295662"
       sodipodi:t0="0.74714506"
       d="m 45.858926,169.92194 c -8.799808,5.65043 -20.688618,2.492 -26.187134,-6.20631 -6.170942,-9.76204 -2.650426,-22.88547 7.005865,-28.91141 10.723813,-6.69212 25.082868,-2.80916 31.635699,7.80542 0.227009,0.36772 0.444078,0.74158 0.650921,1.12101"
       transform="matrix(0.88081939,0,0,1.0200057,4.5041503,-0.01958828)" />
    <path
       style="fill:none;stroke:#000000;stroke-width:0.26458332px;stroke-linecap:butt;stroke-linejoin:miter;stroke-opacity:1"
       d="m 44.170324,170.5531 1.6886,4.75979"
       id="path5366"
       inkscape:connector-curvature="0" />
    <path
       style="fill:none;stroke:#000000;stroke-width:0.26458332px;stroke-linecap:butt;stroke-linejoin:miter;stroke-opacity:1"
       d="m 54.19531,147.70727 4.768966,-2.26002"
       id="path5368"
       inkscape:connector-curvature="0" />
    <path
       style="fill:none;stroke:#000000;stroke-width:0.26458332px;stroke-linecap:butt;stroke-linejoin:miter;stroke-opacity:1"
       d="m 43.732282,138.89172 0.940527,-0.51068 0.0413,0.076"
       id="path12268-3"
       inkscape:connector-curvature="0" />
    <path
       style="fill:none;stroke:#000000;stroke-width:0.26458332px;stroke-linecap:butt;stroke-linejoin:miter;stroke-opacity:1"
       d="m 44.644794,139.45089 0.02801,-1.06985 -0.08639,-0.002"
       id="path12268-4-9"
       inkscape:connector-curvature="0" />
    <path
       style="fill:none;stroke:#000000;stroke-width:0.26458332px;stroke-linecap:butt;stroke-linejoin:miter;stroke-opacity:1"
       d="m 44.672808,138.38104 -1.733268,2.82844"
       id="path12285-0"
       inkscape:connector-curvature="0" />
    <path
       style="fill:none;stroke:#000000;stroke-width:0.26458332px;stroke-linecap:butt;stroke-linejoin:miter;stroke-opacity:1"
       d="m 48.456256,133.09641 -0.940527,0.51068 -0.0413,-0.076"
       id="path12268-3-3"
       inkscape:connector-curvature="0" />
    <path
       style="fill:none;stroke:#000000;stroke-width:0.26458332px;stroke-linecap:butt;stroke-linejoin:miter;stroke-opacity:1"
       d="m 47.543744,132.53724 -0.02801,1.06985 0.08639,0.002"
       id="path12268-4-9-5"
       inkscape:connector-curvature="0" />
    <path
       style="fill:none;stroke:#000000;stroke-width:0.26458332px;stroke-linecap:butt;stroke-linejoin:miter;stroke-opacity:1"
       d="m 47.51573,133.60709 1.733268,-2.82844"
       id="path12285-0-1"
       inkscape:connector-curvature="0" />
    <text
       xml:space="preserve"
       style="font-style:normal;font-variant:normal;font-weight:normal;font-stretch:normal;font-size:5.29166651px;line-height:1.25;font-family:sans-serif;-inkscape-font-specification:'sans-serif, Normal';font-variant-ligatures:normal;font-variant-caps:normal;font-variant-numeric:normal;font-feature-settings:normal;text-align:start;letter-spacing:0px;word-spacing:0px;writing-mode:lr-tb;text-anchor:start;fill:#000000;fill-opacity:1;stroke:none;stroke-width:0.26458332"
       x="44.892315"
       y="130.62091"
       id="text4589-8"><tspan
         sodipodi:role="line"
         id="tspan4587-2"
         x="44.892315"
         y="130.62091"
         style="font-style:normal;font-variant:normal;font-weight:normal;font-stretch:normal;font-size:5.29166651px;font-family:sans-serif;-inkscape-font-specification:'sans-serif, Normal';font-variant-ligatures:normal;font-variant-caps:normal;font-variant-numeric:normal;font-feature-settings:normal;text-align:start;writing-mode:lr-tb;text-anchor:start;stroke-width:0.26458332">$t$</tspan></text>
    <path
       style="fill:none;stroke:#000000;stroke-width:0.26499999;stroke-linecap:butt;stroke-linejoin:miter;stroke-miterlimit:4;stroke-dasharray:none;stroke-opacity:1"
       d="m 52.349033,142.8896 1.730982,-0.15301 0.0148,0.11759"
       id="path12268-3-9"
       inkscape:connector-curvature="0" />
    <path
       style="fill:none;stroke:#000000;stroke-width:0.26499999;stroke-linecap:butt;stroke-linejoin:miter;stroke-miterlimit:4;stroke-dasharray:none;stroke-opacity:1"
       d="m 53.339896,144.17983 0.746571,-1.4099 -0.135562,-0.0503"
       id="path12268-4-9-7"
       inkscape:connector-curvature="0" />
    <path
       style="fill:none;stroke:#000000;stroke-width:0.26499999;stroke-linecap:butt;stroke-linejoin:miter;stroke-miterlimit:4;stroke-dasharray:none;stroke-opacity:1"
       d="m 54.080015,142.73659 -6.266486,3.82803"
       id="path12285-0-3"
       inkscape:connector-curvature="0" />
    <text
       xml:space="preserve"
       style="font-style:normal;font-variant:normal;font-weight:normal;font-stretch:normal;font-size:5.29166651px;line-height:1.25;font-family:sans-serif;-inkscape-font-specification:'sans-serif, Normal';font-variant-ligatures:normal;font-variant-caps:normal;font-variant-numeric:normal;font-feature-settings:normal;text-align:start;letter-spacing:0px;word-spacing:0px;writing-mode:lr-tb;text-anchor:start;fill:#000000;fill-opacity:1;stroke:none;stroke-width:0.26458332"
       x="47.042679"
       y="151.15538"
       id="text4589-8-5"><tspan
         sodipodi:role="line"
         id="tspan4587-2-6"
         x="47.042679"
         y="151.15538"
         style="font-style:normal;font-variant:normal;font-weight:normal;font-stretch:normal;font-size:5.29166651px;font-family:sans-serif;-inkscape-font-specification:'sans-serif, Normal';font-variant-ligatures:normal;font-variant-caps:normal;font-variant-numeric:normal;font-feature-settings:normal;text-align:start;writing-mode:lr-tb;text-anchor:start;stroke-width:0.26458332">$s$</tspan></text>
    <text
       xml:space="preserve"
       style="font-style:normal;font-variant:normal;font-weight:normal;font-stretch:normal;font-size:5.29166651px;line-height:1.25;font-family:sans-serif;-inkscape-font-specification:'sans-serif, Normal';font-variant-ligatures:normal;font-variant-caps:normal;font-variant-numeric:normal;font-feature-settings:normal;text-align:start;letter-spacing:0px;word-spacing:0px;writing-mode:lr-tb;text-anchor:start;fill:#000000;fill-opacity:1;stroke:none;stroke-width:0.26458332"
       x="47.236149"
       y="158.41161"
       id="text4589-8-5-7"><tspan
         sodipodi:role="line"
         id="tspan4587-2-6-9"
         x="47.236149"
         y="158.41161"
         style="font-style:normal;font-variant:normal;font-weight:normal;font-stretch:normal;font-size:5.29166651px;font-family:sans-serif;-inkscape-font-specification:'sans-serif, Normal';font-variant-ligatures:normal;font-variant-caps:normal;font-variant-numeric:normal;font-feature-settings:normal;text-align:start;writing-mode:lr-tb;text-anchor:start;stroke-width:0.26458332">$l\acute{i}nea\;media$</tspan></text>
    <path
       style="opacity:0.8;fill:#000000;fill-opacity:0.22767855;stroke:#000000;stroke-width:0.25550377;stroke-miterlimit:4;stroke-dasharray:0, 2.81054137;stroke-dashoffset:0;stroke-opacity:1"
       d="m 127.97295,673.48788 c -12.49423,-1.78458 -24.21413,-7.10513 -34.642858,-15.72702 -15.399731,-12.73163 -25.588305,-31.7873 -28.959454,-54.16278 -0.775356,-5.1463 -1.056433,-17.3956 -0.528108,-23.01483 2.132551,-22.68167 11.399391,-43.57287 26.092502,-58.82304 6.541097,-6.78909 13.512208,-11.98256 21.348238,-15.90441 11.16743,-5.58917 21.29795,-7.99619 33.65396,-7.99619 12.58124,0 22.61163,2.36395 34.46429,8.12249 14.64559,7.11547 26.81118,17.97921 36.22502,32.34858 3.47564,5.30525 6.44511,11.07585 5.81839,11.30693 -0.25113,0.0926 -2.09302,0.96861 -4.0931,1.94669 -3.38778,1.6567 -3.66799,1.73526 -4.09697,1.14859 -0.25327,-0.34636 -0.46048,-0.75974 -0.46048,-0.91863 0,-0.15888 -0.25827,-0.28888 -0.57393,-0.28888 -0.40652,0 -0.49887,0.18231 -0.31662,0.625 0.66031,1.60393 0.59549,1.714 -1.6378,2.78108 -1.2181,0.58201 -2.51361,1.00793 -2.87891,0.94647 -0.39281,-0.0661 -0.66417,0.0993 -0.66417,0.40478 0,0.4051 -1.44782,1.16985 -1.61585,0.85351 -1.55913,-2.9351 -4.49678,-7.86462 -5.8724,-9.85416 -1.00249,-1.44991 -1.74038,-2.71853 -1.63974,-2.81917 0.39999,-0.39998 4.67107,-2.87059 4.7779,-2.76377 0.0628,0.0628 -0.21368,0.75689 -0.61442,1.54241 -0.61482,1.20515 -0.65118,1.49251 -0.23278,1.83975 0.40339,0.33478 0.81168,-0.16788 2.18963,-2.69576 1.53208,-2.81064 1.63716,-3.14868 1.10072,-3.54094 -0.32618,-0.23851 -0.59386,-0.57665 -0.59484,-0.75143 -0.001,-0.17477 -0.39076,-0.79991 -0.8662,-1.3892 -0.64514,-0.79964 -0.96878,-0.9693 -1.27581,-0.66884 -0.30888,0.30228 -0.12833,0.72496 0.72463,1.69643 l 1.13601,1.29384 -1.19771,0.003 c -0.65874,0.002 -2.04146,0.10445 -3.07271,0.22831 -1.48988,0.17896 -1.875,0.35826 -1.875,0.87293 0,0.56795 0.2309,0.62379 1.875,0.4534 l 1.875,-0.19432 -2.46956,1.51617 -2.46955,1.51617 -1.22934,-1.39431 c -11.70086,-13.27113 -24.08141,-20.7609 -39.1887,-23.7078 -20.81442,-4.06018 -42.62248,3.90478 -56.692338,20.70574 -11.941513,14.25949 -18.420809,33.59575 -17.651977,52.67906 0.868744,21.56325 10.052987,40.33834 25.415745,51.95668 7.8154,5.91052 16.07807,9.31686 25.67425,10.58436 10.6838,1.41115 22.70018,-1.32218 31.60616,-7.18938 1.0578,-0.69686 1.98202,-1.20827 2.05384,-1.13646 0.0718,0.0718 0.78234,1.9577 1.57895,4.19087 l 1.4484,4.06031 -1.32923,1.11594 c -1.75019,1.46938 -1.35908,2.3225 0.48902,1.06668 l 1.30193,-0.88468 1.17732,3.29641 c 0.64752,1.81303 1.17538,3.37677 1.17301,3.47499 -0.009,0.38827 -5.38689,3.64183 -9.10222,5.5071 -4.6316,2.32528 -10.013,4.15031 -15.40051,5.22288 -5.05058,1.0055 -14.77687,1.25807 -19.95663,0.51823 z m 9.82143,-7.49821 c 0,-0.38691 -0.39683,-0.53572 -1.42857,-0.53572 -1.03175,0 -1.42858,0.14881 -1.42858,0.53572 0,0.3869 0.39683,0.53571 1.42858,0.53571 1.03174,0 1.42857,-0.14881 1.42857,-0.53571 z m 5.71428,-0.39466 c 0,-0.3419 -0.44158,-0.4982 -1.40749,-0.4982 -1.35403,0 -2.03922,0.40643 -1.676,0.99413 0.30523,0.49386 3.08349,0.047 3.08349,-0.49593 z m -11.07143,0.0375 c 0,-0.31602 -0.32955,-0.53772 -0.80357,-0.54059 -0.44196,-0.003 -1.16518,-0.10179 -1.60714,-0.22023 -0.57758,-0.15478 -0.80357,-0.0613 -0.80357,0.33226 0,0.66259 0.51816,0.89878 2.05357,0.93607 0.80618,0.0196 1.16071,-0.13543 1.16071,-0.50751 z m 15.80358,-0.33076 c 0.54696,-0.12172 0.98214,-0.46009 0.98214,-0.76366 0,-0.43475 -0.27111,-0.49617 -1.33929,-0.30343 -1.67578,0.30238 -1.875,0.41775 -1.875,1.08585 0,0.3395 0.23111,0.47605 0.625,0.36926 0.34375,-0.0932 1.06697,-0.2678 1.60715,-0.38802 z m -21.51786,-0.39474 c 0,-0.60839 -0.40096,-0.8078 -1.92683,-0.95826 -1.46744,-0.1447 -1.5817,0.6871 -0.151,1.09933 1.71931,0.4954 2.07783,0.47105 2.07783,-0.14107 z m 26.73242,-0.91659 c 0.6186,-0.21564 1.12472,-0.61743 1.12472,-0.89285 0,-0.60633 -0.0868,-0.61045 -1.83356,-0.0871 -1.35747,0.4067 -1.61465,0.66192 -1.14263,1.13394 0.32128,0.32128 0.5404,0.30306 1.85147,-0.15399 z m -32.08956,-0.46583 c 0,-0.47838 -1.71481,-1.28494 -2.73187,-1.28494 -0.95239,0 -0.45865,0.97572 0.67829,1.34044 1.64287,0.52702 2.05358,0.51592 2.05358,-0.0555 z m 37.27781,-1.46831 c 0.71149,-0.29727 1.29361,-0.77942 1.29361,-1.07142 0,-0.6831 -0.47524,-0.6705 -1.89273,0.0502 -1.44754,0.73598 -1.43837,0.72663 -1.15767,1.18082 0.29482,0.47701 0.21602,0.48417 1.75679,-0.15961 z m -42.63496,-0.54282 c 0,-0.49229 -2.13444,-1.49632 -2.7108,-1.27515 -0.8297,0.31839 -0.57545,0.71917 0.83762,1.32037 1.34514,0.57229 1.87318,0.55954 1.87318,-0.0452 z m 47.82595,-2.04167 c 0.60396,-0.34375 1.09912,-0.90952 1.10037,-1.25726 0.002,-0.58874 -0.0961,-0.58209 -1.42632,0.0965 -0.78571,0.40084 -1.42857,0.9666 -1.42857,1.25725 0,0.68957 0.41329,0.66683 1.75452,-0.0965 z m -53.18309,-0.27311 c 0,-0.48951 -1.93755,-1.95445 -2.58929,-1.9577 -0.69876,-0.004 -0.14431,1.07907 0.89286,1.74329 1.39035,0.89041 1.69643,0.92909 1.69643,0.21441 z m -5.00617,-3.11975 c -0.01,-0.7228 -2.22548,-2.10917 -2.65987,-1.66444 -0.25683,0.26294 -0.0426,0.64234 0.70175,1.2429 1.17312,0.94647 1.96774,1.11753 1.95812,0.42154 z m -5.659212,-4.6085 c -0.911043,-0.81812 -1.29915,-0.97775 -1.607142,-0.66102 -0.305722,0.31439 -0.101122,0.67453 0.828081,1.45762 0.866673,0.73039 1.345193,0.92721 1.607143,0.66104 0.26064,-0.26485 0.0112,-0.70397 -0.828082,-1.45764 z m -3.505206,-2.58709 c 0.193019,-0.503 -1.580865,-2.35798 -2.254891,-2.35798 -0.648382,0 -0.378823,0.83437 0.59944,1.85546 1.081713,1.12906 1.380249,1.21969 1.655451,0.50252 z m -4.937725,-5.72062 c -1.025272,-1.3442 -1.407432,-1.53325 -1.803616,-0.89221 -0.131889,0.2134 0.292242,0.93693 0.942513,1.60783 1.539965,1.58885 2.200259,1.0401 0.861103,-0.71562 z m -3.034544,-3.4469 c 0,-0.20954 -0.426515,-0.94016 -0.947811,-1.62362 -1.262638,-1.6554 -1.959841,-1.06074 -0.85406,0.72845 0.744138,1.20404 1.801871,1.72952 1.801871,0.89517 z m -3.571428,-4.96405 c 0,-0.75594 -1.232449,-2.86926 -1.67329,-2.86926 -0.667872,0 -0.582717,0.62546 0.273846,2.01141 0.715492,1.15769 1.399444,1.57695 1.399444,0.85785 z m -3.043285,-5.35701 c 0.117236,-0.1897 -0.127372,-1.01239 -0.543573,-1.82821 -0.544355,-1.06703 -0.865562,-1.37448 -1.144518,-1.09553 -0.278957,0.27896 -0.205498,0.79204 0.261748,1.82821 0.652086,1.44607 1.030205,1.73649 1.426343,1.09553 z m -3.066664,-7.37792 c -0.51491,-1.35287 -1.390051,-2.04577 -1.390051,-1.10057 0,0.28702 0.252065,1.12514 0.560144,1.86247 0.402691,0.96378 0.669071,1.23169 0.947651,0.95311 0.278581,-0.27858 0.245484,-0.76066 -0.117744,-1.71501 z m -2.13337,-6.16183 c -0.483305,-1.61313 -1.651119,-2.16635 -1.256833,-0.5954 0.495637,1.97477 0.952007,2.8139 1.326636,2.43927 0.257063,-0.25706 0.235578,-0.8246 -0.0698,-1.84387 z m -1.40153,-4.77608 c -0.0011,-0.24553 -0.174685,-1.06837 -0.385753,-1.82853 -0.261835,-0.94299 -0.499953,-1.26591 -0.749473,-1.01639 -0.52854,0.52854 0.0027,3.29135 0.632895,3.29135 0.277377,0 0.503426,-0.20089 0.502331,-0.44643 z m -1.375669,-7.26066 c -0.140272,-1.63357 -0.283163,-1.93576 -0.91532,-1.93576 -0.450353,0 -0.449041,0.57342 0.0064,2.79322 0.286882,1.39828 1.041494,0.68639 0.908926,-0.85746 z m -0.765197,-6.57862 c 0,-1.34921 -0.130952,-1.78572 -0.535714,-1.78572 -0.404762,0 -0.535714,0.43651 -0.535714,1.78572 0,1.34921 0.130952,1.78571 0.535714,1.78571 0.404762,0 0.535714,-0.4365 0.535714,-1.78571 z m -0.357143,-6.78572 c 0,-1.3492 -0.130952,-1.78571 -0.535714,-1.78571 -0.404762,0 -0.535714,0.43651 -0.535714,1.78571 0,1.34921 0.130952,1.78572 0.535714,1.78572 0.404762,0 0.535714,-0.43651 0.535714,-1.78572 z m 0.133929,-5.75892 c 0.352773,-1.76387 0.264765,-2.45536 -0.3125,-2.45536 -0.345138,0 -0.537449,0.34939 -0.540591,0.98214 -0.0027,0.54018 -0.101784,1.34375 -0.220225,1.78572 -0.152871,0.57043 -0.06079,0.80357 0.317376,0.80357 0.310939,0 0.625655,-0.46465 0.75594,-1.11607 z m 0.580357,-5.98215 c 0,-0.3683 0.100447,-1.17187 0.223214,-1.78571 0.170635,-0.85318 0.09702,-1.11607 -0.3125,-1.11607 -0.314285,0 -0.627976,0.46131 -0.758928,1.11607 -0.352773,1.76387 -0.264765,2.45536 0.3125,2.45536 0.294643,0 0.535714,-0.30134 0.535714,-0.66965 z m 1.157849,-7.3668 c 0.174997,-0.84226 0.146732,-1.51612 -0.0728,-1.73565 -0.51956,-0.51956 -0.696072,-0.2027 -0.960082,1.72346 -0.187724,1.3696 -0.136048,1.68328 0.255788,1.55267 0.270072,-0.09 0.619764,-0.78324 0.777094,-1.54048 z m 1.683185,-7.26117 c 0.02527,-1.30722 -0.759697,-0.72465 -1.246897,0.92539 -0.322616,1.09263 -0.331573,1.52231 -0.03397,1.63002 0.480391,0.17386 1.258109,-1.37773 1.280874,-2.55541 z m 1.450669,-4.18242 c 0.744597,-1.95844 0.807818,-2.66282 0.238997,-2.66282 -0.619204,0 -1.489758,2.24742 -1.18161,3.05044 0.288674,0.75227 0.550098,0.64477 0.942613,-0.38762 z m 2.487137,-6.66487 c 0.642152,-1.4343 0.65444,-2.06938 0.04004,-2.06938 -0.44372,0 -1.569321,2.75127 -1.302337,3.18326 0.384566,0.62224 0.550613,0.47572 1.262299,-1.11388 z m 130.572167,-5.15843 c -0.12097,-0.36352 -0.52875,-1.06169 -0.90618,-1.55148 -1.04909,-1.36142 -1.32594,-0.0898 -0.34311,1.57594 0.79055,1.33988 1.6974,1.32213 1.24929,-0.0245 z M 83.060795,547.44894 c 0.637716,-1.31261 0.679726,-1.6095 0.251026,-1.77401 -0.577272,-0.22152 -2.122907,2.41816 -1.759874,3.00556 0.393206,0.63622 0.738241,0.3546 1.508848,-1.23155 z m 124.733585,-4.17787 c 0,-0.19526 -0.37369,-0.90494 -0.83042,-1.57708 -0.60564,-0.89128 -0.93711,-1.11536 -1.2246,-0.82788 -0.28749,0.2875 -0.14759,0.76683 0.51685,1.77088 0.82744,1.25034 1.53817,1.54332 1.53817,0.63408 z M 86.141765,541.9188 c 0.477865,-0.81821 0.564097,-1.26765 0.294878,-1.53687 -0.269218,-0.26922 -0.595921,-0.0271 -1.117183,0.82791 -0.405184,0.66462 -0.737299,1.42269 -0.738033,1.68459 -0.0022,0.78515 0.839272,0.25901 1.560338,-0.97563 z m 4.044219,-6.25431 c -0.247877,-0.74363 -0.821504,-0.50801 -1.620949,0.66581 -1.190764,1.74839 -0.60137,2.47817 0.721599,0.89346 0.557794,-0.66814 0.962502,-1.36982 0.89935,-1.55927 z m 110.276286,-1.97898 c 0.33196,-0.53712 -1.83651,-2.76404 -2.27322,-2.33449 -0.25072,0.24661 -0.08,0.72861 0.53771,1.51786 0.93555,1.19541 1.37393,1.40168 1.73551,0.81663 z M 93.25816,532.12366 c 1.339219,-1.75581 0.673333,-2.42415 -0.773473,-0.77633 -1.028514,1.17141 -1.200362,1.96377 -0.425907,1.96377 0.161522,0 0.701243,-0.53435 1.19938,-1.18744 z m 102.15105,-4.21971 c -0.6574,-0.6574 -1.28428,-1.003 -1.53653,-0.8471 -0.29492,0.18227 -0.0649,0.63596 0.74711,1.47377 0.79546,0.82071 1.29018,1.09345 1.53653,0.84711 0.24635,-0.24635 0.006,-0.72087 -0.74711,-1.47378 z m -98.259375,-0.19539 c 0.958443,-0.91824 1.325553,-1.89746 0.711361,-1.89746 -0.441476,0 -2.209676,1.94471 -2.209676,2.43025 0,0.65838 0.405517,0.51418 1.498315,-0.53279 z m 94.697165,-2.4977 c 0.31447,-0.31448 -1.54038,-2.25691 -2.15515,-2.25691 -0.77964,0 -0.5285,0.81723 0.51324,1.67017 1.07257,0.87818 1.2773,0.95134 1.64191,0.58674 z m -89.23119,-2.75541 c 0,-0.61506 -0.63872,-0.46753 -1.74568,0.4032 -0.66086,0.51984 -0.937385,0.99704 -0.79411,1.37042 0.18695,0.48716 0.39336,0.42684 1.37981,-0.4032 0.63799,-0.53683 1.15998,-1.15352 1.15998,-1.37042 z m 84.72645,-1.18084 c 0.11405,-0.34217 -1.96371,-1.89208 -2.53646,-1.89208 -0.56162,0 -0.13589,0.93948 0.75643,1.66931 1.01074,0.82668 1.55598,0.89492 1.78003,0.22277 z m -81.10789,-1.20693 c 1.23956,-0.76609 1.46778,-1.19356 0.84329,-1.57952 -0.48121,-0.2974 -2.49757,1.16511 -2.49757,1.81154 0,0.68003 0.23097,0.64763 1.65428,-0.23202 z m 76.20286,-1.9404 c 0,-0.48952 -1.93755,-1.95446 -2.58928,-1.95771 -0.7045,-0.004 -0.14136,1.08255 0.89286,1.72192 1.43344,0.88618 1.69642,0.92273 1.69642,0.23579 z m -71.29059,-1.26813 c 0.79408,-0.46851 1.17851,-0.92459 1.05363,-1.25 -0.2481,-0.64655 -0.19697,-0.65366 -1.70691,0.23722 -1.2677,0.74797 -1.4823,1.06236 -1.03231,1.51235 0.32068,0.32068 0.26983,0.33575 1.68559,-0.49957 z m 66.29059,-1.69619 c 0,-0.39028 -0.50212,-0.88759 -1.26211,-1.25 -1.56711,-0.7473 -1.59503,-0.74647 -1.59503,0.0476 0,0.37616 0.48846,0.89259 1.16072,1.22716 1.51279,0.75289 1.69642,0.75021 1.69642,-0.0248 z m -61.26211,-1.02515 c 0.69416,-0.33103 1.26211,-0.81317 1.26211,-1.07143 0,-0.60303 -0.44356,-0.59227 -1.97575,0.0479 -1.20383,0.503 -1.48912,0.89859 -1.00043,1.38727 0.31557,0.31558 0.26853,0.32556 1.71407,-0.36376 z m 56.0417,-1.38217 c 0.15073,-0.3928 -0.14847,-0.70655 -1.02175,-1.07143 -1.5444,-0.64529 -1.97212,-0.64929 -1.97212,-0.0185 0,0.38693 1.08813,1.03548 2.72965,1.62693 0.0281,0.0101 0.14699,-0.23155 0.26422,-0.53705 z m -50.6646,-1.03194 c 0.86186,-0.36011 1.17162,-0.68086 1.02544,-1.0618 -0.1862,-0.48523 -0.34926,-0.48742 -1.46856,-0.0197 -0.6925,0.28935 -1.31983,0.52609 -1.39405,0.52609 -0.0742,0 -0.13496,0.24107 -0.13496,0.53571 0,0.66936 0.40762,0.67344 1.97213,0.0197 z m 45.43249,-1.16219 c 0.12475,-0.37424 -1.67483,-1.17898 -2.63648,-1.17898 -0.95288,0 -0.45839,0.97576 0.67829,1.33844 1.3251,0.4228 1.77636,0.38606 1.95819,-0.15946 z m -39.81533,-0.71292 c 1.11267,-0.22455 1.34839,-1.18035 0.2911,-1.18035 -1.19567,0 -2.52325,0.67312 -2.52325,1.27937 0,0.40903 0.18633,0.51068 0.625,0.34097 0.34375,-0.13298 1.06697,-0.33098 1.60715,-0.43999 z m 34.19643,-0.96013 c 0,-0.49031 -1.03238,-0.92027 -2.23215,-0.92963 -0.9157,-0.007 -0.7637,0.99016 0.17857,1.17165 1.57102,0.30259 2.05358,0.24572 2.05358,-0.24202 z m -28.83929,-0.37577 c 0.54843,-0.12017 0.98214,-0.45591 0.98214,-0.7603 0,-0.43411 -0.27267,-0.49662 -1.33928,-0.30702 -0.73661,0.13094 -1.47796,0.3653 -1.64746,0.52078 -0.41166,0.37766 0.0382,1.063 0.58747,0.89489 0.23924,-0.0732 0.87695,-0.22998 1.41713,-0.34835 z m 23.48214,-0.69266 c 0,-0.44163 -1.44038,-0.9375 -2.72321,-0.9375 -0.81783,0 -0.54943,1.0105 0.3125,1.17652 1.65734,0.31922 2.41071,0.24452 2.41071,-0.23902 z m -17.90178,-0.0893 c 1.278,-0.2556 1.52588,-1.20784 0.3125,-1.20048 -1.3635,0.008 -2.41072,0.41211 -2.41072,0.92963 0,0.54677 0.43674,0.60315 2.09822,0.27085 z m 6.47321,-0.84821 c 0,-0.59524 -0.23809,-0.71429 -1.42857,-0.71429 -1.19047,0 -1.42857,0.11905 -1.42857,0.71429 0,0.59523 0.2381,0.71428 1.42857,0.71428 1.19048,0 1.42857,-0.11905 1.42857,-0.71428 z m 5.71429,0.17857 c 0,-0.39683 -0.41667,-0.53572 -1.60715,-0.53572 -1.19047,0 -1.60714,0.13889 -1.60714,0.53572 0,0.39682 0.41667,0.53571 1.60714,0.53571 1.19048,0 1.60715,-0.13889 1.60715,-0.53571 z"
       id="path3254"
       inkscape:connector-curvature="0"
       transform="scale(0.26458333)" />
  </g>
</svg>
