<?xml version="1.0" encoding="UTF-8" standalone="no"?>
<!-- Created with Inkscape (http://www.inkscape.org/) -->

<svg
   xmlns:dc="http://purl.org/dc/elements/1.1/"
   xmlns:cc="http://creativecommons.org/ns#"
   xmlns:rdf="http://www.w3.org/1999/02/22-rdf-syntax-ns#"
   xmlns:svg="http://www.w3.org/2000/svg"
   xmlns="http://www.w3.org/2000/svg"
   xmlns:sodipodi="http://sodipodi.sourceforge.net/DTD/sodipodi-0.dtd"
   xmlns:inkscape="http://www.inkscape.org/namespaces/inkscape"
   width="210mm"
   height="297mm"
   viewBox="0 0 210 297"
   version="1.1"
   id="svg8"
   inkscape:version="0.92.3 (2405546, 2018-03-11)"
   sodipodi:docname="fig6.svg">
  <defs
     id="defs2" />
  <sodipodi:namedview
     id="base"
     pagecolor="#ffffff"
     bordercolor="#666666"
     borderopacity="1.0"
     inkscape:pageopacity="0.0"
     inkscape:pageshadow="2"
     inkscape:zoom="1.979899"
     inkscape:cx="233.75362"
     inkscape:cy="513.48166"
     inkscape:document-units="mm"
     inkscape:current-layer="layer1"
     showgrid="false"
     inkscape:window-width="1366"
     inkscape:window-height="705"
     inkscape:window-x="-8"
     inkscape:window-y="-8"
     inkscape:window-maximized="1"
     inkscape:snap-intersection-paths="true"
     inkscape:snap-bbox="true"
     inkscape:snap-bbox-midpoints="false"
     inkscape:snap-bbox-edge-midpoints="false"
     inkscape:snap-object-midpoints="true" />
  <metadata
     id="metadata5">
    <rdf:RDF>
      <cc:Work
         rdf:about="">
        <dc:format>image/svg+xml</dc:format>
        <dc:type
           rdf:resource="http://purl.org/dc/dcmitype/StillImage" />
        <dc:title></dc:title>
      </cc:Work>
    </rdf:RDF>
  </metadata>
  <g
     inkscape:label="Capa 1"
     inkscape:groupmode="layer"
     id="layer1">
    <path
       style="fill:none;stroke:#000000;stroke-width:0.26499999;stroke-linecap:butt;stroke-linejoin:miter;stroke-miterlimit:4;stroke-dasharray:none;stroke-opacity:1"
       d="M 47.141582,182.18186 H 69.453124"
       id="path4550"
       inkscape:connector-curvature="0" />
    <path
       style="fill:none;stroke:#000000;stroke-width:0.26458332px;stroke-linecap:butt;stroke-linejoin:miter;stroke-opacity:1"
       d="m 47.141582,182.18186 0.803198,-0.8032"
       id="path4552"
       inkscape:connector-curvature="0" />
    <path
       style="fill:none;stroke:#000000;stroke-width:0.26458332px;stroke-linecap:butt;stroke-linejoin:miter;stroke-opacity:1"
       d="m 46.338384,182.98506 0.803198,-0.8032"
       id="path4552-1"
       inkscape:connector-curvature="0" />
    <path
       style="fill:none;stroke:#000000;stroke-width:0.26458332px;stroke-linecap:butt;stroke-linejoin:miter;stroke-opacity:1"
       d="m 85.433759,182.18186 0.803198,-0.8032"
       id="path4552-19"
       inkscape:connector-curvature="0" />
    <path
       style="fill:none;stroke:#000000;stroke-width:0.26458332px;stroke-linecap:butt;stroke-linejoin:miter;stroke-opacity:1"
       d="m 84.630561,182.98506 0.803198,-0.8032"
       id="path4552-1-4"
       inkscape:connector-curvature="0" />
    <text
       xml:space="preserve"
       style="font-style:normal;font-variant:normal;font-weight:normal;font-stretch:normal;font-size:5.29166651px;line-height:1.25;font-family:sans-serif;-inkscape-font-specification:'sans-serif, Normal';font-variant-ligatures:normal;font-variant-caps:normal;font-variant-numeric:normal;font-feature-settings:normal;text-align:start;letter-spacing:0px;word-spacing:0px;writing-mode:lr-tb;text-anchor:start;fill:#000000;fill-opacity:1;stroke:none;stroke-width:0.26458332"
       x="56.79092"
       y="181.14243"
       id="text4589"><tspan
         sodipodi:role="line"
         id="tspan4587"
         x="56.79092"
         y="181.14243"
         style="font-style:normal;font-variant:normal;font-weight:normal;font-stretch:normal;font-size:5.29166651px;font-family:sans-serif;-inkscape-font-specification:'sans-serif, Normal';font-variant-ligatures:normal;font-variant-caps:normal;font-variant-numeric:normal;font-feature-settings:normal;text-align:start;writing-mode:lr-tb;text-anchor:start;stroke-width:0.26458332">$s_4$</tspan></text>
    <path
       style="fill:none;stroke:#000000;stroke-width:0.26458332px;stroke-linecap:butt;stroke-linejoin:miter;stroke-opacity:1"
       d="m 69.453124,182.18186 0.803198,-0.8032"
       id="path4552-19-7"
       inkscape:connector-curvature="0" />
    <path
       style="fill:none;stroke:#000000;stroke-width:0.26458332px;stroke-linecap:butt;stroke-linejoin:miter;stroke-opacity:1"
       d="m 68.649926,182.98506 0.803198,-0.8032"
       id="path4552-1-4-3"
       inkscape:connector-curvature="0" />
    <path
       style="fill:none;stroke:#000000;stroke-width:0.26499999;stroke-linecap:butt;stroke-linejoin:miter;stroke-miterlimit:4;stroke-dasharray:none;stroke-opacity:1"
       d="M 69.642114,182.18186 H 85.433759"
       id="path4550-6"
       inkscape:connector-curvature="0" />
    <text
       xml:space="preserve"
       style="font-style:normal;font-variant:normal;font-weight:normal;font-stretch:normal;font-size:5.29166651px;line-height:1.25;font-family:sans-serif;-inkscape-font-specification:'sans-serif, Normal';font-variant-ligatures:normal;font-variant-caps:normal;font-variant-numeric:normal;font-feature-settings:normal;text-align:start;letter-spacing:0px;word-spacing:0px;writing-mode:lr-tb;text-anchor:start;fill:#000000;fill-opacity:1;stroke:none;stroke-width:0.26458332"
       x="75.933899"
       y="181.01343"
       id="text4589-6"><tspan
         sodipodi:role="line"
         id="tspan4587-1"
         x="75.933899"
         y="181.01343"
         style="font-style:normal;font-variant:normal;font-weight:normal;font-stretch:normal;font-size:5.29166651px;font-family:sans-serif;-inkscape-font-specification:'sans-serif, Normal';font-variant-ligatures:normal;font-variant-caps:normal;font-variant-numeric:normal;font-feature-settings:normal;text-align:start;writing-mode:lr-tb;text-anchor:start;stroke-width:0.26458332">$s_3$</tspan></text>
    <path
       style="fill:none;stroke:#000000;stroke-width:0.26499999;stroke-linecap:butt;stroke-linejoin:miter;stroke-miterlimit:4;stroke-dasharray:none;stroke-opacity:1"
       d="M 31.877327,173.39877 V 137.54413"
       id="path5234"
       inkscape:connector-curvature="0" />
    <path
       style="fill:none;stroke:#000000;stroke-width:0.26458332px;stroke-linecap:butt;stroke-linejoin:miter;stroke-opacity:1"
       d="m 31.877327,173.39877 0.91896,0.66766"
       id="path4552-19-8"
       inkscape:connector-curvature="0" />
    <path
       style="fill:none;stroke:#000000;stroke-width:0.26458332px;stroke-linecap:butt;stroke-linejoin:miter;stroke-opacity:1"
       d="m 30.958367,172.73111 0.91896,0.66766"
       id="path4552-1-4-2"
       inkscape:connector-curvature="0" />
    <path
       style="fill:none;stroke:#000000;stroke-width:0.26458332px;stroke-linecap:butt;stroke-linejoin:miter;stroke-opacity:1"
       d="m 31.877327,137.54413 0.91896,0.66766"
       id="path4552-19-8-9"
       inkscape:connector-curvature="0" />
    <path
       style="fill:none;stroke:#000000;stroke-width:0.26458332px;stroke-linecap:butt;stroke-linejoin:miter;stroke-opacity:1"
       d="m 30.958367,136.87647 0.91896,0.66766"
       id="path4552-1-4-2-6"
       inkscape:connector-curvature="0" />
    <text
       xml:space="preserve"
       style="font-style:normal;font-variant:normal;font-weight:normal;font-stretch:normal;font-size:5.29166651px;line-height:1.25;font-family:sans-serif;-inkscape-font-specification:'sans-serif, Normal';font-variant-ligatures:normal;font-variant-caps:normal;font-variant-numeric:normal;font-feature-settings:normal;text-align:start;letter-spacing:0px;word-spacing:0px;writing-mode:lr-tb;text-anchor:start;fill:#000000;fill-opacity:1;stroke:none;stroke-width:0.26458332"
       x="-157.91454"
       y="30.835146"
       id="text4589-6-3-8"
       transform="rotate(-90)"><tspan
         sodipodi:role="line"
         id="tspan4587-1-1-2"
         x="-157.91454"
         y="30.835146"
         style="font-style:normal;font-variant:normal;font-weight:normal;font-stretch:normal;font-size:5.29166651px;font-family:sans-serif;-inkscape-font-specification:'sans-serif, Normal';font-variant-ligatures:normal;font-variant-caps:normal;font-variant-numeric:normal;font-feature-settings:normal;text-align:start;writing-mode:lr-tb;text-anchor:start;stroke-width:0.26458332">$s_2$</tspan></text>
    <path
       style="fill:none;stroke:#000000;stroke-width:0.2;stroke-linecap:butt;stroke-linejoin:miter;stroke-opacity:1;stroke-miterlimit:4;stroke-dasharray:0.8,0.8;stroke-dashoffset:0"
       d="M 69.453124,173.39877 H 47.141582"
       id="path14739"
       inkscape:connector-curvature="0" />
    <path
       style="fill:none;stroke:#000000;stroke-width:0;stroke-linecap:butt;stroke-linejoin:miter;stroke-opacity:1;stroke-miterlimit:4;stroke-dasharray:0,0;stroke-dashoffset:0"
       d="M 85.433761,156.6835 H 69.453124"
       id="path14747"
       inkscape:connector-curvature="0" />
    <path
       style="fill:none;stroke:#000000;stroke-width:0.26458332px;stroke-linecap:butt;stroke-linejoin:miter;stroke-opacity:1"
       d="m 47.141582,176.72006 29.460658,-0.0348 -0.107299,-15.51246 h 8.93882 v -8.9786 h -8.831519 l -2e-6,-19.10033 -40.077911,-0.014 v 8.92861 H 62.27373 v 28.10384 l -15.132148,10e-6 z"
       id="path14749"
       inkscape:connector-curvature="0" />
    <path
       style="fill:none;stroke:#000000;stroke-width:0.265;stroke-linecap:butt;stroke-linejoin:miter;stroke-miterlimit:4;stroke-dasharray:none;stroke-opacity:1"
       d="M 36.524329,128.80356 H 69.453124"
       id="path4550-4"
       inkscape:connector-curvature="0" />
    <path
       style="fill:none;stroke:#000000;stroke-width:0.26458332px;stroke-linecap:butt;stroke-linejoin:miter;stroke-opacity:1"
       d="m 36.524329,128.80356 0.803198,-0.8032"
       id="path4552-0"
       inkscape:connector-curvature="0" />
    <path
       style="fill:none;stroke:#000000;stroke-width:0.26458332px;stroke-linecap:butt;stroke-linejoin:miter;stroke-opacity:1"
       d="m 35.721131,129.60676 0.803198,-0.8032"
       id="path4552-1-7"
       inkscape:connector-curvature="0" />
    <text
       xml:space="preserve"
       style="font-style:normal;font-variant:normal;font-weight:normal;font-stretch:normal;font-size:5.29166651px;line-height:1.25;font-family:sans-serif;-inkscape-font-specification:'sans-serif, Normal';font-variant-ligatures:normal;font-variant-caps:normal;font-variant-numeric:normal;font-feature-settings:normal;text-align:start;letter-spacing:0px;word-spacing:0px;writing-mode:lr-tb;text-anchor:start;fill:#000000;fill-opacity:1;stroke:none;stroke-width:0.26458332"
       x="50.516796"
       y="127.76411"
       id="text4589-9"><tspan
         sodipodi:role="line"
         id="tspan4587-5"
         x="50.516796"
         y="127.76411"
         style="font-style:normal;font-variant:normal;font-weight:normal;font-stretch:normal;font-size:5.29166651px;font-family:sans-serif;-inkscape-font-specification:'sans-serif, Normal';font-variant-ligatures:normal;font-variant-caps:normal;font-variant-numeric:normal;font-feature-settings:normal;text-align:start;writing-mode:lr-tb;text-anchor:start;stroke-width:0.26458332">$s_1$</tspan></text>
    <path
       style="fill:none;stroke:#000000;stroke-width:0.26458332px;stroke-linecap:butt;stroke-linejoin:miter;stroke-opacity:1"
       d="m 69.453124,128.80356 0.803198,-0.8032"
       id="path4552-19-7-2"
       inkscape:connector-curvature="0" />
    <path
       style="fill:none;stroke:#000000;stroke-width:0.26458332px;stroke-linecap:butt;stroke-linejoin:miter;stroke-opacity:1"
       d="m 68.649926,129.60676 0.803198,-0.8032"
       id="path4552-1-4-3-1"
       inkscape:connector-curvature="0" />
    <path
       style="fill:none;stroke:#000000;stroke-width:0.2;stroke-linecap:butt;stroke-linejoin:miter;stroke-opacity:1;stroke-miterlimit:4;stroke-dasharray:0.8,0.8;stroke-dashoffset:0"
       d="M 69.453124,173.39877 V 137.54413"
       id="path14796"
       inkscape:connector-curvature="0" />
    <path
       style="fill:none;stroke:#000000;stroke-width:0.2;stroke-linecap:butt;stroke-linejoin:miter;stroke-opacity:1;stroke-miterlimit:4;stroke-dasharray:0.8,0.8;stroke-dashoffset:0"
       d="M 69.453124,156.6835 H 85.433759"
       id="path14798"
       inkscape:connector-curvature="0" />
    <path
       style="fill:none;stroke:#000000;stroke-width:0.2;stroke-linecap:butt;stroke-linejoin:miter;stroke-opacity:1;stroke-miterlimit:4;stroke-dasharray:0.8,0.8;stroke-dashoffset:0"
       d="M 69.453124,137.54413 36.615925,137.30646"
       id="path14800"
       inkscape:connector-curvature="0" />
    <path
       style="fill:none;stroke:#000000;stroke-width:0.26499999;stroke-linecap:butt;stroke-linejoin:miter;stroke-miterlimit:4;stroke-dasharray:none;stroke-opacity:1"
       d="m 82.452583,142.00848 v -8.73133"
       id="path5234-8"
       inkscape:connector-curvature="0" />
    <path
       style="fill:none;stroke:#000000;stroke-width:0.26458332px;stroke-linecap:butt;stroke-linejoin:miter;stroke-opacity:1"
       d="m 82.452583,142.00848 0.91896,0.66766"
       id="path4552-19-8-6"
       inkscape:connector-curvature="0" />
    <path
       style="fill:none;stroke:#000000;stroke-width:0.26458332px;stroke-linecap:butt;stroke-linejoin:miter;stroke-opacity:1"
       d="m 81.533623,141.34082 0.91896,0.66766"
       id="path4552-1-4-2-62"
       inkscape:connector-curvature="0" />
    <path
       style="fill:none;stroke:#000000;stroke-width:0.26458332px;stroke-linecap:butt;stroke-linejoin:miter;stroke-opacity:1"
       d="m 82.452583,133.27715 0.91896,0.66766"
       id="path4552-19-8-9-7"
       inkscape:connector-curvature="0" />
    <path
       style="fill:none;stroke:#000000;stroke-width:0.26458332px;stroke-linecap:butt;stroke-linejoin:miter;stroke-opacity:1"
       d="m 81.533623,132.60949 0.91896,0.66766"
       id="path4552-1-4-2-6-6"
       inkscape:connector-curvature="0" />
    <text
       xml:space="preserve"
       style="font-style:normal;font-variant:normal;font-weight:normal;font-stretch:normal;font-size:5.29166651px;line-height:1.25;font-family:sans-serif;-inkscape-font-specification:'sans-serif, Normal';font-variant-ligatures:normal;font-variant-caps:normal;font-variant-numeric:normal;font-feature-settings:normal;text-align:start;letter-spacing:0px;word-spacing:0px;writing-mode:lr-tb;text-anchor:start;fill:#000000;fill-opacity:1;stroke:none;stroke-width:0.26458332"
       x="-139.08136"
       y="80.474953"
       id="text4589-6-3-8-6"
       transform="rotate(-90)"><tspan
         sodipodi:role="line"
         id="tspan4587-1-1-2-5"
         x="-139.08136"
         y="80.474953"
         style="font-style:normal;font-variant:normal;font-weight:normal;font-stretch:normal;font-size:5.29166651px;font-family:sans-serif;-inkscape-font-specification:'sans-serif, Normal';font-variant-ligatures:normal;font-variant-caps:normal;font-variant-numeric:normal;font-feature-settings:normal;text-align:start;writing-mode:lr-tb;text-anchor:start;stroke-width:0.26458332">$t_1$</tspan></text>
    <path
       style="fill:none;stroke:#000000;stroke-width:0.26499999;stroke-linecap:butt;stroke-linejoin:miter;stroke-miterlimit:4;stroke-dasharray:none;stroke-opacity:1"
       d="m 92.018957,161.1728 v -8.73133"
       id="path5234-8-1"
       inkscape:connector-curvature="0" />
    <path
       style="fill:none;stroke:#000000;stroke-width:0.26458332px;stroke-linecap:butt;stroke-linejoin:miter;stroke-opacity:1"
       d="m 92.018957,161.1728 0.91896,0.66766"
       id="path4552-19-8-6-2"
       inkscape:connector-curvature="0" />
    <path
       style="fill:none;stroke:#000000;stroke-width:0.26458332px;stroke-linecap:butt;stroke-linejoin:miter;stroke-opacity:1"
       d="m 91.099997,160.50514 0.91896,0.66766"
       id="path4552-1-4-2-62-4"
       inkscape:connector-curvature="0" />
    <path
       style="fill:none;stroke:#000000;stroke-width:0.26458332px;stroke-linecap:butt;stroke-linejoin:miter;stroke-opacity:1"
       d="m 92.018957,152.44147 0.91896,0.66766"
       id="path4552-19-8-9-7-5"
       inkscape:connector-curvature="0" />
    <path
       style="fill:none;stroke:#000000;stroke-width:0.26458332px;stroke-linecap:butt;stroke-linejoin:miter;stroke-opacity:1"
       d="m 91.099997,151.77381 0.91896,0.66766"
       id="path4552-1-4-2-6-6-7"
       inkscape:connector-curvature="0" />
    <text
       xml:space="preserve"
       style="font-style:normal;font-variant:normal;font-weight:normal;font-stretch:normal;font-size:5.29166651px;line-height:1.25;font-family:sans-serif;-inkscape-font-specification:'sans-serif, Normal';font-variant-ligatures:normal;font-variant-caps:normal;font-variant-numeric:normal;font-feature-settings:normal;text-align:start;letter-spacing:0px;word-spacing:0px;writing-mode:lr-tb;text-anchor:start;fill:#000000;fill-opacity:1;stroke:none;stroke-width:0.26458332"
       x="-158.24568"
       y="90.041328"
       id="text4589-6-3-8-6-0"
       transform="rotate(-90)"><tspan
         sodipodi:role="line"
         id="tspan4587-1-1-2-5-5"
         x="-158.24568"
         y="90.041328"
         style="font-style:normal;font-variant:normal;font-weight:normal;font-stretch:normal;font-size:5.29166651px;font-family:sans-serif;-inkscape-font-specification:'sans-serif, Normal';font-variant-ligatures:normal;font-variant-caps:normal;font-variant-numeric:normal;font-feature-settings:normal;text-align:start;writing-mode:lr-tb;text-anchor:start;stroke-width:0.26458332">$t_3$</tspan></text>
    <path
       style="fill:none;stroke:#000000;stroke-width:0.24595001;stroke-linecap:butt;stroke-linejoin:miter;stroke-miterlimit:4;stroke-dasharray:none;stroke-opacity:1"
       d="m 42.724733,176.72006 v -6.60773"
       id="path5234-8-1-4"
       inkscape:connector-curvature="0" />
    <path
       style="fill:none;stroke:#000000;stroke-width:0.26458332px;stroke-linecap:butt;stroke-linejoin:miter;stroke-opacity:1"
       d="m 42.724733,176.72006 0.91896,0.66766"
       id="path4552-19-8-6-2-9"
       inkscape:connector-curvature="0" />
    <path
       style="fill:none;stroke:#000000;stroke-width:0.26458332px;stroke-linecap:butt;stroke-linejoin:miter;stroke-opacity:1"
       d="m 41.805773,176.0524 0.91896,0.66766"
       id="path4552-1-4-2-62-4-3"
       inkscape:connector-curvature="0" />
    <path
       style="fill:none;stroke:#000000;stroke-width:0.26458332px;stroke-linecap:butt;stroke-linejoin:miter;stroke-opacity:1"
       d="m 42.724733,170.11233 0.91896,0.66766"
       id="path4552-19-8-9-7-5-7"
       inkscape:connector-curvature="0" />
    <path
       style="fill:none;stroke:#000000;stroke-width:0.26458332px;stroke-linecap:butt;stroke-linejoin:miter;stroke-opacity:1"
       d="m 41.805773,169.44467 0.91896,0.66766"
       id="path4552-1-4-2-6-6-7-2"
       inkscape:connector-curvature="0" />
    <text
       xml:space="preserve"
       style="font-style:normal;font-variant:normal;font-weight:normal;font-stretch:normal;font-size:5.29166651px;line-height:1.25;font-family:sans-serif;-inkscape-font-specification:'sans-serif, Normal';font-variant-ligatures:normal;font-variant-caps:normal;font-variant-numeric:normal;font-feature-settings:normal;text-align:start;letter-spacing:0px;word-spacing:0px;writing-mode:lr-tb;text-anchor:start;fill:#000000;fill-opacity:1;stroke:none;stroke-width:0.26458332"
       x="-175.54109"
       y="40.747108"
       id="text4589-6-3-8-6-0-9"
       transform="rotate(-90)"><tspan
         sodipodi:role="line"
         id="tspan4587-1-1-2-5-5-4"
         x="-175.54109"
         y="40.747108"
         style="font-style:normal;font-variant:normal;font-weight:normal;font-stretch:normal;font-size:5.29166651px;font-family:sans-serif;-inkscape-font-specification:'sans-serif, Normal';font-variant-ligatures:normal;font-variant-caps:normal;font-variant-numeric:normal;font-feature-settings:normal;text-align:start;writing-mode:lr-tb;text-anchor:start;stroke-width:0.26458332">$t_4$</tspan></text>
    <path
       style="fill:none;stroke:#000000;stroke-width:0.26458332px;stroke-linecap:butt;stroke-linejoin:miter;stroke-opacity:1"
       d="m 77.613595,150.61037 -0.91251,-0.55917 0.045,-0.0739"
       id="path12268-3-0"
       inkscape:connector-curvature="0" />
    <path
       style="fill:none;stroke:#000000;stroke-width:0.26458332px;stroke-linecap:butt;stroke-linejoin:miter;stroke-opacity:1"
       d="m 77.641605,149.54053 -0.94052,0.51068 0.0414,0.0758"
       id="path12268-4-9-3"
       inkscape:connector-curvature="0" />
    <path
       style="fill:none;stroke:#000000;stroke-width:0.26458332px;stroke-linecap:butt;stroke-linejoin:miter;stroke-opacity:1"
       d="m 76.701085,150.0512 3.31614,0.0868"
       id="path12285-0-16"
       inkscape:connector-curvature="0" />
    <text
       xml:space="preserve"
       style="font-style:normal;font-variant:normal;font-weight:normal;font-stretch:normal;font-size:1.76388884px;line-height:1.25;font-family:sans-serif;-inkscape-font-specification:'sans-serif, Normal';font-variant-ligatures:normal;font-variant-caps:normal;font-variant-numeric:normal;font-feature-settings:normal;text-align:start;letter-spacing:0px;word-spacing:0px;writing-mode:lr-tb;text-anchor:start;fill:#000000;fill-opacity:1;stroke:none;stroke-width:0.26458332"
       x="57.863888"
       y="149.06998"
       id="text4589-8-6"><tspan
         sodipodi:role="line"
         id="tspan4587-2-5"
         x="57.863888"
         y="149.06998"
         style="font-style:normal;font-variant:normal;font-weight:normal;font-stretch:normal;font-size:1.76388884px;font-family:sans-serif;-inkscape-font-specification:'sans-serif, Normal';font-variant-ligatures:normal;font-variant-caps:normal;font-variant-numeric:normal;font-feature-settings:normal;text-align:start;writing-mode:lr-tb;text-anchor:start;stroke-width:0.26458332">$t_2$</tspan></text>
    <path
       style="fill:none;stroke:#000000;stroke-width:0.26458332px;stroke-linecap:butt;stroke-linejoin:miter;stroke-opacity:1"
       d="m 61.36122,150.61037 0.91251,-0.55917 -0.045,-0.0739"
       id="path12268-3-0-1"
       inkscape:connector-curvature="0" />
    <path
       style="fill:none;stroke:#000000;stroke-width:0.26458332px;stroke-linecap:butt;stroke-linejoin:miter;stroke-opacity:1"
       d="m 61.33321,149.54053 0.94052,0.51068 -0.0414,0.0758"
       id="path12268-4-9-3-2"
       inkscape:connector-curvature="0" />
    <path
       style="fill:none;stroke:#000000;stroke-width:0.26458332px;stroke-linecap:butt;stroke-linejoin:miter;stroke-opacity:1"
       d="m 62.27373,150.0512 -3.31614,0.0868"
       id="path12285-0-16-8"
       inkscape:connector-curvature="0" />
    <path
       style="opacity:0.8;fill:#000000;fill-opacity:0.22767855;stroke:#000000;stroke-width:1.00157481;stroke-miterlimit:4;stroke-dasharray:0,11.01732297;stroke-dashoffset:10.01574816;stroke-opacity:1"
       d="m 179.13415,655.49682 v -11.61675 h 28.53681 28.5368 v -39.93423 c 0,-26.83368 0.17336,-40.25815 0.52844,-40.92162 0.29064,-0.54306 0.34746,-1.26679 0.12626,-1.6083 -0.51782,-0.79948 -0.49281,-0.20085 -0.57991,-13.87915 l -0.0748,-11.74303 H 187.4679 138.72804 v -8.08122 -8.08122 h 1.51523 c 1.01016,0 1.51523,-0.25254 1.51523,-0.75761 0,-0.50508 -0.50507,-0.75762 -1.51523,-0.75762 h -1.51523 v -7.40491 -7.40491 l 14.47685,0.33384 c 7.96226,0.18362 41.71247,0.33385 75.00046,0.33385 h 60.52361 l 0.12964,35.98668 0.12964,35.98669 16.54124,0.13317 16.54125,0.13317 v 16.15553 16.15555 h -16.88309 -16.88309 l 0.29534,29.29442 0.29534,29.29442 h -54.88054 -54.88054 z m 5.05076,0 c 0,-0.27779 -0.7955,-0.50508 -1.76777,-0.50508 -0.97227,0 -1.76777,0.22729 -1.76777,0.50508 0,0.27779 0.7955,0.50508 1.76777,0.50508 0.97227,0 1.76777,-0.22729 1.76777,-0.50508 z m 6.06091,0 c 0,-0.27779 -0.79549,-0.50508 -1.76776,-0.50508 -0.97227,0 -1.76777,0.22729 -1.76777,0.50508 0,0.27779 0.7955,0.50508 1.76777,0.50508 0.97227,0 1.76776,-0.22729 1.76776,-0.50508 z m 6.06092,0 c 0,-0.27779 -0.7955,-0.50508 -1.76777,-0.50508 -0.97227,0 -1.76776,0.22729 -1.76776,0.50508 0,0.27779 0.79549,0.50508 1.76776,0.50508 0.97227,0 1.76777,-0.22729 1.76777,-0.50508 z m 6.06091,0 c 0,-0.27779 -0.79549,-0.50508 -1.76776,-0.50508 -0.97227,0 -1.76777,0.22729 -1.76777,0.50508 0,0.27779 0.7955,0.50508 1.76777,0.50508 0.97227,0 1.76776,-0.22729 1.76776,-0.50508 z m 6.06092,0 c 0,-0.27779 -0.7955,-0.50508 -1.76777,-0.50508 -0.97227,0 -1.76776,0.22729 -1.76776,0.50508 0,0.27779 0.79549,0.50508 1.76776,0.50508 0.97227,0 1.76777,-0.22729 1.76777,-0.50508 z m 6.06092,0 c 0,-0.27779 -0.7955,-0.50508 -1.76777,-0.50508 -0.97227,0 -1.76777,0.22729 -1.76777,0.50508 0,0.27779 0.7955,0.50508 1.76777,0.50508 0.97227,0 1.76777,-0.22729 1.76777,-0.50508 z m 6.06091,0 c 0,-0.27779 -0.79549,-0.50508 -1.76777,-0.50508 -0.97227,0 -1.76776,0.22729 -1.76776,0.50508 0,0.27779 0.79549,0.50508 1.76776,0.50508 0.97228,0 1.76777,-0.22729 1.76777,-0.50508 z m 6.06092,0 c 0,-0.27779 -0.7955,-0.50508 -1.76777,-0.50508 -0.97227,0 -1.76777,0.22729 -1.76777,0.50508 0,0.27779 0.7955,0.50508 1.76777,0.50508 0.97227,0 1.76777,-0.22729 1.76777,-0.50508 z m 6.06091,0 c 0,-0.27779 -0.79549,-0.50508 -1.76777,-0.50508 -0.97227,0 -1.76776,0.22729 -1.76776,0.50508 0,0.27779 0.79549,0.50508 1.76776,0.50508 0.97228,0 1.76777,-0.22729 1.76777,-0.50508 z m 6.06092,0 c 0,-0.27779 -0.7955,-0.50508 -1.76777,-0.50508 -0.97227,0 -1.76777,0.22729 -1.76777,0.50508 0,0.27779 0.7955,0.50508 1.76777,0.50508 0.97227,0 1.76777,-0.22729 1.76777,-0.50508 z m 6.06091,0 c 0,-0.27779 -0.79549,-0.50508 -1.76777,-0.50508 -0.97227,0 -1.76776,0.22729 -1.76776,0.50508 0,0.27779 0.79549,0.50508 1.76776,0.50508 0.97228,0 1.76777,-0.22729 1.76777,-0.50508 z m 6.06092,0 c 0,-0.27779 -0.7955,-0.50508 -1.76777,-0.50508 -0.97227,0 -1.76777,0.22729 -1.76777,0.50508 0,0.27779 0.7955,0.50508 1.76777,0.50508 0.97227,0 1.76777,-0.22729 1.76777,-0.50508 z m 6.06091,0 c 0,-0.27779 -0.79549,-0.50508 -1.76777,-0.50508 -0.97227,0 -1.76776,0.22729 -1.76776,0.50508 0,0.27779 0.79549,0.50508 1.76776,0.50508 0.97228,0 1.76777,-0.22729 1.76777,-0.50508 z m 5.96514,-1.6415 c 0.0907,-1.09641 -0.0688,-1.89403 -0.37881,-1.89403 -0.29456,0 -0.53557,0.68185 -0.53557,1.51522 0,1.27953 -0.19641,1.51523 -1.26269,1.51523 -0.69448,0 -1.26269,0.24169 -1.26269,0.53708 0,0.30168 0.71945,0.46771 1.6415,0.37881 1.49861,-0.14449 1.65515,-0.32314 1.79826,-2.05231 z m 0.0958,-6.18718 c 0,-0.97227 -0.22729,-1.76777 -0.50508,-1.76777 -0.27779,0 -0.50508,0.7955 -0.50508,1.76777 0,0.97227 0.22729,1.76776 0.50508,1.76776 0.27779,0 0.50508,-0.79549 0.50508,-1.76776 z m 0,-6.06092 c 0,-0.97227 -0.22729,-1.76776 -0.50508,-1.76776 -0.27779,0 -0.50508,0.79549 -0.50508,1.76776 0,0.97227 0.22729,1.76777 0.50508,1.76777 0.27779,0 0.50508,-0.7955 0.50508,-1.76777 z m 0,-6.06091 c 0,-0.97228 -0.22729,-1.76777 -0.50508,-1.76777 -0.27779,0 -0.50508,0.79549 -0.50508,1.76777 0,0.97227 0.22729,1.76776 0.50508,1.76776 0.27779,0 0.50508,-0.79549 0.50508,-1.76776 z m 0,-6.06092 c 0,-0.97227 -0.22729,-1.76777 -0.50508,-1.76777 -0.27779,0 -0.50508,0.7955 -0.50508,1.76777 0,0.97227 0.22729,1.76777 0.50508,1.76777 0.27779,0 0.50508,-0.7955 0.50508,-1.76777 z m 0,-6.06091 c 0,-0.97228 -0.22729,-1.76777 -0.50508,-1.76777 -0.27779,0 -0.50508,0.79549 -0.50508,1.76777 0,0.97227 0.22729,1.76776 0.50508,1.76776 0.27779,0 0.50508,-0.79549 0.50508,-1.76776 z m 0,-6.06092 c 0,-0.97227 -0.22729,-1.76777 -0.50508,-1.76777 -0.27779,0 -0.50508,0.7955 -0.50508,1.76777 0,0.97227 0.22729,1.76777 0.50508,1.76777 0.27779,0 0.50508,-0.7955 0.50508,-1.76777 z m 0,-6.06091 c 0,-0.97228 -0.22729,-1.76777 -0.50508,-1.76777 -0.27779,0 -0.50508,0.79549 -0.50508,1.76777 0,0.97227 0.22729,1.76776 0.50508,1.76776 0.27779,0 0.50508,-0.79549 0.50508,-1.76776 z m 0,-5.80838 c 0,-0.83338 -0.22729,-1.51523 -0.50508,-1.51523 -0.27779,0 -0.50508,0.68185 -0.50508,1.51523 0,0.83337 0.22729,1.51523 0.50508,1.51523 0.27779,0 0.50508,-0.68186 0.50508,-1.51523 z m 0,-6.06092 c 0,-0.83337 -0.22729,-1.51523 -0.50508,-1.51523 -0.27779,0 -0.50508,0.68186 -0.50508,1.51523 0,0.83338 0.22729,1.51523 0.50508,1.51523 0.27779,0 0.50508,-0.68185 0.50508,-1.51523 z m 0,-5.52229 c 0,-0.66609 0.40646,-1.02741 1.27839,-1.13642 1.85569,-0.23199 1.53941,-1.16997 -0.39451,-1.16997 -1.48276,0 -1.6568,0.15874 -1.79977,1.6415 -0.0889,0.92205 0.0771,1.6415 0.37881,1.6415 0.29539,0 0.53708,-0.43948 0.53708,-0.97661 z m 8.58629,-1.80131 c 0,-0.50508 -0.50507,-0.75762 -1.51523,-0.75762 -1.01015,0 -1.51522,0.25254 -1.51522,0.75762 0,0.50507 0.50507,0.75761 1.51522,0.75761 1.01016,0 1.51523,-0.25254 1.51523,-0.75761 z m 6.06092,0 c 0,-0.50508 -0.50508,-0.75762 -1.51523,-0.75762 -1.01015,0 -1.51523,0.25254 -1.51523,0.75762 0,0.50507 0.50508,0.75761 1.51523,0.75761 1.01015,0 1.51523,-0.25254 1.51523,-0.75761 z m 6.06091,0 c 0,-0.50508 -0.50507,-0.75762 -1.51522,-0.75762 -1.01016,0 -1.51523,0.25254 -1.51523,0.75762 0,0.50507 0.50507,0.75761 1.51523,0.75761 1.01015,0 1.51522,-0.25254 1.51522,-0.75761 z m 6.06092,0 c 0,-0.82501 -2.75917,-1.10011 -3.23946,-0.32299 -0.42056,0.68049 0.24903,1.0806 1.80841,1.0806 0.93533,0 1.43105,-0.26244 1.43105,-0.75761 z m 6.06091,0 c 0,-0.82501 -2.75916,-1.10011 -3.23945,-0.32299 -0.42057,0.68049 0.24903,1.0806 1.80841,1.0806 0.93532,0 1.43104,-0.26244 1.43104,-0.75761 z m 6.06092,-0.032 c 0,-0.58346 -0.41843,-0.7483 -1.6026,-0.63135 -2.31544,0.22869 -2.48935,1.42098 -0.20725,1.42098 1.30464,0 1.80985,-0.22041 1.80985,-0.78961 z m 6.06092,0 c 0,-0.58346 -0.41843,-0.7483 -1.60261,-0.63135 -2.31544,0.22869 -2.48934,1.42098 -0.20725,1.42098 1.30464,0 1.80986,-0.22041 1.80986,-0.78961 z m 6.06091,0 c 0,-0.58346 -0.41842,-0.7483 -1.6026,-0.63135 -2.31544,0.22869 -2.48935,1.42098 -0.20725,1.42098 1.30464,0 1.80985,-0.22041 1.80985,-0.78961 z m 6.06092,0 c 0,-0.58346 -0.41843,-0.7483 -1.60261,-0.63135 -2.31544,0.22869 -2.48934,1.42098 -0.20725,1.42098 1.30464,0 1.80986,-0.22041 1.80986,-0.78961 z m -57.07362,-4.76621 c 0,-0.83337 -0.22729,-1.51523 -0.50508,-1.51523 -0.27779,0 -0.50508,0.68186 -0.50508,1.51523 0,0.83338 0.22729,1.51523 0.50508,1.51523 0.27779,0 0.50508,-0.68185 0.50508,-1.51523 z m 0,-5.80837 c 0,-0.97228 -0.22729,-1.76777 -0.50508,-1.76777 -0.27779,0 -0.50508,0.79549 -0.50508,1.76777 0,0.97227 0.22729,1.76776 0.50508,1.76776 0.27779,0 0.50508,-0.79549 0.50508,-1.76776 z m 0,-6.06092 c 0,-0.97227 -0.22729,-1.76777 -0.50508,-1.76777 -0.27779,0 -0.50508,0.7955 -0.50508,1.76777 0,0.97227 0.22729,1.76777 0.50508,1.76777 0.27779,0 0.50508,-0.7955 0.50508,-1.76777 z m 0,-6.06091 c 0,-0.97228 -0.22729,-1.76777 -0.50508,-1.76777 -0.27779,0 -0.50508,0.79549 -0.50508,1.76777 0,0.97227 0.22729,1.76776 0.50508,1.76776 0.27779,0 0.50508,-0.79549 0.50508,-1.76776 z m 0,-6.06092 c 0,-0.97227 -0.22729,-1.76777 -0.50508,-1.76777 -0.27779,0 -0.50508,0.7955 -0.50508,1.76777 0,0.97227 0.22729,1.76777 0.50508,1.76777 0.27779,0 0.50508,-0.7955 0.50508,-1.76777 z m 0,-6.06092 c 0,-0.97227 -0.22729,-1.76776 -0.50508,-1.76776 -0.27779,0 -0.50508,0.79549 -0.50508,1.76776 0,0.97228 0.22729,1.76777 0.50508,1.76777 0.27779,0 0.50508,-0.79549 0.50508,-1.76777 z m 0,-6.06091 c 0,-0.97227 -0.22729,-1.76777 -0.50508,-1.76777 -0.27779,0 -0.50508,0.7955 -0.50508,1.76777 0,0.97227 0.22729,1.76777 0.50508,1.76777 0.27779,0 0.50508,-0.7955 0.50508,-1.76777 z m 0,-6.06092 c 0,-0.97227 -0.22729,-1.76776 -0.50508,-1.76776 -0.27779,0 -0.50508,0.79549 -0.50508,1.76776 0,0.97228 0.22729,1.76777 0.50508,1.76777 0.27779,0 0.50508,-0.79549 0.50508,-1.76777 z m 0,-6.06091 c 0,-0.97227 -0.22729,-1.76777 -0.50508,-1.76777 -0.27779,0 -0.50508,0.7955 -0.50508,1.76777 0,0.97227 0.22729,1.76777 0.50508,1.76777 0.27779,0 0.50508,-0.7955 0.50508,-1.76777 z m 0,-6.06092 c 0,-0.97227 -0.22729,-1.76776 -0.50508,-1.76776 -0.27779,0 -0.50508,0.79549 -0.50508,1.76776 0,0.97228 0.22729,1.76777 0.50508,1.76777 0.27779,0 0.50508,-0.79549 0.50508,-1.76777 z m 0,-6.06091 c 0,-0.97227 -0.22729,-1.76777 -0.50508,-1.76777 -0.27779,0 -0.50508,0.7955 -0.50508,1.76777 0,0.97227 0.22729,1.76777 0.50508,1.76777 0.27779,0 0.50508,-0.7955 0.50508,-1.76777 z m -0.0943,-5.93465 c -0.13917,-1.44337 -0.3564,-1.6606 -1.79977,-1.79977 -1.21945,-0.11757 -1.6415,0.0447 -1.6415,0.63135 0,0.50554 0.45427,0.78961 1.26269,0.78961 0.92598,0 1.26269,0.26938 1.26269,1.01016 0,0.55558 0.24169,1.01015 0.53708,1.01015 0.30168,0 0.46771,-0.71945 0.37881,-1.6415 z m -6.21919,-1.13642 c 0,-0.27779 -0.73867,-0.5763 -1.64149,-0.66335 -1.24409,-0.11995 -1.6415,0.0406 -1.6415,0.66335 0,0.6227 0.39741,0.7833 1.6415,0.66335 0.90282,-0.087 1.64149,-0.38556 1.64149,-0.66335 z m -72.60447,-0.63134 c 0.14208,-0.42673 -0.37637,-0.63135 -1.59965,-0.63135 -1.87593,0 -2.47489,0.75832 -0.92597,1.17234 1.34799,0.36031 2.29291,0.1579 2.52562,-0.54099 z m 6.18694,0.12626 c 0,-0.52912 -0.53313,-0.75761 -1.76776,-0.75761 -1.23463,0 -1.76777,0.22849 -1.76777,0.75761 0,0.52913 0.53314,0.75762 1.76777,0.75762 1.23463,0 1.76776,-0.22849 1.76776,-0.75762 z m 6.06092,0 c 0,-0.52912 -0.53314,-0.75761 -1.76777,-0.75761 -1.23463,0 -1.76776,0.22849 -1.76776,0.75761 0,0.52913 0.53313,0.75762 1.76776,0.75762 1.23463,0 1.76777,-0.22849 1.76777,-0.75762 z m 6.06091,0 c 0,-0.52912 -0.53313,-0.75761 -1.76776,-0.75761 -1.23463,0 -1.76777,0.22849 -1.76777,0.75761 0,0.52913 0.53314,0.75762 1.76777,0.75762 1.23463,0 1.76776,-0.22849 1.76776,-0.75762 z m 5.93784,0.12627 c -0.32353,-0.98555 -3.41245,-1.12882 -3.41245,-0.15827 0,0.5692 0.50521,0.78962 1.80985,0.78962 1.2217,0 1.74251,-0.20517 1.6026,-0.63135 z m 6.184,0.12627 c 0,-0.27779 -0.28411,-0.50818 -0.63135,-0.51197 -0.34724,-0.004 -1.14274,-0.14394 -1.76777,-0.31145 -0.83546,-0.22389 -1.13642,-0.0883 -1.13642,0.51198 0,0.59645 0.47645,0.81652 1.76777,0.81652 0.97227,0 1.76777,-0.22729 1.76777,-0.50508 z m 6.06091,0 c 0,-0.27779 -0.79549,-0.50507 -1.76777,-0.50507 -0.97227,0 -1.76776,0.22728 -1.76776,0.50507 0,0.27779 0.79549,0.50508 1.76776,0.50508 0.97228,0 1.76777,-0.22729 1.76777,-0.50508 z m 6.06092,0 c 0,-0.27779 -0.7955,-0.50507 -1.76777,-0.50507 -0.97227,0 -1.76777,0.22728 -1.76777,0.50507 0,0.27779 0.7955,0.50508 1.76777,0.50508 0.97227,0 1.76777,-0.22729 1.76777,-0.50508 z m 6.06091,0 c 0,-0.27779 -0.79549,-0.50507 -1.76777,-0.50507 -0.97227,0 -1.76776,0.22728 -1.76776,0.50507 0,0.27779 0.79549,0.50508 1.76776,0.50508 0.97228,0 1.76777,-0.22729 1.76777,-0.50508 z m 6.06092,0 c 0,-0.27779 -0.7955,-0.50507 -1.76777,-0.50507 -0.97227,0 -1.76777,0.22728 -1.76777,0.50507 0,0.27779 0.7955,0.50508 1.76777,0.50508 0.97227,0 1.76777,-0.22729 1.76777,-0.50508 z m 6.06091,0 c 0,-0.27779 -0.79549,-0.50507 -1.76777,-0.50507 -0.97227,0 -1.76776,0.22728 -1.76776,0.50507 0,0.27779 0.79549,0.50508 1.76776,0.50508 0.97228,0 1.76777,-0.22729 1.76777,-0.50508 z m 6.06092,0 c 0,-0.27779 -0.7955,-0.50507 -1.76777,-0.50507 -0.97227,0 -1.76777,0.22728 -1.76777,0.50507 0,0.27779 0.7955,0.50508 1.76777,0.50508 0.97227,0 1.76777,-0.22729 1.76777,-0.50508 z m -103.03556,-0.50507 c 0,-0.2778 -0.7955,-0.50508 -1.76777,-0.50508 -0.97227,0 -1.76777,0.22728 -1.76777,0.50508 0,0.27779 0.7955,0.50507 1.76777,0.50507 0.97227,0 1.76777,-0.22728 1.76777,-0.50507 z m 6.06091,0 c 0,-0.2778 -0.79549,-0.50508 -1.76776,-0.50508 -0.97228,0 -1.76777,0.22728 -1.76777,0.50508 0,0.27779 0.79549,0.50507 1.76777,0.50507 0.97227,0 1.76776,-0.22728 1.76776,-0.50507 z m 6.06092,0 c 0,-0.2778 -0.7955,-0.50508 -1.76777,-0.50508 -0.97227,0 -1.76777,0.22728 -1.76777,0.50508 0,0.27779 0.7955,0.50507 1.76777,0.50507 0.97227,0 1.76777,-0.22728 1.76777,-0.50507 z m 6.06091,0 c 0,-0.2778 -0.79549,-0.50508 -1.76776,-0.50508 -0.97228,0 -1.76777,0.22728 -1.76777,0.50508 0,0.27779 0.79549,0.50507 1.76777,0.50507 0.97227,0 1.76776,-0.22728 1.76776,-0.50507 z m 6.06092,0 c 0,-0.2778 -0.7955,-0.50508 -1.76777,-0.50508 -0.97227,0 -1.76777,0.22728 -1.76777,0.50508 0,0.27779 0.7955,0.50507 1.76777,0.50507 0.97227,0 1.76777,-0.22728 1.76777,-0.50507 z m 6.06091,0 c 0,-0.2778 -0.79549,-0.50508 -1.76776,-0.50508 -0.97228,0 -1.76777,0.22728 -1.76777,0.50508 0,0.27779 0.79549,0.50507 1.76777,0.50507 0.97227,0 1.76776,-0.22728 1.76776,-0.50507 z"
       id="path3872"
       inkscape:connector-curvature="0"
       transform="scale(0.26458333)" />
  </g>
</svg>
