<?xml version="1.0" encoding="UTF-8" standalone="no"?>
<!-- Created with Inkscape (http://www.inkscape.org/) -->

<svg
   width="210mm"
   height="297mm"
   viewBox="0 0 210 297"
   version="1.1"
   id="svg5"
   inkscape:version="1.1.1 (3bf5ae0d25, 2021-09-20)"
   sodipodi:docname="ej2Sol.svg"
   xmlns:inkscape="http://www.inkscape.org/namespaces/inkscape"
   xmlns:sodipodi="http://sodipodi.sourceforge.net/DTD/sodipodi-0.dtd"
   xmlns="http://www.w3.org/2000/svg"
   xmlns:svg="http://www.w3.org/2000/svg">
  <sodipodi:namedview
     id="namedview7"
     pagecolor="#ffffff"
     bordercolor="#666666"
     borderopacity="1.0"
     inkscape:pageshadow="2"
     inkscape:pageopacity="0.0"
     inkscape:pagecheckerboard="0"
     inkscape:document-units="mm"
     showgrid="false"
     inkscape:zoom="1.3826038"
     inkscape:cx="509.1842"
     inkscape:cy="498.33511"
     inkscape:window-width="1920"
     inkscape:window-height="1011"
     inkscape:window-x="0"
     inkscape:window-y="0"
     inkscape:window-maximized="1"
     inkscape:current-layer="layer1" />
  <defs
     id="defs2">
    <marker
       style="overflow:visible;"
       id="marker16738"
       refX="0.0"
       refY="0.0"
       orient="auto"
       inkscape:stockid="Arrow1Mend"
       inkscape:isstock="true">
      <path
         transform="scale(0.4) rotate(180) translate(10,0)"
         style="fill-rule:evenodd;fill:context-stroke;stroke:context-stroke;stroke-width:1.0pt;"
         d="M 0.0,0.0 L 5.0,-5.0 L -12.5,0.0 L 5.0,5.0 L 0.0,0.0 z "
         id="path16736" />
    </marker>
    <marker
       style="overflow:visible;"
       id="Arrow2Mend"
       refX="0.0"
       refY="0.0"
       orient="auto"
       inkscape:stockid="Arrow2Mend"
       inkscape:isstock="true">
      <path
         transform="scale(0.6) rotate(180) translate(0,0)"
         d="M 8.7185878,4.0337352 L -2.2072895,0.016013256 L 8.7185884,-4.0017078 C 6.9730900,-1.6296469 6.9831476,1.6157441 8.7185878,4.0337352 z "
         style="stroke:context-stroke;fill-rule:evenodd;fill:context-stroke;stroke-width:0.62500000;stroke-linejoin:round;"
         id="path7139" />
    </marker>
    <marker
       style="overflow:visible;"
       id="Arrow1Mend"
       refX="0.0"
       refY="0.0"
       orient="auto"
       inkscape:stockid="Arrow1Mend"
       inkscape:isstock="true">
      <path
         transform="scale(0.4) rotate(180) translate(10,0)"
         style="fill-rule:evenodd;fill:context-stroke;stroke:context-stroke;stroke-width:1.0pt;"
         d="M 0.0,0.0 L 5.0,-5.0 L -12.5,0.0 L 5.0,5.0 L 0.0,0.0 z "
         id="path7121" />
    </marker>
    <marker
       style="overflow:visible;"
       id="Arrow1Lend"
       refX="0.0"
       refY="0.0"
       orient="auto"
       inkscape:stockid="Arrow1Lend"
       inkscape:isstock="true">
      <path
         transform="scale(0.8) rotate(180) translate(12.5,0)"
         style="fill-rule:evenodd;fill:context-stroke;stroke:context-stroke;stroke-width:1.0pt;"
         d="M 0.0,0.0 L 5.0,-5.0 L -12.5,0.0 L 5.0,5.0 L 0.0,0.0 z "
         id="path2139" />
    </marker>
    <marker
       style="overflow:visible"
       id="Arrow1Lstart"
       refX="0.0"
       refY="0.0"
       orient="auto"
       inkscape:stockid="Arrow1Lstart"
       inkscape:isstock="true">
      <path
         transform="scale(0.8) translate(12.5,0)"
         style="fill-rule:evenodd;fill:context-stroke;stroke:context-stroke;stroke-width:1.0pt"
         d="M 0.0,0.0 L 5.0,-5.0 L -12.5,0.0 L 5.0,5.0 L 0.0,0.0 z "
         id="path2136" />
    </marker>
    <marker
       style="overflow:visible"
       id="Arrow1Lend-9"
       refX="0"
       refY="0"
       orient="auto"
       inkscape:stockid="Arrow1Lend"
       inkscape:isstock="true">
      <path
         transform="matrix(-0.8,0,0,-0.8,-10,0)"
         style="fill:context-stroke;fill-rule:evenodd;stroke:context-stroke;stroke-width:1pt"
         d="M 0,0 5,-5 -12.5,0 5,5 Z"
         id="path2139-1" />
    </marker>
    <marker
       style="overflow:visible"
       id="Arrow1Lend-0"
       refX="0"
       refY="0"
       orient="auto"
       inkscape:stockid="Arrow1Lend"
       inkscape:isstock="true">
      <path
         transform="matrix(-0.8,0,0,-0.8,-10,0)"
         style="fill:context-stroke;fill-rule:evenodd;stroke:context-stroke;stroke-width:1pt"
         d="M 0,0 5,-5 -12.5,0 5,5 Z"
         id="path2139-9" />
    </marker>
    <marker
       style="overflow:visible"
       id="Arrow1Lend-6"
       refX="0"
       refY="0"
       orient="auto"
       inkscape:stockid="Arrow1Lend"
       inkscape:isstock="true">
      <path
         transform="matrix(-0.8,0,0,-0.8,-10,0)"
         style="fill:context-stroke;fill-rule:evenodd;stroke:context-stroke;stroke-width:1pt"
         d="M 0,0 5,-5 -12.5,0 5,5 Z"
         id="path2139-0" />
    </marker>
    <marker
       style="overflow:visible"
       id="Arrow1Lend-2"
       refX="0"
       refY="0"
       orient="auto"
       inkscape:stockid="Arrow1Lend"
       inkscape:isstock="true">
      <path
         transform="matrix(-0.8,0,0,-0.8,-10,0)"
         style="fill:context-stroke;fill-rule:evenodd;stroke:context-stroke;stroke-width:1pt"
         d="M 0,0 5,-5 -12.5,0 5,5 Z"
         id="path2139-6" />
    </marker>
    <marker
       style="overflow:visible"
       id="Arrow1Lend-9-8"
       refX="0"
       refY="0"
       orient="auto"
       inkscape:stockid="Arrow1Lend"
       inkscape:isstock="true">
      <path
         transform="matrix(-0.8,0,0,-0.8,-10,0)"
         style="fill:context-stroke;fill-rule:evenodd;stroke:context-stroke;stroke-width:1pt"
         d="M 0,0 5,-5 -12.5,0 5,5 Z"
         id="path2139-1-7" />
    </marker>
    <marker
       style="overflow:visible"
       id="Arrow1Lend-9-8-2"
       refX="0"
       refY="0"
       orient="auto"
       inkscape:stockid="Arrow1Lend"
       inkscape:isstock="true">
      <path
         transform="matrix(-0.8,0,0,-0.8,-10,0)"
         style="fill:context-stroke;fill-rule:evenodd;stroke:context-stroke;stroke-width:1pt"
         d="M 0,0 5,-5 -12.5,0 5,5 Z"
         id="path2139-1-7-0" />
    </marker>
    <marker
       style="overflow:visible"
       id="Arrow1Lend-9-8-1"
       refX="0"
       refY="0"
       orient="auto"
       inkscape:stockid="Arrow1Lend"
       inkscape:isstock="true">
      <path
         transform="matrix(-0.8,0,0,-0.8,-10,0)"
         style="fill:context-stroke;fill-rule:evenodd;stroke:context-stroke;stroke-width:1pt"
         d="M 0,0 5,-5 -12.5,0 5,5 Z"
         id="path2139-1-7-2" />
    </marker>
    <marker
       style="overflow:visible"
       id="Arrow1Lend-9-8-1-3"
       refX="0"
       refY="0"
       orient="auto"
       inkscape:stockid="Arrow1Lend"
       inkscape:isstock="true">
      <path
         transform="matrix(-0.8,0,0,-0.8,-10,0)"
         style="fill:context-stroke;fill-rule:evenodd;stroke:context-stroke;stroke-width:1pt"
         d="M 0,0 5,-5 -12.5,0 5,5 Z"
         id="path2139-1-7-2-1" />
    </marker>
    <marker
       style="overflow:visible"
       id="Arrow1Lend-9-8-1-3-4"
       refX="0"
       refY="0"
       orient="auto"
       inkscape:stockid="Arrow1Lend"
       inkscape:isstock="true">
      <path
         transform="matrix(-0.8,0,0,-0.8,-10,0)"
         style="fill:context-stroke;fill-rule:evenodd;stroke:context-stroke;stroke-width:1pt"
         d="M 0,0 5,-5 -12.5,0 5,5 Z"
         id="path2139-1-7-2-1-7" />
    </marker>
    <marker
       style="overflow:visible"
       id="Arrow1Lend-9-8-1-3-7"
       refX="0"
       refY="0"
       orient="auto"
       inkscape:stockid="Arrow1Lend"
       inkscape:isstock="true">
      <path
         transform="matrix(-0.8,0,0,-0.8,-10,0)"
         style="fill:context-stroke;fill-rule:evenodd;stroke:context-stroke;stroke-width:1pt"
         d="M 0,0 5,-5 -12.5,0 5,5 Z"
         id="path2139-1-7-2-1-9" />
    </marker>
    <marker
       style="overflow:visible"
       id="Arrow1Lend-9-8-1-3-0"
       refX="0"
       refY="0"
       orient="auto"
       inkscape:stockid="Arrow1Lend"
       inkscape:isstock="true">
      <path
         transform="matrix(-0.8,0,0,-0.8,-10,0)"
         style="fill:context-stroke;fill-rule:evenodd;stroke:context-stroke;stroke-width:1pt"
         d="M 0,0 5,-5 -12.5,0 5,5 Z"
         id="path2139-1-7-2-1-2" />
    </marker>
    <marker
       style="overflow:visible"
       id="Arrow1Lend-9-8-1-3-75"
       refX="0"
       refY="0"
       orient="auto"
       inkscape:stockid="Arrow1Lend"
       inkscape:isstock="true">
      <path
         transform="matrix(-0.8,0,0,-0.8,-10,0)"
         style="fill:context-stroke;fill-rule:evenodd;stroke:context-stroke;stroke-width:1pt"
         d="M 0,0 5,-5 -12.5,0 5,5 Z"
         id="path2139-1-7-2-1-92" />
    </marker>
    <marker
       style="overflow:visible"
       id="Arrow1Lend-9-8-1-3-9"
       refX="0"
       refY="0"
       orient="auto"
       inkscape:stockid="Arrow1Lend"
       inkscape:isstock="true">
      <path
         transform="matrix(-0.8,0,0,-0.8,-10,0)"
         style="fill:context-stroke;fill-rule:evenodd;stroke:context-stroke;stroke-width:1pt"
         d="M 0,0 5,-5 -12.5,0 5,5 Z"
         id="path2139-1-7-2-1-73" />
    </marker>
    <marker
       style="overflow:visible"
       id="Arrow1Lend-9-8-1-3-1"
       refX="0"
       refY="0"
       orient="auto"
       inkscape:stockid="Arrow1Lend"
       inkscape:isstock="true">
      <path
         transform="matrix(-0.8,0,0,-0.8,-10,0)"
         style="fill:context-stroke;fill-rule:evenodd;stroke:context-stroke;stroke-width:1pt"
         d="M 0,0 5,-5 -12.5,0 5,5 Z"
         id="path2139-1-7-2-1-29" />
    </marker>
    <marker
       style="overflow:visible"
       id="Arrow1Lend-9-8-1-3-1-7"
       refX="0"
       refY="0"
       orient="auto"
       inkscape:stockid="Arrow1Lend"
       inkscape:isstock="true">
      <path
         transform="matrix(-0.8,0,0,-0.8,-10,0)"
         style="fill:context-stroke;fill-rule:evenodd;stroke:context-stroke;stroke-width:1pt"
         d="M 0,0 5,-5 -12.5,0 5,5 Z"
         id="path2139-1-7-2-1-29-8" />
    </marker>
    <marker
       style="overflow:visible"
       id="marker6894"
       refX="0"
       refY="0"
       orient="auto"
       inkscape:stockid="Arrow1Lend"
       inkscape:isstock="true">
      <path
         transform="matrix(-0.8,0,0,-0.8,-10,0)"
         style="fill:context-stroke;fill-rule:evenodd;stroke:context-stroke;stroke-width:1pt"
         d="M 0,0 5,-5 -12.5,0 5,5 Z"
         id="path6892" />
    </marker>
    <marker
       style="overflow:visible"
       id="Arrow1Lend-9-8-1-3-1-5"
       refX="0"
       refY="0"
       orient="auto"
       inkscape:stockid="Arrow1Lend"
       inkscape:isstock="true">
      <path
         transform="matrix(-0.8,0,0,-0.8,-10,0)"
         style="fill:context-stroke;fill-rule:evenodd;stroke:context-stroke;stroke-width:1pt"
         d="M 0,0 5,-5 -12.5,0 5,5 Z"
         id="path2139-1-7-2-1-29-0" />
    </marker>
    <marker
       style="overflow:visible"
       id="marker6970"
       refX="0"
       refY="0"
       orient="auto"
       inkscape:stockid="Arrow1Lend"
       inkscape:isstock="true">
      <path
         transform="matrix(-0.8,0,0,-0.8,-10,0)"
         style="fill:context-stroke;fill-rule:evenodd;stroke:context-stroke;stroke-width:1pt"
         d="M 0,0 5,-5 -12.5,0 5,5 Z"
         id="path6968" />
    </marker>
    <marker
       style="overflow:visible"
       id="Arrow1Lend-9-8-1-3-1-6"
       refX="0"
       refY="0"
       orient="auto"
       inkscape:stockid="Arrow1Lend"
       inkscape:isstock="true">
      <path
         transform="matrix(-0.8,0,0,-0.8,-10,0)"
         style="fill:context-stroke;fill-rule:evenodd;stroke:context-stroke;stroke-width:1pt"
         d="M 0,0 5,-5 -12.5,0 5,5 Z"
         id="path2139-1-7-2-1-29-1" />
    </marker>
    <marker
       style="overflow:visible"
       id="marker7046"
       refX="0"
       refY="0"
       orient="auto"
       inkscape:stockid="Arrow1Lend"
       inkscape:isstock="true">
      <path
         transform="matrix(-0.8,0,0,-0.8,-10,0)"
         style="fill:context-stroke;fill-rule:evenodd;stroke:context-stroke;stroke-width:1pt"
         d="M 0,0 5,-5 -12.5,0 5,5 Z"
         id="path7044" />
    </marker>
    <marker
       style="overflow:visible"
       id="Arrow1Mend-6"
       refX="0"
       refY="0"
       orient="auto"
       inkscape:stockid="Arrow1Mend"
       inkscape:isstock="true">
      <path
         transform="matrix(-0.4,0,0,-0.4,-4,0)"
         style="fill:context-stroke;fill-rule:evenodd;stroke:context-stroke;stroke-width:1pt"
         d="M 0,0 5,-5 -12.5,0 5,5 Z"
         id="path7121-3" />
    </marker>
    <marker
       style="overflow:visible"
       id="Arrow1Mend-6-5"
       refX="0"
       refY="0"
       orient="auto"
       inkscape:stockid="Arrow1Mend"
       inkscape:isstock="true">
      <path
         transform="matrix(-0.4,0,0,-0.4,-4,0)"
         style="fill:context-stroke;fill-rule:evenodd;stroke:context-stroke;stroke-width:1pt"
         d="M 0,0 5,-5 -12.5,0 5,5 Z"
         id="path7121-3-4" />
    </marker>
    <marker
       style="overflow:visible"
       id="Arrow1Lend-9-8-1-3-1-74"
       refX="0"
       refY="0"
       orient="auto"
       inkscape:stockid="Arrow1Lend"
       inkscape:isstock="true">
      <path
         transform="matrix(-0.8,0,0,-0.8,-10,0)"
         style="fill:context-stroke;fill-rule:evenodd;stroke:context-stroke;stroke-width:1pt"
         d="M 0,0 5,-5 -12.5,0 5,5 Z"
         id="path2139-1-7-2-1-29-4" />
    </marker>
    <marker
       style="overflow:visible"
       id="marker16168"
       refX="0"
       refY="0"
       orient="auto"
       inkscape:stockid="Arrow1Lend"
       inkscape:isstock="true">
      <path
         transform="matrix(-0.8,0,0,-0.8,-10,0)"
         style="fill:context-stroke;fill-rule:evenodd;stroke:context-stroke;stroke-width:1pt"
         d="M 0,0 5,-5 -12.5,0 5,5 Z"
         id="path16166" />
    </marker>
    <marker
       style="overflow:visible"
       id="Arrow1Lend-9-8-1-3-1-0"
       refX="0"
       refY="0"
       orient="auto"
       inkscape:stockid="Arrow1Lend"
       inkscape:isstock="true">
      <path
         transform="matrix(-0.8,0,0,-0.8,-10,0)"
         style="fill:context-stroke;fill-rule:evenodd;stroke:context-stroke;stroke-width:1pt"
         d="M 0,0 5,-5 -12.5,0 5,5 Z"
         id="path2139-1-7-2-1-29-7" />
    </marker>
    <marker
       style="overflow:visible"
       id="marker16229"
       refX="0"
       refY="0"
       orient="auto"
       inkscape:stockid="Arrow1Lend"
       inkscape:isstock="true">
      <path
         transform="matrix(-0.8,0,0,-0.8,-10,0)"
         style="fill:context-stroke;fill-rule:evenodd;stroke:context-stroke;stroke-width:1pt"
         d="M 0,0 5,-5 -12.5,0 5,5 Z"
         id="path16227" />
    </marker>
    <marker
       style="overflow:visible"
       id="Arrow1Lend-9-8-1-3-1-8"
       refX="0"
       refY="0"
       orient="auto"
       inkscape:stockid="Arrow1Lend"
       inkscape:isstock="true">
      <path
         transform="matrix(-0.8,0,0,-0.8,-10,0)"
         style="fill:context-stroke;fill-rule:evenodd;stroke:context-stroke;stroke-width:1pt"
         d="M 0,0 5,-5 -12.5,0 5,5 Z"
         id="path2139-1-7-2-1-29-84" />
    </marker>
    <marker
       style="overflow:visible"
       id="marker16416"
       refX="0"
       refY="0"
       orient="auto"
       inkscape:stockid="Arrow1Lend"
       inkscape:isstock="true">
      <path
         transform="matrix(-0.8,0,0,-0.8,-10,0)"
         style="fill:context-stroke;fill-rule:evenodd;stroke:context-stroke;stroke-width:1pt"
         d="M 0,0 5,-5 -12.5,0 5,5 Z"
         id="path16414" />
    </marker>
    <marker
       style="overflow:visible"
       id="Arrow1Lend-9-0"
       refX="0"
       refY="0"
       orient="auto"
       inkscape:stockid="Arrow1Lend"
       inkscape:isstock="true">
      <path
         transform="matrix(-0.8,0,0,-0.8,-10,0)"
         style="fill:context-stroke;fill-rule:evenodd;stroke:context-stroke;stroke-width:1pt"
         d="M 0,0 5,-5 -12.5,0 5,5 Z"
         id="path2139-1-6" />
    </marker>
    <marker
       style="overflow:visible"
       id="Arrow1Lend-9-0-2"
       refX="0"
       refY="0"
       orient="auto"
       inkscape:stockid="Arrow1Lend"
       inkscape:isstock="true">
      <path
         transform="matrix(-0.8,0,0,-0.8,-10,0)"
         style="fill:context-stroke;fill-rule:evenodd;stroke:context-stroke;stroke-width:1pt"
         d="M 0,0 5,-5 -12.5,0 5,5 Z"
         id="path2139-1-6-6" />
    </marker>
    <marker
       style="overflow:visible"
       id="Arrow1Mend-4"
       refX="0"
       refY="0"
       orient="auto"
       inkscape:stockid="Arrow1Mend"
       inkscape:isstock="true">
      <path
         transform="matrix(-0.4,0,0,-0.4,-4,0)"
         style="fill:context-stroke;fill-rule:evenodd;stroke:context-stroke;stroke-width:1pt"
         d="M 0,0 5,-5 -12.5,0 5,5 Z"
         id="path7121-8" />
    </marker>
    <marker
       style="overflow:visible"
       id="Arrow1Mend-4-1"
       refX="0"
       refY="0"
       orient="auto"
       inkscape:stockid="Arrow1Mend"
       inkscape:isstock="true">
      <path
         transform="matrix(-0.4,0,0,-0.4,-4,0)"
         style="fill:context-stroke;fill-rule:evenodd;stroke:context-stroke;stroke-width:1pt"
         d="M 0,0 5,-5 -12.5,0 5,5 Z"
         id="path7121-8-7" />
    </marker>
    <marker
       style="overflow:visible"
       id="Arrow1Mend-6-7"
       refX="0"
       refY="0"
       orient="auto"
       inkscape:stockid="Arrow1Mend"
       inkscape:isstock="true">
      <path
         transform="matrix(-0.4,0,0,-0.4,-4,0)"
         style="fill:context-stroke;fill-rule:evenodd;stroke:context-stroke;stroke-width:1pt"
         d="M 0,0 5,-5 -12.5,0 5,5 Z"
         id="path7121-3-2" />
    </marker>
    <marker
       style="overflow:visible"
       id="Arrow1Mend-4-9"
       refX="0"
       refY="0"
       orient="auto"
       inkscape:stockid="Arrow1Mend"
       inkscape:isstock="true">
      <path
         transform="matrix(-0.4,0,0,-0.4,-4,0)"
         style="fill:context-stroke;fill-rule:evenodd;stroke:context-stroke;stroke-width:1pt"
         d="M 0,0 5,-5 -12.5,0 5,5 Z"
         id="path7121-8-4" />
    </marker>
    <marker
       style="overflow:visible"
       id="Arrow1Mend-4-3"
       refX="0"
       refY="0"
       orient="auto"
       inkscape:stockid="Arrow1Mend"
       inkscape:isstock="true">
      <path
         transform="matrix(-0.4,0,0,-0.4,-4,0)"
         style="fill:context-stroke;fill-rule:evenodd;stroke:context-stroke;stroke-width:1pt"
         d="M 0,0 5,-5 -12.5,0 5,5 Z"
         id="path7121-8-6" />
    </marker>
    <marker
       style="overflow:visible"
       id="Arrow1Mend-4-5"
       refX="0"
       refY="0"
       orient="auto"
       inkscape:stockid="Arrow1Mend"
       inkscape:isstock="true">
      <path
         transform="matrix(-0.4,0,0,-0.4,-4,0)"
         style="fill:context-stroke;fill-rule:evenodd;stroke:context-stroke;stroke-width:1pt"
         d="M 0,0 5,-5 -12.5,0 5,5 Z"
         id="path7121-8-3" />
    </marker>
    <marker
       style="overflow:visible"
       id="Arrow1Mend-4-5-6"
       refX="0"
       refY="0"
       orient="auto"
       inkscape:stockid="Arrow1Mend"
       inkscape:isstock="true">
      <path
         transform="matrix(-0.4,0,0,-0.4,-4,0)"
         style="fill:context-stroke;fill-rule:evenodd;stroke:context-stroke;stroke-width:1pt"
         d="M 0,0 5,-5 -12.5,0 5,5 Z"
         id="path7121-8-3-2" />
    </marker>
    <marker
       style="overflow:visible"
       id="Arrow1Mend-6-7-7"
       refX="0"
       refY="0"
       orient="auto"
       inkscape:stockid="Arrow1Mend"
       inkscape:isstock="true">
      <path
         transform="matrix(-0.4,0,0,-0.4,-4,0)"
         style="fill:context-stroke;fill-rule:evenodd;stroke:context-stroke;stroke-width:1pt"
         d="M 0,0 5,-5 -12.5,0 5,5 Z"
         id="path7121-3-2-0" />
    </marker>
    <marker
       style="overflow:visible"
       id="Arrow1Mend-4-5-3"
       refX="0"
       refY="0"
       orient="auto"
       inkscape:stockid="Arrow1Mend"
       inkscape:isstock="true">
      <path
         transform="matrix(-0.4,0,0,-0.4,-4,0)"
         style="fill:context-stroke;fill-rule:evenodd;stroke:context-stroke;stroke-width:1pt"
         d="M 0,0 5,-5 -12.5,0 5,5 Z"
         id="path7121-8-3-6" />
    </marker>
    <marker
       style="overflow:visible"
       id="Arrow1Mend-4-5-8"
       refX="0"
       refY="0"
       orient="auto"
       inkscape:stockid="Arrow1Mend"
       inkscape:isstock="true">
      <path
         transform="matrix(-0.4,0,0,-0.4,-4,0)"
         style="fill:context-stroke;fill-rule:evenodd;stroke:context-stroke;stroke-width:1pt"
         d="M 0,0 5,-5 -12.5,0 5,5 Z"
         id="path7121-8-3-7" />
    </marker>
    <marker
       style="overflow:visible"
       id="Arrow1Mend-4-5-2"
       refX="0"
       refY="0"
       orient="auto"
       inkscape:stockid="Arrow1Mend"
       inkscape:isstock="true">
      <path
         transform="matrix(-0.4,0,0,-0.4,-4,0)"
         style="fill:context-stroke;fill-rule:evenodd;stroke:context-stroke;stroke-width:1pt"
         d="M 0,0 5,-5 -12.5,0 5,5 Z"
         id="path7121-8-3-0" />
    </marker>
    <marker
       style="overflow:visible"
       id="Arrow1Mend-4-5-37"
       refX="0"
       refY="0"
       orient="auto"
       inkscape:stockid="Arrow1Mend"
       inkscape:isstock="true">
      <path
         transform="matrix(-0.4,0,0,-0.4,-4,0)"
         style="fill:context-stroke;fill-rule:evenodd;stroke:context-stroke;stroke-width:1pt"
         d="M 0,0 5,-5 -12.5,0 5,5 Z"
         id="path7121-8-3-5" />
    </marker>
    <marker
       style="overflow:visible"
       id="Arrow1Mend-4-5-31"
       refX="0"
       refY="0"
       orient="auto"
       inkscape:stockid="Arrow1Mend"
       inkscape:isstock="true">
      <path
         transform="matrix(-0.4,0,0,-0.4,-4,0)"
         style="fill:context-stroke;fill-rule:evenodd;stroke:context-stroke;stroke-width:1pt"
         d="M 0,0 5,-5 -12.5,0 5,5 Z"
         id="path7121-8-3-9" />
    </marker>
  </defs>
  <g
     inkscape:label="Layer 1"
     inkscape:groupmode="layer"
     id="layer1">
    <text
       xml:space="preserve"
       style="font-style:normal;font-weight:normal;font-size:3.31904px;line-height:1.25;font-family:sans-serif;fill:#000000;fill-opacity:1;stroke:none;stroke-width:0.0829765"
       x="89.492172"
       y="69.146896"
       id="text10057-61-1"><tspan
         sodipodi:role="line"
         id="tspan10055-0-7"
         style="stroke-width:0.0829765"
         x="89.492172"
         y="69.146896">$-1.8$</tspan></text>
    <text
       xml:space="preserve"
       style="font-style:normal;font-weight:normal;font-size:3.31904px;line-height:1.25;font-family:sans-serif;fill:#000000;fill-opacity:1;stroke:none;stroke-width:0.0829765"
       x="107.51368"
       y="42.069534"
       id="text10057-61-1-7"><tspan
         sodipodi:role="line"
         id="tspan10055-0-7-5"
         style="stroke-width:0.0829765"
         x="107.51368"
         y="42.069534">0</tspan></text>
    <text
       xml:space="preserve"
       style="font-style:normal;font-weight:normal;font-size:3.31904px;line-height:1.25;font-family:sans-serif;fill:#000000;fill-opacity:1;stroke:none;stroke-width:0.0829765"
       x="78.094574"
       y="38.821949"
       id="text10057-61-1-3"><tspan
         sodipodi:role="line"
         id="tspan10055-0-7-6"
         style="stroke-width:0.0829765"
         x="78.094574"
         y="38.821949">Directa</tspan></text>
    <path
       style="fill:none;stroke:#000000;stroke-width:0.264583px;stroke-linecap:butt;stroke-linejoin:miter;stroke-opacity:1"
       d="m 99.479593,88.212936 c 0,-37.087206 0,-37.087206 0,-37.087206 C 119.57415,39.524132 119.57415,39.524132 119.57415,39.524132"
       id="path15937" />
    <text
       xml:space="preserve"
       style="font-style:normal;font-weight:normal;font-size:3.31904px;line-height:1.25;font-family:sans-serif;fill:#000000;fill-opacity:1;stroke:none;stroke-width:0.0829765"
       x="148.54486"
       y="70.033493"
       id="text10057-61-1-35"><tspan
         sodipodi:role="line"
         id="tspan10055-0-7-62"
         style="stroke-width:0.0829765"
         x="148.54486"
         y="70.033493">$+67.5$</tspan></text>
    <text
       xml:space="preserve"
       style="font-style:normal;font-weight:normal;font-size:3.31904px;line-height:1.25;font-family:sans-serif;fill:#000000;fill-opacity:1;stroke:none;stroke-width:0.0829765"
       x="170.64381"
       y="43.226757"
       id="text10057-61-1-7-9"><tspan
         sodipodi:role="line"
         id="tspan10055-0-7-5-1"
         style="stroke-width:0.0829765"
         x="170.64381"
         y="43.226757">0</tspan></text>
    <text
       xml:space="preserve"
       style="font-style:normal;font-weight:normal;font-size:3.31904px;line-height:1.25;font-family:sans-serif;fill:#000000;fill-opacity:1;stroke:none;stroke-width:0.0829765"
       x="146.26419"
       y="39.662552"
       id="text10057-61-1-3-2"><tspan
         sodipodi:role="line"
         id="tspan10055-0-7-6-7"
         style="stroke-width:0.0829765"
         x="146.26419"
         y="39.662552">Torsor (Mx)</tspan></text>
    <path
       style="fill:none;stroke:#000000;stroke-width:0.264583px;stroke-linecap:butt;stroke-linejoin:miter;stroke-opacity:1"
       d="m 162.60972,89.370161 c 0,-37.087206 0,-37.087206 0,-37.087206 20.09456,-11.601598 20.09456,-11.601598 20.09456,-11.601598"
       id="path15937-0" />
    <text
       xml:space="preserve"
       style="font-style:normal;font-weight:normal;font-size:3.31904px;line-height:1.25;font-family:sans-serif;fill:#000000;fill-opacity:1;stroke:none;stroke-width:0.0829765"
       x="111.08559"
       y="123.10668"
       id="text10057-61-1-9"><tspan
         sodipodi:role="line"
         id="tspan10055-0-7-3"
         style="stroke-width:0.0829765"
         x="111.08559"
         y="123.10668">$45$</tspan></text>
    <text
       xml:space="preserve"
       style="font-style:normal;font-weight:normal;font-size:3.31904px;line-height:1.25;font-family:sans-serif;fill:#000000;fill-opacity:1;stroke:none;stroke-width:0.0829765"
       x="110.09594"
       y="156.54703"
       id="text10057-61-1-9-7"><tspan
         sodipodi:role="line"
         id="tspan10055-0-7-3-5"
         style="stroke-width:0.0829765"
         x="110.09594"
         y="156.54703">$45$</tspan></text>
    <text
       xml:space="preserve"
       style="font-style:normal;font-weight:normal;font-size:3.31904px;line-height:1.25;font-family:sans-serif;fill:#000000;fill-opacity:1;stroke:none;stroke-width:0.0829765"
       x="177.88936"
       y="160.74184"
       id="text10057-61-1-9-7-2"><tspan
         sodipodi:role="line"
         id="tspan10055-0-7-3-5-8"
         style="stroke-width:0.0829765"
         x="177.88936"
         y="160.74184">$225$</tspan></text>
    <text
       xml:space="preserve"
       style="font-style:normal;font-weight:normal;font-size:3.31904px;line-height:1.25;font-family:sans-serif;fill:#000000;fill-opacity:1;stroke:none;stroke-width:0.0829765"
       x="171.67348"
       y="123.00288"
       id="text10057-61-1-9-7-2-9"><tspan
         sodipodi:role="line"
         id="tspan10055-0-7-3-5-8-7"
         style="stroke-width:0.0829765"
         x="171.67348"
         y="123.00288">$67.5$</tspan></text>
    <text
       xml:space="preserve"
       style="font-style:normal;font-weight:normal;font-size:3.31904px;line-height:1.25;font-family:sans-serif;fill:#000000;fill-opacity:1;stroke:none;stroke-width:0.0829765"
       x="119.41614"
       y="107.57296"
       id="text10057-61-1-7-6"><tspan
         sodipodi:role="line"
         id="tspan10055-0-7-5-0"
         style="stroke-width:0.0829765"
         x="119.41614"
         y="107.57296">0</tspan></text>
    <text
       xml:space="preserve"
       style="font-style:normal;font-weight:normal;font-size:3.31904px;line-height:1.25;font-family:sans-serif;fill:#000000;fill-opacity:1;stroke:none;stroke-width:0.0829765"
       x="86.252052"
       y="106.33291"
       id="text10057-61-1-3-6"><tspan
         sodipodi:role="line"
         id="tspan10055-0-7-6-2"
         style="stroke-width:0.0829765"
         x="86.252052"
         y="106.33291">Vy</tspan></text>
    <path
       style="fill:none;stroke:#000000;stroke-width:0.264583px;stroke-linecap:butt;stroke-linejoin:miter;stroke-opacity:1"
       d="m 97.576631,154.25445 c 0,-37.08721 0,-37.08721 0,-37.08721 20.094559,-11.60159 20.094559,-11.60159 20.094559,-11.60159"
       id="path15937-6" />
    <text
       xml:space="preserve"
       style="font-style:normal;font-weight:normal;font-size:3.31904px;line-height:1.25;font-family:sans-serif;fill:#000000;fill-opacity:1;stroke:none;stroke-width:0.0829765"
       x="145.17787"
       y="106.64124"
       id="text10057-61-1-3-2-2"><tspan
         sodipodi:role="line"
         id="tspan10055-0-7-6-7-0"
         style="stroke-width:0.0829765"
         x="145.17787"
         y="106.64124">Flector Mz</tspan></text>
    <path
       style="fill:none;stroke:#000000;stroke-width:0.264583px;stroke-linecap:butt;stroke-linejoin:miter;stroke-opacity:1"
       d="m 160.70675,155.41168 c 0,-37.08721 0,-37.08721 0,-37.08721 20.09456,-11.6016 20.09456,-11.6016 20.09456,-11.6016"
       id="path15937-0-2" />
    <path
       style="fill:none;stroke:#000000;stroke-width:0.264583px;stroke-linecap:butt;stroke-linejoin:miter;stroke-opacity:1"
       d="m 97.576631,117.16724 c 11.138049,2.98443 11.138049,2.98443 11.138049,2.98443"
       id="path12444" />
    <path
       style="fill:none;stroke:#000000;stroke-width:0.220567px;stroke-linecap:butt;stroke-linejoin:miter;stroke-opacity:1"
       d="m 160.70105,118.30321 c 9.28515,2.48795 9.28515,2.48795 9.28515,2.48795"
       id="path12444-9" />
    <path
       style="fill:none;stroke:#000000;stroke-width:0.332996px;stroke-linecap:butt;stroke-linejoin:miter;stroke-opacity:1"
       d="m 160.7156,155.44472 c 14.01802,3.75611 14.01802,3.75611 14.01802,3.75611"
       id="path12444-9-2" />
    <path
       style="fill:none;stroke:#000000;stroke-width:0.264583px;stroke-linecap:butt;stroke-linejoin:miter;stroke-opacity:1"
       d="m 97.576631,154.25445 c 11.138049,2.98443 11.138049,2.98443 11.138049,2.98443"
       id="path12444-3" />
    <path
       style="fill:none;stroke:#000000;stroke-width:0.264583px;stroke-linecap:butt;stroke-linejoin:miter;stroke-opacity:1"
       d="m 108.71468,120.15167 c 0,37.08721 0,37.08721 0,37.08721"
       id="path12796" />
    <path
       style="fill:none;stroke:#000000;stroke-width:0.264583px;stroke-linecap:butt;stroke-linejoin:miter;stroke-opacity:1"
       d="m 108.71468,120.15167 c 8.95651,-14.58602 8.95651,-14.58602 8.95651,-14.58602"
       id="path12911" />
    <path
       style="fill:none;stroke:#000000;stroke-width:0.264583px;stroke-linecap:butt;stroke-linejoin:miter;stroke-opacity:1"
       d="M 174.73362,159.20083 C 160.70675,118.32447 160.70675,118.32447 160.70675,118.32447"
       id="path13640" />
    <path
       style="fill:none;stroke:#000000;stroke-width:0.264583px;stroke-linecap:butt;stroke-linejoin:miter;stroke-opacity:1"
       d="m 169.9862,120.79116 c 0.7268,-7.32246 10.81511,-14.06829 10.81511,-14.06829"
       id="path13755"
       sodipodi:nodetypes="cc" />
    <text
       xml:space="preserve"
       style="font-style:normal;font-weight:normal;font-size:3.31904px;line-height:1.25;font-family:sans-serif;fill:#000000;fill-opacity:1;stroke:none;stroke-width:0.0829765"
       x="96.889923"
       y="166.80939"
       id="text10057-61-1-9-6-0"><tspan
         sodipodi:role="line"
         id="tspan10055-0-7-3-56-6"
         style="stroke-width:0.0829765"
         x="96.889923"
         y="166.80939">$1.8$</tspan></text>
    <text
       xml:space="preserve"
       style="font-style:normal;font-weight:normal;font-size:3.31904px;line-height:1.25;font-family:sans-serif;fill:#000000;fill-opacity:1;stroke:none;stroke-width:0.0829765"
       x="162.79634"
       y="170.19252"
       id="text10057-61-1-9-7-2-9-5"><tspan
         sodipodi:role="line"
         id="tspan10055-0-7-3-5-8-7-2"
         style="stroke-width:0.0829765"
         x="162.79634"
         y="170.19252">$2.7$</tspan></text>
    <text
       xml:space="preserve"
       style="font-style:normal;font-weight:normal;font-size:3.31904px;line-height:1.25;font-family:sans-serif;fill:#000000;fill-opacity:1;stroke:none;stroke-width:0.0829765"
       x="141.73157"
       y="207.93536"
       id="text10057-61-1-9-7-2-9-5-9"><tspan
         sodipodi:role="line"
         id="tspan10055-0-7-3-5-8-7-2-2"
         style="stroke-width:0.0829765"
         x="141.73157"
         y="207.93536">$2.7$</tspan></text>
    <text
       xml:space="preserve"
       style="font-style:normal;font-weight:normal;font-size:3.31904px;line-height:1.25;font-family:sans-serif;fill:#000000;fill-opacity:1;stroke:none;stroke-width:0.0829765"
       x="93.103027"
       y="199.3448"
       id="text10057-61-1-7-6-5"><tspan
         sodipodi:role="line"
         id="tspan10055-0-7-5-0-4"
         style="stroke-width:0.0829765"
         x="93.103027"
         y="199.3448">0</tspan></text>
    <text
       xml:space="preserve"
       style="font-style:normal;font-weight:normal;font-size:3.31904px;line-height:1.25;font-family:sans-serif;fill:#000000;fill-opacity:1;stroke:none;stroke-width:0.0829765"
       x="86.457214"
       y="174.39534"
       id="text10057-61-1-3-6-7"><tspan
         sodipodi:role="line"
         id="tspan10055-0-7-6-2-4"
         style="stroke-width:0.0829765"
         x="86.457214"
         y="174.39534">Vz</tspan></text>
    <path
       style="fill:none;stroke:#000000;stroke-width:0.264583px;stroke-linecap:butt;stroke-linejoin:miter;stroke-opacity:1"
       d="m 97.320876,219.50274 c 0,-37.08721 0,-37.08721 0,-37.08721 20.094564,-11.60159 20.094564,-11.60159 20.094564,-11.60159"
       id="path15937-6-4" />
    <text
       xml:space="preserve"
       style="font-style:normal;font-weight:normal;font-size:3.31904px;line-height:1.25;font-family:sans-serif;fill:#000000;fill-opacity:1;stroke:none;stroke-width:0.0829765"
       x="140.03329"
       y="174.09978"
       id="text10057-61-1-3-2-2-7"><tspan
         sodipodi:role="line"
         id="tspan10055-0-7-6-7-0-8"
         style="stroke-width:0.0829765"
         x="140.03329"
         y="174.09978">Flector My</tspan></text>
    <path
       style="fill:none;stroke:#000000;stroke-width:0.264583px;stroke-linecap:butt;stroke-linejoin:miter;stroke-opacity:1"
       d="m 160.451,220.65997 c 0,-37.08721 0,-37.08721 0,-37.08721 20.09456,-11.6016 20.09456,-11.6016 20.09456,-11.6016"
       id="path15937-0-2-6" />
    <path
       style="fill:none;stroke:#000000;stroke-width:0.264583px;stroke-linecap:butt;stroke-linejoin:miter;stroke-opacity:1"
       d="m 97.320874,182.41553 c 0,-13.10327 0,-13.10327 0,-13.10327 20.094566,1.50168 20.094566,1.50168 20.094566,1.50168"
       id="path15346" />
    <path
       style="fill:none;stroke:#000000;stroke-width:0.285424px;stroke-linecap:butt;stroke-linejoin:miter;stroke-opacity:1"
       d="m 160.451,183.57276 c 0,-11.04462 0,-11.04462 0,-11.04462"
       id="path16982" />
    <path
       style="fill:none;stroke:#000000;stroke-width:0.264583px;stroke-linecap:butt;stroke-linejoin:miter;stroke-opacity:1"
       d="m 160.451,172.52814 c 7.66192,2.52052 20.09456,-0.55698 20.09456,-0.55698"
       id="path17177" />
    <path
       style="fill:none;stroke:#000000;stroke-width:0.264583px;stroke-linecap:butt;stroke-linejoin:miter;stroke-opacity:1"
       d="m 160.451,183.57276 c -7.77346,4.488 -7.77346,4.488 -7.77346,4.488"
       id="path17634" />
    <path
       style="fill:none;stroke:#000000;stroke-width:0.264583px;stroke-linecap:butt;stroke-linejoin:miter;stroke-opacity:1"
       d="m 160.451,220.65997 c -7.77346,4.488 -7.77346,4.488 -7.77346,4.488"
       id="path17634-8" />
    <path
       style="fill:none;stroke:#000000;stroke-width:0.264583px;stroke-linecap:butt;stroke-linejoin:miter;stroke-opacity:1"
       d="m 152.67754,188.06076 c 0,37.08721 0,37.08721 0,37.08721"
       id="path17856" />
  </g>
</svg>
